<?xml version="1.0" encoding="UTF-8"?>
<svg id="Layer_2" data-name="Layer 2" xmlns="http://www.w3.org/2000/svg" xmlns:xlink="http://www.w3.org/1999/xlink" viewBox="0 0 99.36 127.64">
  <defs>
    <style>
      .cls-1 {
        fill: none;
      }

      .cls-2 {
        fill: #8dc63f;
      }

      .cls-3 {
        clip-path: url(#clippath-1);
      }

      .cls-4 {
        clip-path: url(#clippath);
      }

      .cls-5 {
        fill: #006838;
      }
    </style>
    <clipPath id="clippath">
      <rect class="cls-1" width="99.36" height="127.64"/>
    </clipPath>
    <clipPath id="clippath-1">
      <rect class="cls-1" x="-163.87" y="-195.39" width="841.89" height="595.28"/>
    </clipPath>
  </defs>
  <g id="Layer_1-2" data-name="Layer 1">
    <g class="cls-4">
      <g class="cls-3">
        <path class="cls-5" d="M50.53,44.29c-5.57,0-10.89.9-15.83,2.48v29.75c3.87-2.44,9.49-4.01,15.83-4.01,11.67,0,21.12,5.21,21.12,11.65s-9.46,11.65-21.12,11.65-21.12-5.21-21.12-11.65c0-.07,0-35.38,0-35.38t0,0V6.53c-13.72,0-24.85,11.12-24.85,24.85,0,0-.02,52.58-.02,52.77,0,22.01,20.59,38.97,45.99,38.97s45.99-16.96,45.99-38.97-20.59-39.86-45.99-39.86"/>
        <path class="cls-2" d="M84.06,19.88c-16.42-14.14-32.84-.45-49.25-13.34v26.68c16.42,3.99,32.84-18.58,49.25-13.34"/>
      </g>
    </g>
  </g>
</svg>