<svg width="161" height="53" viewBox="0 0 161 53" fill="none" xmlns="http://www.w3.org/2000/svg">
<g clip-path="url(#clip0_1_4590)">
<path d="M148.179 0.00017225H12.8283C12.3349 0.00017225 11.8475 0.00017225 11.3554 0.00282225C10.9435 0.00547225 10.5349 0.0131705 10.119 0.0196497C9.21556 0.0301196 8.31425 0.108393 7.42289 0.253791C6.53278 0.402353 5.67056 0.682436 4.86538 1.08457C4.06119 1.4901 3.32638 2.01704 2.6876 2.64629C2.04547 3.27377 1.5102 3.99904 1.10238 4.79423C0.693437 5.58784 0.409873 6.43827 0.261485 7.31613C0.111686 8.19289 0.0310773 9.07976 0.0203833 9.96878C0.00789769 10.375 0.00657917 10.7826 0 11.1889V41.8153C0.00657917 42.2267 0.00789769 42.6253 0.0203833 43.0368C0.0310806 43.9258 0.111689 44.8126 0.261485 45.6894C0.409464 46.5677 0.693044 47.4186 1.10238 48.2126C1.51001 49.0052 2.04536 49.7275 2.6876 50.3515C3.32395 50.9835 4.05924 51.5108 4.86538 51.9133C5.67055 52.3165 6.53268 52.5982 7.42289 52.7491C8.3144 52.8933 9.21562 52.9716 10.119 52.9833C10.5349 52.9924 10.9435 52.9975 11.3554 52.9975C11.8474 53.0002 12.3349 53.0002 12.8283 53.0002H148.179C148.663 53.0002 149.154 53.0002 149.637 52.9975C150.047 52.9975 150.468 52.9924 150.878 52.9833C151.779 52.9722 152.679 52.8939 153.569 52.7491C154.462 52.5972 155.327 52.3155 156.136 51.9133C156.941 51.5106 157.676 50.9833 158.312 50.3515C158.952 49.7251 159.489 49.0033 159.902 48.2126C160.308 47.4181 160.589 46.5672 160.735 45.6894C160.885 44.8125 160.968 43.9259 160.984 43.0368C160.99 42.6253 160.99 42.2267 160.99 41.8153C161 41.3339 161 40.8552 161 40.366V12.6355C161 12.1503 161 11.669 160.99 11.1889C160.99 10.7826 160.99 10.375 160.984 9.96873C160.968 9.07963 160.885 8.19296 160.735 7.31608C160.588 6.43872 160.307 5.58836 159.902 4.79418C159.071 3.20031 157.754 1.90291 156.136 1.08445C155.327 0.683299 154.462 0.403291 153.569 0.253671C152.679 0.107633 151.78 0.0293325 150.878 0.0194643C150.468 0.0129983 150.047 0.00523375 149.637 0.00265C149.154 0 148.663 0.00017225 148.179 0.00017225Z" fill="#A6A6A6"/>
<path d="M11.3619 51.8406C10.952 51.8406 10.552 51.8354 10.1453 51.8264C9.30274 51.8156 8.46218 51.7434 7.63047 51.6103C6.85495 51.4788 6.10368 51.2341 5.40144 50.8844C4.70564 50.5375 4.07101 50.0827 3.52187 49.5374C2.96478 48.9985 2.50098 48.3734 2.14884 47.687C1.79283 46.9961 1.54644 46.2556 1.41827 45.4912C1.27986 44.6699 1.20497 43.8394 1.19426 43.0068C1.18573 42.7274 1.17456 41.797 1.17456 41.797V11.1887C1.17456 11.1887 1.18645 10.2726 1.19433 10.0035C1.20459 9.17228 1.27904 8.34305 1.41703 7.52298C1.54544 6.75649 1.79202 6.01383 2.14822 5.3207C2.49907 4.63476 2.96029 4.00925 3.51403 3.46841C4.06714 2.92244 4.7038 2.46529 5.40078 2.11364C6.10141 1.76501 6.85126 1.52206 7.62521 1.39292C8.45965 1.25852 9.30313 1.18586 10.1486 1.17554L11.3626 1.15936H149.631L150.859 1.17619C151.697 1.18599 152.533 1.25801 153.36 1.39162C154.141 1.52238 154.899 1.76703 155.608 2.11752C157.004 2.82619 158.14 3.94738 158.857 5.32393C159.207 6.01228 159.45 6.74888 159.577 7.50875C159.717 8.33555 159.795 9.17129 159.811 10.0093C159.815 10.3845 159.815 10.7876 159.815 11.1887C159.825 11.6856 159.825 12.1585 159.825 12.6354V40.3658C159.825 40.8472 159.825 41.3169 159.815 41.7905C159.815 42.2214 159.815 42.6161 159.81 43.0223C159.794 43.8454 159.717 44.6662 159.58 45.4782C159.454 46.2481 159.209 46.9944 158.853 47.691C158.498 48.3699 158.037 48.9896 157.487 49.527C156.937 50.0753 156.301 50.5328 155.604 50.8818C154.897 51.2343 154.141 51.4799 153.36 51.6103C152.528 51.7441 151.687 51.8163 150.845 51.8264C150.451 51.8354 150.038 51.8406 149.637 51.8406L148.179 51.8433L11.3619 51.8406Z" fill="black"/>
<path d="M33.3249 26.8984C33.3393 25.7925 33.6376 24.7082 34.192 23.7463C34.7463 22.7844 35.5387 21.9762 36.4955 21.397C35.8877 20.5421 35.0859 19.8386 34.1537 19.3424C33.2216 18.8461 32.1848 18.5707 31.1256 18.538C28.8663 18.3045 26.676 19.8694 25.5247 19.8694C24.3511 19.8694 22.5785 18.5612 20.6697 18.5999C19.4351 18.6392 18.2318 18.9928 17.1771 19.6262C16.1225 20.2596 15.2524 21.1513 14.6517 22.2143C12.0496 26.651 13.9906 33.1714 16.4831 36.7576C17.7302 38.5137 19.1877 40.4753 21.0948 40.4058C22.961 40.3295 23.6579 39.2338 25.9106 39.2338C28.1424 39.2338 28.7963 40.4058 30.7421 40.3615C32.7446 40.3295 34.0063 38.5976 35.2096 36.8249C36.1056 35.5736 36.7951 34.1907 37.2525 32.7273C36.0891 32.2428 35.0963 31.4316 34.3978 30.3951C33.6994 29.3585 33.3262 28.1425 33.3249 26.8984Z" fill="white"/>
<path d="M29.6496 16.1795C30.7415 14.8886 31.2794 13.2295 31.1492 11.5544C29.481 11.7269 27.9402 12.5121 26.8336 13.7534C26.2925 14.3598 25.8781 15.0653 25.6141 15.8295C25.3501 16.5937 25.2416 17.4017 25.2948 18.2072C26.1291 18.2157 26.9546 18.0376 27.7089 17.6863C28.4632 17.3351 29.1268 16.8199 29.6496 16.1795Z" fill="white"/>
<path d="M56.9149 35.96H50.5464L49.017 40.4073H46.3196L52.3517 23.9535H55.1542L61.1863 40.4073H58.4429L56.9149 35.96ZM51.206 33.9078H56.254L53.7655 26.6902H53.6959L51.206 33.9078Z" fill="white"/>
<path d="M74.2136 34.4099C74.2136 38.1378 72.1876 40.5329 69.1302 40.5329C68.3557 40.5728 67.5854 40.3971 66.9076 40.0259C66.2298 39.6547 65.6718 39.103 65.2975 38.4341H65.2397V44.3759H62.7393V28.4112H65.1596V30.4064H65.2055C65.597 29.7407 66.1644 29.1919 66.8474 28.8184C67.5304 28.445 68.3034 28.2609 69.0842 28.2857C72.1757 28.2857 74.2136 30.6924 74.2136 34.4099ZM71.6437 34.4099C71.6437 31.9812 70.3692 30.3844 68.4246 30.3844C66.5142 30.3844 65.2292 32.0148 65.2292 34.4099C65.2292 36.827 66.5142 38.4457 68.4246 38.4457C70.3692 38.4457 71.6437 36.8606 71.6437 34.4099Z" fill="white"/>
<path d="M87.6207 34.4099C87.6207 38.1378 85.5947 40.5328 82.5372 40.5328C81.7627 40.5727 80.9924 40.397 80.3146 40.0259C79.6368 39.6547 79.0788 39.103 78.7046 38.434H78.6467V44.3758H76.1464V28.4112H78.5666V30.4064H78.6125C79.004 29.7407 79.5714 29.1919 80.2544 28.8184C80.9374 28.445 81.7104 28.2609 82.4912 28.2857C85.5828 28.2857 87.6207 30.6924 87.6207 34.4099ZM85.0507 34.4099C85.0507 31.9812 83.7762 30.3844 81.8316 30.3844C79.9212 30.3844 78.6362 32.0148 78.6362 34.4099C78.6362 36.827 79.9212 38.4457 81.8316 38.4457C83.7762 38.4457 85.0507 36.8606 85.0507 34.4099Z" fill="white"/>
<path d="M96.4816 35.8229C96.6669 37.4546 98.2764 38.5259 100.476 38.5259C102.583 38.5259 104.1 37.4545 104.1 35.9833C104.1 34.7061 103.185 33.9414 101.02 33.4174L98.8545 32.9037C95.7866 32.1739 94.3623 30.7609 94.3623 28.468C94.3623 25.6291 96.8745 23.6791 100.442 23.6791C103.972 23.6791 106.392 25.6291 106.474 28.468H103.95C103.799 26.826 102.42 25.8349 100.406 25.8349C98.392 25.8349 97.0137 26.8377 97.0137 28.2972C97.0137 29.4605 97.8941 30.145 100.048 30.669L101.888 31.1141C105.316 31.9125 106.741 33.2686 106.741 35.6753C106.741 38.7536 104.251 40.6815 100.291 40.6815C96.5854 40.6815 94.0837 38.7988 93.9221 35.8228L96.4816 35.8229Z" fill="white"/>
<path d="M112.137 25.5723V28.4112H114.453V30.3612H112.137V36.9745C112.137 38.0019 112.601 38.4807 113.619 38.4807C113.894 38.4759 114.168 38.4569 114.441 38.4237V40.362C113.984 40.4463 113.518 40.4844 113.053 40.4759C110.586 40.4759 109.625 39.5637 109.625 37.2371V30.3612H107.853V28.4112H109.625V25.5723H112.137Z" fill="white"/>
<path d="M115.795 34.4099C115.795 30.6355 118.052 28.2637 121.572 28.2637C125.104 28.2637 127.35 30.6354 127.35 34.4099C127.35 38.1947 125.115 40.5561 121.572 40.5561C118.03 40.5561 115.795 38.1947 115.795 34.4099ZM124.803 34.4099C124.803 31.8207 123.598 30.2926 121.572 30.2926C119.546 30.2926 118.342 31.8324 118.342 34.4099C118.342 37.0094 119.546 38.526 121.572 38.526C123.598 38.526 124.803 37.0094 124.803 34.4099Z" fill="white"/>
<path d="M129.412 28.4112H131.797V30.453H131.854C132.016 29.8153 132.395 29.2517 132.929 28.857C133.462 28.4623 134.118 28.2606 134.784 28.2857C135.073 28.2847 135.36 28.3155 135.641 28.3775V30.6808C135.277 30.5713 134.898 30.521 134.518 30.532C134.154 30.5174 133.792 30.5805 133.456 30.7168C133.12 30.8532 132.818 31.0595 132.57 31.3217C132.323 31.5839 132.136 31.8958 132.022 32.2359C131.909 32.5759 131.871 32.9362 131.912 33.2919V40.4073H129.412L129.412 28.4112Z" fill="white"/>
<path d="M147.169 36.8839C146.833 39.0616 144.679 40.5561 141.924 40.5561C138.381 40.5561 136.181 38.218 136.181 34.4668C136.181 30.7041 138.392 28.2637 141.819 28.2637C145.189 28.2637 147.309 30.5436 147.309 34.1809V35.0245H138.705V35.1733C138.665 35.6148 138.722 36.0596 138.87 36.4781C139.018 36.8966 139.255 37.2792 139.565 37.6006C139.875 37.9219 140.251 38.1747 140.667 38.3421C141.084 38.5094 141.532 38.5875 141.982 38.5712C142.573 38.6258 143.166 38.491 143.673 38.187C144.18 37.883 144.573 37.426 144.795 36.8839L147.169 36.8839ZM138.717 33.3036H144.807C144.829 32.9066 144.768 32.5094 144.627 32.1368C144.487 31.7642 144.269 31.4243 143.988 31.1384C143.708 30.8525 143.37 30.6268 142.997 30.4754C142.624 30.3241 142.223 30.2504 141.819 30.2589C141.412 30.2565 141.008 30.3336 140.632 30.4856C140.255 30.6377 139.912 30.8617 139.624 31.1447C139.335 31.4278 139.107 31.7643 138.951 32.1348C138.796 32.5054 138.716 32.9026 138.717 33.3036Z" fill="white"/>
<path d="M48.8508 17.3486C48.9559 18.0991 49.7009 18.5759 50.7756 18.5759C51.7768 18.5759 52.5113 18.0667 52.5113 17.3654C52.5113 16.7624 52.0435 16.4008 50.9806 16.1543L49.9465 15.9078C48.4947 15.5733 47.8325 14.883 47.8325 13.7217C47.8325 12.3132 49.0005 11.3764 50.7533 11.3764C51.4421 11.3008 52.1333 11.497 52.6756 11.9221C53.2178 12.3472 53.5669 12.9667 53.6465 13.6447H52.4324C52.3525 13.2736 52.1336 12.9457 51.8193 12.7264C51.505 12.5071 51.1183 12.4125 50.7363 12.4613C49.7508 12.4613 49.0952 12.9272 49.0952 13.6395C49.0952 14.2036 49.5183 14.5271 50.5641 14.7678L51.4484 14.9819C53.0947 15.3598 53.774 16.0171 53.774 17.2062C53.774 18.7182 52.5836 19.666 50.6811 19.666C48.9008 19.666 47.7038 18.7622 47.6144 17.3486L48.8508 17.3486Z" fill="white"/>
<path d="M57.0587 12.0227V13.5353H58.3713V14.5271H57.0587V17.5951C57.0587 18.2201 57.3202 18.4937 57.9154 18.4937C58.0677 18.4932 58.22 18.4842 58.3713 18.4666V19.4474C58.1566 19.4852 57.939 19.5053 57.7209 19.5075C56.3912 19.5075 55.8617 19.0469 55.8617 17.8966V14.5271H54.9V13.5353H55.8617V12.0227H57.0587Z" fill="white"/>
<path d="M59.7929 11.7438C59.7837 11.5913 59.8212 11.4396 59.9006 11.3083C59.9799 11.177 60.0974 11.0723 60.238 11.0075C60.3785 10.9428 60.5355 10.9211 60.6887 10.9453C60.8419 10.9694 60.9842 11.0383 61.0971 11.1431C61.2101 11.2478 61.2885 11.3835 61.3222 11.5326C61.3559 11.6818 61.3434 11.8374 61.2863 11.9795C61.2292 12.1215 61.13 12.2434 61.0018 12.3293C60.8735 12.4152 60.722 12.4612 60.5668 12.4613C60.4677 12.4663 60.3685 12.4515 60.2753 12.4178C60.1821 12.384 60.0968 12.3321 60.0245 12.2651C59.9523 12.1981 59.8945 12.1173 59.8547 12.0278C59.8149 11.9382 59.7939 11.8416 59.7929 11.7438ZM59.9716 13.5081H61.162V19.4745H59.9716L59.9716 13.5081Z" fill="white"/>
<path d="M62.7453 17.7872C62.7453 16.7133 63.5573 16.0941 64.9986 16.0061L66.6397 15.913V15.398C66.6397 14.7678 66.2166 14.412 65.3994 14.412C64.7319 14.412 64.2694 14.6533 64.1367 15.0751H62.9792C63.1014 14.0503 64.0802 13.393 65.4546 13.393C66.9734 13.393 67.8301 14.1377 67.8301 15.398V19.4745H66.6791V18.6361H66.5845C66.3925 18.9368 66.1229 19.182 65.8032 19.3466C65.4835 19.5112 65.1251 19.5893 64.7648 19.5728C64.5104 19.5989 64.2534 19.5722 64.0102 19.4944C63.767 19.4166 63.543 19.2895 63.3528 19.1213C63.1625 18.9531 63.0101 18.7474 62.9055 18.5176C62.8009 18.2879 62.7463 18.0391 62.7453 17.7872ZM66.6397 17.2774V16.7786L65.1602 16.8718C64.3259 16.9268 63.9475 17.2062 63.9475 17.7322C63.9475 18.2692 64.4205 18.5817 65.0709 18.5817C65.2615 18.6007 65.454 18.5818 65.637 18.526C65.82 18.4702 65.9897 18.3788 66.1361 18.2571C66.2824 18.1354 66.4025 17.9859 66.489 17.8176C66.5755 17.6493 66.6267 17.4656 66.6397 17.2774Z" fill="white"/>
<path d="M69.7575 11.179H70.9427V14.4669H71.0373C71.1962 14.1233 71.4589 13.8364 71.7894 13.6451C72.12 13.4538 72.5024 13.3676 72.8846 13.3981C73.1778 13.3824 73.471 13.4306 73.7431 13.5393C74.0153 13.6481 74.2597 13.8146 74.459 14.027C74.6583 14.2395 74.8075 14.4926 74.896 14.7684C74.9845 15.0442 75.0101 15.3358 74.971 15.6224V19.4745H73.7741V15.9129C73.7741 14.9599 73.3234 14.4773 72.4786 14.4773C72.2731 14.4607 72.0664 14.4885 71.8729 14.5588C71.6795 14.6291 71.504 14.7402 71.3587 14.8842C71.2134 15.0283 71.1018 15.2019 71.0318 15.3929C70.9617 15.5839 70.9349 15.7876 70.9532 15.9899V19.4745H69.7575L69.7575 11.179Z" fill="white"/>
<path d="M76.8198 13.5081H77.9707V14.4559H78.0601C78.2117 14.1155 78.4673 13.8302 78.7914 13.6396C79.1155 13.4491 79.4918 13.3628 79.868 13.393C80.1628 13.3711 80.4588 13.4149 80.7341 13.521C81.0093 13.6272 81.2568 13.7929 81.4582 14.006C81.6596 14.2192 81.8097 14.4742 81.8975 14.7522C81.9852 15.0302 82.0083 15.3241 81.965 15.6121V19.4744H80.7694V15.9078C80.7694 14.9489 80.3463 14.4721 79.462 14.4721C79.2619 14.4629 79.0621 14.4965 78.8763 14.5705C78.6906 14.6444 78.5233 14.7571 78.3859 14.9007C78.2485 15.0443 78.1442 15.2155 78.0803 15.4025C78.0163 15.5895 77.9942 15.7879 78.0154 15.9841V19.4745H76.8198V13.5081Z" fill="white"/>
<path d="M88.9227 19.4745H87.7705V18.5267H87.6759C87.5225 18.8706 87.2631 19.1583 86.9345 19.3491C86.606 19.5399 86.2248 19.624 85.8449 19.5897C85.5519 19.6101 85.258 19.5657 84.9847 19.4597C84.7114 19.3537 84.4657 19.1887 84.2656 18.9769C84.0655 18.7652 83.9161 18.512 83.8283 18.2359C83.7405 17.9598 83.7167 17.6679 83.7585 17.3816V13.5081H84.9554V17.0749C84.9554 18.0389 85.3496 18.4995 86.2286 18.4995C86.4324 18.5186 86.638 18.4926 86.8304 18.4235C87.0227 18.3543 87.1969 18.2438 87.3404 18.0999C87.4839 17.956 87.5929 17.7824 87.6596 17.5918C87.7262 17.4011 87.7489 17.1982 87.7258 16.9979V13.5081H88.9227V19.4745Z" fill="white"/>
<path d="M92.4466 12.0227V13.5353H93.7592V14.5271H92.4466V17.5951C92.4466 18.2201 92.7081 18.4937 93.3033 18.4937C93.4556 18.4932 93.6078 18.4842 93.7592 18.4665V19.4473C93.5445 19.4852 93.3269 19.5054 93.1088 19.5075C91.7791 19.5075 91.2496 19.0469 91.2496 17.8965V14.5271H90.288V13.5352H91.2497V12.0227H92.4466ZM94.2322 10.0119L93.9537 12.724H93.1247V10.0119H94.2322Z" fill="white"/>
<path d="M98.6233 13.5081H99.7743V14.4559H99.8636C100.015 14.1155 100.271 13.8302 100.595 13.6396C100.919 13.4491 101.295 13.3628 101.672 13.393C101.966 13.3711 102.262 13.4149 102.538 13.521C102.813 13.6272 103.06 13.7929 103.262 14.006C103.463 14.2192 103.613 14.4742 103.701 14.7522C103.789 15.0302 103.812 15.3241 103.769 15.6121V19.4744H102.573V15.9078C102.573 14.9489 102.15 14.4721 101.266 14.4721C101.065 14.4629 100.866 14.4965 100.68 14.5705C100.494 14.6444 100.327 14.7571 100.189 14.9007C100.052 15.0443 99.9478 15.2155 99.8838 15.4025C99.8199 15.5895 99.7977 15.7879 99.8189 15.9841V19.4745H98.6233V13.5081Z" fill="white"/>
<path d="M105.273 17.7872C105.273 16.7133 106.085 16.0941 107.526 16.0061L109.167 15.913V15.398C109.167 14.7678 108.744 14.412 107.927 14.412C107.26 14.412 106.797 14.6533 106.664 15.0751H105.507C105.629 14.0503 106.608 13.393 107.982 13.393C109.501 13.393 110.358 14.1377 110.358 15.398V19.4745H109.207V18.6361H109.112C108.92 18.9368 108.651 19.182 108.331 19.3466C108.011 19.5112 107.653 19.5893 107.292 19.5728C107.038 19.5989 106.781 19.5722 106.538 19.4944C106.295 19.4166 106.071 19.2895 105.88 19.1213C105.69 18.9531 105.538 18.7474 105.433 18.5176C105.329 18.2879 105.274 18.0391 105.273 17.7872ZM109.167 17.2774V16.7786L107.688 16.8718C106.854 16.9268 106.475 17.2062 106.475 17.7322C106.475 18.2692 106.948 18.5817 107.599 18.5817C107.789 18.6007 107.982 18.5818 108.165 18.526C108.348 18.4702 108.517 18.3788 108.664 18.2571C108.81 18.1354 108.93 17.9859 109.017 17.8176C109.103 17.6493 109.154 17.4656 109.167 17.2774Z" fill="white"/>
</g>
<defs>
<clipPath id="clip0_1_4590">
<rect width="161" height="53" fill="white"/>
</clipPath>
</defs>
</svg>
