<svg width="38" height="30" viewBox="0 0 38 30" fill="none" xmlns="http://www.w3.org/2000/svg">
<g clip-path="url(#clip0_37_1327)">
<path d="M34.0667 22.4871C34.4262 21.8494 34.6882 21.166 34.7725 20.4241C34.9299 19.0373 34.9959 17.6687 34.1382 16.4479C34.0128 16.269 33.88 16.0941 33.7376 15.9274C33.5194 15.6737 33.2916 15.4281 33.0692 15.1774C32.9431 15.035 32.8287 14.8804 32.6951 14.7473C31.9995 14.0595 31.2043 13.4965 30.377 12.9799C29.2519 12.2762 28.1085 11.5972 26.9758 10.9079C25.9712 10.246 24.9451 9.6151 23.9147 8.99771C23.4118 8.69812 22.9004 8.40988 22.3867 8.13101C21.4909 7.64461 20.5939 7.16551 19.6938 6.6874C18.9697 6.30129 18.2445 5.92247 17.5172 5.54258C16.79 5.16268 16.1291 4.81219 15.4285 4.46205C14.731 4.11091 14.0414 3.72959 13.3156 3.44278C12.0457 2.94557 10.7357 2.64108 9.34412 2.8109C8.93022 2.86107 8.52729 2.94071 8.11933 3.00981C7.41353 3.12905 6.75848 3.39347 6.14008 3.71397C4.81999 4.39321 3.92666 5.47735 3.37001 6.85604C2.73992 8.42582 2.45233 10.0215 2.80195 11.7101C3.10132 13.1667 3.89971 14.2536 5.1213 15.0605C6.0804 15.6934 7.08478 16.2497 8.01041 16.9415C8.82976 17.5541 9.74225 18.044 10.6367 18.5481C11.7413 19.17 12.8752 19.7359 13.9799 20.3525C14.889 20.859 15.7635 21.4266 16.6759 21.9216C18.0781 22.6857 19.4977 23.4114 20.9118 24.1527C22.1571 24.8032 23.4055 25.4527 24.6497 26.1052C25.4059 26.5055 26.163 26.9142 27.0167 27.0621C27.3159 27.1155 27.6241 27.1262 27.9262 27.1336C28.1352 27.1373 28.3502 27.1045 28.5607 27.0853C29.4162 27.0126 30.2463 26.8423 30.9743 26.3574C31.6599 25.9033 32.2585 25.343 32.723 24.6758C33.2143 23.9776 33.6437 23.2314 34.0626 22.4849L34.0667 22.4871Z" fill="#D2D2D2"/>
<path d="M26.0404 19.323C23.2513 17.816 20.5161 16.3371 17.7518 14.8431C17.8509 14.6786 17.9275 14.5472 18.0103 14.419C18.4922 13.658 18.9556 12.882 19.4705 12.1435C19.8375 11.6178 20.2726 11.1383 20.688 10.6458C20.7244 10.6015 20.8533 10.5819 20.9072 10.61C21.6738 11.0105 22.434 11.4233 23.1921 11.8352C24.8055 12.7149 26.3983 13.6392 28.0974 14.35C28.2094 14.398 28.3335 14.4179 28.45 14.4524C28.4652 14.4234 28.4845 14.3966 28.5017 14.3686C28.3761 14.2556 28.2677 14.1198 28.127 14.0358C27.2258 13.4991 26.3202 12.9707 25.4115 12.4485C24.9022 12.1561 24.3885 11.8773 23.876 11.5911C23.0373 11.1266 22.1965 10.6663 21.3557 10.2007C21.3246 10.1845 21.2989 10.1579 21.2607 10.1301C21.5065 9.89183 21.7954 9.75789 22.1085 9.67351C22.1694 9.65786 22.2568 9.68242 22.3169 9.7138C22.7914 9.96166 23.2648 10.2116 23.735 10.4625C24.6145 10.9298 25.4982 11.3888 26.369 11.8726C27.1321 12.295 27.8844 12.7381 28.6335 13.1874C29.4332 13.6658 30.2523 14.1174 31.0071 14.6567C31.5605 15.0513 32.0249 15.576 32.5364 16.0357C33.1642 16.601 33.4172 17.3688 33.6945 18.1255C33.7073 18.1665 33.7149 18.2127 33.7162 18.2556C33.7164 18.3057 33.7081 18.3568 33.6957 18.4664C33.4449 17.8105 33.1909 17.2163 32.5862 16.8846C32.5578 16.8935 32.5294 16.9024 32.5041 16.9103C32.5242 17.0184 32.5221 17.1386 32.5674 17.2335C32.6995 17.5108 32.8652 17.7741 32.9942 18.0525C33.1119 18.3118 33.2117 18.5802 33.2989 18.8525C33.3949 19.1585 33.4936 19.1916 33.7425 18.9524C33.8075 19.2975 33.9271 19.629 33.913 19.954C33.8978 20.281 33.7509 20.6025 33.6533 20.9207C33.3837 21.7953 32.8945 22.5551 32.3805 23.2968C31.9652 23.8948 31.4931 24.4605 31.0139 25.0093C30.7 25.3728 30.2775 25.611 29.819 25.7618C28.9198 26.0544 28.0038 26.1165 27.0927 25.8463C26.7525 25.7451 26.4369 25.5618 26.1123 25.4107C25.4912 25.1153 24.8691 24.8219 24.2534 24.5162C23.8875 24.333 23.5272 24.1342 23.169 23.9313C21.9349 23.2392 20.7072 22.5399 19.471 21.8519C19.0113 21.596 18.5215 21.3876 18.0703 21.1203C17.5902 20.8378 17.138 20.5119 16.6793 20.1985C16.6421 20.1738 16.6193 20.1012 16.6243 20.0564C16.6386 19.9583 16.6738 19.8607 16.7062 19.7431C19.5386 21.2226 22.3628 22.6978 25.2014 24.1806C25.0668 23.3428 25.209 22.5151 25.3416 21.7008C25.472 20.8907 25.4591 20.0268 26.0467 19.321L26.0404 19.323ZM27.876 20.3478C27.9033 20.2855 27.9133 20.2512 27.9337 20.2223C28.4785 19.4519 29.0048 18.6666 29.5816 17.9209C29.9048 17.4989 30.3218 17.155 30.6833 16.761C30.7547 16.6849 30.7551 16.5427 30.7895 16.4314C30.6761 16.4011 30.561 16.3437 30.4491 16.3459C30.3465 16.3503 30.2317 16.3985 30.1408 16.4565C29.8404 16.6477 29.5081 16.8144 29.258 17.0609C28.0915 18.2186 27.151 19.5445 26.441 21.025C26.2998 21.3205 26.2078 21.6733 26.2157 21.9966C26.2296 22.5708 26.3187 23.1475 26.4121 23.7159C26.4659 24.042 26.5953 24.3548 26.6888 24.6806C27.033 24.5518 26.9402 24.2449 27.0455 24.023C27.1237 24.0348 27.204 24.0478 27.2822 24.0596C28.5797 24.2415 29.8265 24.1016 30.9891 23.4561C31.1454 23.369 31.3605 23.2651 31.2765 23.0524C31.2044 22.8723 30.9885 22.9019 30.8104 22.9197C29.7356 23.0334 28.6619 23.0845 27.5903 22.8992C27.0973 22.8131 27.0942 22.8089 27.1971 22.314C27.2006 22.2921 27.2166 22.2767 27.235 22.2415C27.47 22.3116 27.7027 22.4014 27.9443 22.4538C29.0182 22.6851 30.1067 22.742 31.1983 22.6265C31.2643 22.6214 31.3406 22.6217 31.3913 22.5902C31.4463 22.5556 31.5134 22.4878 31.5122 22.4344C31.5121 22.3842 31.4369 22.3212 31.382 22.2899C31.3344 22.265 31.2672 22.2774 31.2077 22.2753C30.6456 22.2507 30.0799 22.248 29.5172 22.1994C28.7697 22.1359 28.0207 22.0401 27.2515 21.9574C27.3308 21.4977 27.4104 21.0725 27.6598 20.6911C28.1796 20.9178 28.6784 21.1494 29.1872 21.3518C29.5672 21.5028 29.9571 21.6248 30.3503 21.7405C30.4554 21.7716 30.5826 21.7352 30.6987 21.7299C30.7076 21.7029 30.7185 21.6769 30.7262 21.652C30.6582 21.5954 30.5989 21.5222 30.5231 21.4905C30.052 21.2866 29.5765 21.0963 29.1043 20.8945C28.6965 20.721 28.2909 20.5381 27.8728 20.354L27.876 20.3478ZM27.2027 24.6511C27.1885 24.6884 27.1753 24.7238 27.1569 24.759C27.3541 24.9015 27.5338 25.0877 27.7528 25.1784C28.5489 25.5072 29.349 25.4346 30.1519 25.1498C31.0474 24.829 31.5246 24.0972 31.9803 23.3409C32.0147 23.2851 31.984 23.1925 31.9832 23.1182C31.9025 23.1262 31.8035 23.1088 31.7484 23.1486C31.6108 23.2455 31.4967 23.3731 31.3693 23.4806C31.0169 23.7766 30.6921 24.1106 30.3061 24.3547C29.5807 24.8145 28.7692 24.8785 27.9333 24.7267C27.6926 24.6827 27.4459 24.6752 27.2027 24.6511ZM31.9137 16.0665C31.8619 16.0395 31.8064 15.9841 31.7603 15.9917C31.6429 16.0095 31.4826 16.0233 31.4238 16.1007C31.3745 16.1647 31.4047 16.3492 31.4671 16.4267C31.5458 16.5284 31.6855 16.6146 31.8105 16.6377C31.9075 16.6541 32.0707 16.589 32.116 16.5124C32.1582 16.4316 32.1074 16.2864 32.0675 16.1811C32.0496 16.1296 31.9674 16.1051 31.9126 16.0686L31.9137 16.0665ZM32.8684 19.8988C32.8167 20.0987 32.7564 20.2597 32.742 20.4236C32.7332 20.506 32.8121 20.5974 32.8492 20.6827C32.94 20.6352 33.0691 20.6103 33.1091 20.5336C33.1849 20.3886 33.2328 20.2211 33.2524 20.0573C33.2624 19.9675 33.191 19.8669 33.154 19.7711C33.0581 19.8133 32.9611 19.8576 32.8695 19.8968L32.8684 19.8988ZM32.4739 22.1535C32.43 21.9802 32.4365 21.8465 32.3727 21.7868C32.3295 21.7484 32.1625 21.7904 32.0956 21.8477C32.0021 21.9308 31.987 22.0758 32.1165 22.1461C32.1911 22.1851 32.3056 22.1526 32.476 22.1546L32.4739 22.1535Z" fill="white"/>
<path d="M8.73155 14.6018C8.33462 14.4023 7.97616 14.2151 7.49812 14.2265C7.59186 14.3651 7.64298 14.4894 7.7336 14.5684C7.955 14.7605 8.17522 14.9599 8.42565 15.1066C9.63225 15.816 10.8399 16.5233 12.0617 17.2037C13.1115 17.789 14.1723 18.3484 15.2438 18.8923C15.5371 19.0428 15.616 19.2502 15.6085 19.5575C15.5668 19.5463 15.5261 19.5434 15.494 19.5241C14.8023 19.1417 14.1194 18.7375 13.4158 18.3778C10.7372 17.0077 8.1988 15.3995 5.63132 13.8368C5.32719 13.6516 5.00315 13.4692 4.75565 13.2159C4.43934 12.8925 4.24391 12.4739 4.12113 12.0273C3.86863 11.1121 3.88602 10.1902 4.0456 9.26875C4.33449 7.59986 5.07319 6.15539 6.34168 5.02458C6.94198 4.48628 7.67051 4.14682 8.49299 4.05161C8.98124 3.99544 9.4675 3.93296 9.95575 3.87678C10.0427 3.86682 10.1315 3.87363 10.217 3.88664C10.7507 3.97557 11.2832 4.08225 11.8204 4.1545C12.2637 4.21464 12.6598 4.40046 13.0569 4.58943C14.6837 5.36796 16.2368 6.28739 17.7922 7.19744C18.6646 7.70852 19.5467 8.20095 20.4287 8.6986C20.6834 8.84218 20.9425 8.97225 21.2698 9.14848C20.9723 9.35442 20.7317 9.53732 20.4749 9.69065C20.419 9.72207 20.2915 9.65812 20.2107 9.61591C19.2214 9.09126 18.242 8.54274 17.2441 8.03466C16.3592 7.58296 15.4515 7.17478 14.5525 6.75001C14.4748 6.71204 14.3861 6.70001 14.2739 6.71789C14.3819 6.81913 14.4836 6.92236 14.5959 7.01532C14.7082 7.10827 14.8258 7.20133 14.951 7.27465C16.0686 7.93227 17.1882 8.59098 18.3123 9.23617C18.8071 9.52098 19.3181 9.7747 19.8225 10.0461C19.8535 10.0623 19.8781 10.091 19.906 10.1134C19.611 10.4156 19.2935 10.6902 19.0388 11.0161C18.5982 11.5719 18.1833 12.149 17.7871 12.7359C17.4726 13.1967 17.1973 13.6832 16.9159 14.1613C16.8372 14.2969 16.7719 14.326 16.6238 14.246C15.5518 13.6676 14.4764 13.1059 13.4055 12.5307C12.897 12.2571 12.3961 11.9638 11.8951 11.6758C10.5682 10.9141 9.23156 10.1658 7.78536 9.64244C7.65238 9.59407 7.50938 9.58004 7.36666 9.55032C7.35061 9.57095 7.33564 9.58951 7.32167 9.61122C7.38902 9.70442 7.44132 9.82141 7.53014 9.88363C7.99693 10.2119 8.47337 10.5267 8.94873 10.8435C9.08413 10.9327 9.22178 11.0125 9.36249 11.0966C8.68154 11.9963 8.73736 13.0356 8.70253 14.0565C8.69888 14.1443 8.71299 14.2334 8.71772 14.3202C8.72363 14.3998 8.73062 14.4773 8.73777 14.605L8.73155 14.6018ZM7.55882 13.9285C7.49524 13.8584 7.44931 13.7948 7.39058 13.7457C6.49912 13.0137 5.75305 12.1598 5.20442 11.14C5.14671 11.0334 5.09243 10.9101 5.09032 10.7929C5.02998 9.24228 5.48408 7.86804 6.60143 6.76906C7.16859 6.21344 7.79843 5.71958 8.40152 5.2012C8.53322 5.08538 8.6662 4.95703 8.54194 4.77081C8.42893 4.59837 8.25185 4.61928 8.08934 4.70319C7.85401 4.82553 7.60642 4.93093 7.40486 5.09465C6.83405 5.56133 6.28991 6.05776 5.73036 6.53822C5.15062 7.03716 4.67949 7.66139 4.48091 8.3647C4.02471 9.9752 4.22744 11.5158 5.38256 12.8287C5.82223 13.33 6.32286 13.755 6.98698 13.9226C7.1525 13.9642 7.33715 13.9288 7.55882 13.9285ZM6.30839 12.5659C6.34299 12.5602 6.3776 12.5546 6.41013 12.5478C6.42333 12.4519 6.45014 12.3551 6.44451 12.2599C6.42994 12.0202 6.41231 11.7762 6.38097 11.5383C6.29916 10.9628 6.45251 10.4522 6.77244 9.98103C6.80897 9.92626 6.86206 9.88015 6.88714 9.82204C6.90681 9.7743 6.91964 9.69924 6.89515 9.66535C6.86858 9.63037 6.7874 9.60906 6.74225 9.61977C6.6761 9.63532 6.59598 9.67259 6.55738 9.72628C6.30888 10.0606 6.01037 10.3847 5.99637 10.8205C5.98175 11.2322 6.02453 11.6501 6.0821 12.06C6.10931 12.2351 6.2298 12.3983 6.30839 12.5659ZM7.82184 13.9551C7.8451 13.9409 7.87042 13.9278 7.89368 13.9135C7.90262 13.8813 7.92417 13.8451 7.92058 13.8115C7.90641 13.667 7.88288 13.5202 7.86555 13.3766C7.77062 12.5385 7.70281 11.7039 8.05797 10.8978C8.07763 10.8501 8.04225 10.7815 8.0339 10.7217C7.96982 10.7384 7.89242 10.7401 7.84681 10.777C7.79272 10.8199 7.75799 10.8914 7.72336 10.9577C7.47758 11.4333 7.43173 11.9553 7.43824 12.473C7.444 12.8558 7.51455 13.2408 7.58835 13.6195C7.61235 13.7402 7.73809 13.8428 7.81662 13.955L7.82184 13.9551ZM12.5203 5.6067C12.7878 5.73064 13.05 5.86494 13.3199 5.97429C13.4652 6.03437 13.612 6.01083 13.7016 5.85453C13.789 5.70238 13.7251 5.58728 13.5992 5.49512C13.2761 5.26041 12.927 5.07543 12.5241 5.03378C12.4166 5.02246 12.3003 5.09882 12.1856 5.13652C12.234 5.24089 12.2748 5.35454 12.338 5.45081C12.3807 5.51535 12.4584 5.55855 12.5171 5.60769L12.5203 5.6067ZM10.1455 4.85151C10.3897 4.9949 10.6188 4.9906 10.6534 4.86365C10.6725 4.79184 10.6246 4.66134 10.5637 4.61634C10.4213 4.5103 10.1448 4.53468 10.1084 4.64487C10.0862 4.71767 10.1389 4.81375 10.1476 4.85259L10.1455 4.85151Z" fill="white"/>
<path d="M13.1947 13.2725C12.4927 14.1822 12.2443 15.2182 12.0889 16.3133C11.9116 16.2286 11.7455 16.1629 11.5924 16.0724C11.5386 16.039 11.487 15.9409 11.4944 15.8762C11.5609 15.1329 11.6243 14.3906 11.72 13.652C11.7445 13.4486 11.8816 13.2617 11.9448 13.06C11.9712 12.9841 11.9343 12.8883 11.9211 12.8024C11.8371 12.827 11.7273 12.8251 11.6678 12.8784C11.4053 13.1184 11.2513 13.4283 11.1981 13.7776C11.1137 14.3481 11.045 14.924 10.9711 15.4947C10.9625 15.5667 10.9612 15.6398 10.9508 15.7557C10.727 15.6388 10.5258 15.5443 10.3312 15.4321C10.2898 15.4105 10.2629 15.3357 10.2565 15.2823C10.1446 14.401 10.1872 13.5266 10.4575 12.676C10.526 12.464 10.6674 12.2741 10.7766 12.0753C10.8415 11.9509 10.9233 11.9963 11.0123 12.0481C11.4822 12.3199 11.9531 12.5896 12.4242 12.8542C12.6644 12.9902 12.9109 13.119 13.1906 13.2703L13.1947 13.2725Z" fill="white"/>
<path d="M9.58174 11.2323C9.91929 11.4192 10.2165 11.5823 10.5448 11.7617C10.118 12.2403 9.86935 12.7619 9.81373 13.3631C9.75966 13.9362 9.72334 14.5107 9.67873 15.0808C9.33815 15.0057 9.1808 14.8576 9.13493 14.496C9.02496 13.621 9.10621 12.7536 9.30433 11.8997C9.35535 11.6758 9.48025 11.472 9.57858 11.2333L9.58174 11.2323Z" fill="white"/>
<path d="M13.3361 17.036C13.1075 16.8981 12.9149 16.787 12.7269 16.6624C12.6897 16.6376 12.6564 16.5649 12.6625 16.518C12.7603 15.4825 12.9746 14.4814 13.5394 13.587C13.5492 13.5684 13.5703 13.5583 13.6085 13.5255C13.8115 13.6316 14.0208 13.7409 14.2695 13.8655C13.4787 14.7737 13.4674 15.8808 13.335 17.038L13.3361 17.036Z" fill="white"/>
<path d="M14.5885 14.0375C14.8228 14.1545 15.0269 14.2585 15.2342 14.3615C14.6226 15.3607 14.4714 16.458 14.3525 17.5643C13.9907 17.4439 13.9261 17.3758 13.9311 17.033C13.9463 16.2312 14.0377 15.4403 14.2949 14.6753C14.3687 14.4633 14.481 14.2635 14.5896 14.0354L14.5885 14.0375Z" fill="white"/>
<path d="M15.6434 14.5779C15.9252 14.7251 16.1872 14.8646 16.4762 15.0182C16.3925 15.1986 16.3079 15.3707 16.2254 15.5439C16.1976 15.4608 16.2124 15.392 16.2272 15.3233C16.2525 15.1941 16.2622 15.0593 16.1115 15.0096C15.9462 14.9576 15.8656 15.0764 15.8246 15.2105C15.6859 15.6577 15.5286 16.1003 15.4274 16.5565C15.3174 17.0397 15.2668 17.5355 15.1869 18.0317C15.0109 17.9952 14.9289 17.8996 14.9377 17.7011C14.9761 16.6531 15.153 15.6378 15.5894 14.6762C15.6023 14.6514 15.6164 14.6244 15.6486 14.578L15.6434 14.5779Z" fill="white"/>
<path d="M20.3089 17.9959C20.0669 17.8484 19.8289 17.7082 19.5963 17.5577C19.5642 17.5383 19.548 17.4481 19.5634 17.4086C19.6452 17.2167 19.7384 17.028 19.8426 16.8134C20.1451 16.9714 20.4228 17.1165 20.6985 17.2552C20.9741 17.3939 21.25 17.5222 21.5528 17.6645C21.3987 17.919 21.2577 18.1486 21.1004 18.4093C20.9866 18.3394 20.855 18.2733 20.7426 18.1855C20.6983 18.1492 20.6727 18.0567 20.6842 17.9994C20.712 17.8504 20.772 17.7051 20.8018 17.5571C20.8144 17.4977 20.779 17.4292 20.7686 17.3683C20.7054 17.3933 20.6164 17.4022 20.5863 17.4498C20.4893 17.6101 20.412 17.7834 20.3058 17.9969L20.3089 17.9959Z" fill="white"/>
<path d="M25.2609 19.467C25.1314 19.8714 25.014 20.2426 24.8955 20.6159C24.5541 20.5273 24.4949 20.4488 24.5458 20.1141C24.5791 19.8836 24.625 19.6544 24.6782 19.4264C24.7045 19.3003 24.7726 19.2356 24.9143 19.3176C25.0261 19.3813 25.1519 19.4232 25.2619 19.4702L25.2609 19.467Z" fill="white"/>
<path d="M22.171 19.0054C22.051 18.9322 21.9693 18.8816 21.8886 18.8342C21.5223 18.6165 21.5223 18.6165 21.6902 18.2295C21.7458 18.1029 21.8179 17.985 21.8937 17.8399C22.0678 17.9256 22.2357 18.008 22.3985 18.0852C22.3208 18.4006 22.2487 18.69 22.171 19.0054Z" fill="white"/>
<path d="M23.3425 18.5652C23.2498 18.8992 23.1662 19.1957 23.0814 19.4943C22.6939 19.4132 22.606 19.2987 22.65 18.9419C22.6777 18.7322 22.7117 18.5258 22.7474 18.2807C22.9652 18.3839 23.1507 18.4729 23.3425 18.5652Z" fill="white"/>
<path d="M23.9729 20.0497C23.608 19.9303 23.5814 19.8953 23.6338 19.5376C23.6673 19.2967 23.7155 19.0581 23.7599 18.7912C23.9746 18.8902 24.1353 18.9662 24.2909 19.0369C24.1833 19.3843 24.0814 19.7108 23.975 20.0508L23.9729 20.0497Z" fill="white"/>
<path d="M19.5438 16.6839C19.4113 16.9022 19.2917 17.1008 19.1786 17.287C19.143 17.2895 19.1252 17.2934 19.1138 17.2901C18.5567 17.0387 18.5497 17.0218 18.8737 16.4974C18.9341 16.3971 18.9975 16.3564 19.102 16.4189C19.2521 16.5052 19.3969 16.5966 19.5427 16.686L19.5438 16.6839Z" fill="white"/>
<path d="M18.2574 16.8188C18.194 16.7989 18.1378 16.7801 18.0838 16.7624C17.8852 16.6982 17.7995 16.5796 17.8869 16.3668C17.9481 16.2194 17.9874 16.0633 18.0463 15.8699C18.2598 15.9761 18.4484 16.0694 18.6516 16.1702C18.5084 16.404 18.3855 16.6088 18.2574 16.8188Z" fill="white"/>
<path d="M19.47 18.0721C19.7041 18.1997 19.9467 18.3159 20.1658 18.4619C20.2226 18.4995 20.2118 18.6363 20.2301 18.7276C20.209 18.7377 20.1868 18.7498 20.1657 18.7599C19.9371 18.622 19.7021 18.4914 19.4842 18.338C19.4325 18.3005 19.4356 18.1886 19.4119 18.1077C19.4309 18.0965 19.4531 18.0844 19.47 18.0721Z" fill="white"/>
<path d="M22.0106 19.8581C21.843 19.7548 21.6605 19.67 21.5132 19.543C21.4442 19.4832 21.4445 19.3462 21.416 19.2443C21.4424 19.2291 21.4689 19.2139 21.4942 19.2007C21.6721 19.3095 21.8628 19.4038 22.0247 19.5332C22.0834 19.5823 22.0748 19.715 22.0961 19.8105C22.0676 19.8246 22.038 19.8408 22.0106 19.8581Z" fill="white"/>
<path d="M17.2067 15.9271C17.2603 15.7943 17.3106 15.6676 17.3708 15.517C17.4715 15.5565 17.5629 15.5936 17.6719 15.6374C17.6074 15.7962 17.5495 15.9374 17.4829 16.0952C17.3825 16.0348 17.2988 15.9832 17.2067 15.9271Z" fill="white"/>
<path d="M18.5211 17.5156C19.1159 17.821 19.0938 17.828 18.9731 18.0287C18.8249 17.9539 18.6618 17.8977 18.5318 17.7981C18.473 17.7542 18.471 17.6266 18.4444 17.5362C18.4717 17.5294 18.497 17.5215 18.5211 17.5156Z" fill="white"/>
<path d="M21.4246 20.8838C21.8639 20.992 22.0298 21.134 22.0003 21.3823C21.6402 21.2839 21.4198 21.0949 21.4246 20.8838Z" fill="white"/>
<path d="M20.1113 19.4698C19.6049 19.3134 19.3635 19.1293 19.4015 18.9302C19.7903 19.0594 20.1276 19.3174 20.1113 19.4698Z" fill="white"/>
<path d="M18.9046 18.8264C18.4855 18.6998 18.3623 18.5721 18.4186 18.3431C18.795 18.4606 18.9482 18.6065 18.9046 18.8264Z" fill="white"/>
<path d="M22.5967 19.8821C23.0218 20.083 23.0351 20.1031 22.9342 20.3669C22.5333 20.2155 22.4894 20.1531 22.5967 19.8821Z" fill="white"/>
<path d="M20.6136 18.7405C21.0081 18.8991 21.0275 18.9277 20.9373 19.176C20.6123 19.1065 20.5449 19.0185 20.6136 18.7405Z" fill="white"/>
<path d="M23.5576 20.4711C23.9073 20.6247 23.9165 20.6374 23.8495 20.8767C23.5124 20.7798 23.4838 20.7437 23.5576 20.4711Z" fill="white"/>
<path d="M24.709 22.1749C24.5054 22.095 24.3597 22.0004 24.4413 21.7582C24.7486 21.8264 24.7802 21.8719 24.709 22.1749Z" fill="white"/>
<path d="M23.5438 22.0171C23.779 22.0819 23.8885 22.2156 23.8582 22.4504C23.6113 22.3979 23.5582 22.3279 23.5438 22.0171Z" fill="white"/>
<path d="M24.7627 21.4407C24.6138 21.3471 24.3799 21.3304 24.4611 21.0538C24.7525 21.0767 24.8486 21.1955 24.7627 21.4407Z" fill="white"/>
<path d="M24.8344 23.0606C24.6109 22.9667 24.5178 22.8117 24.5551 22.5956C24.8231 22.638 24.7615 22.8669 24.8344 23.0606Z" fill="white"/>
<path d="M20.1027 20.2487C19.8762 20.1119 19.6527 19.9741 19.4262 19.8373C19.4422 19.8167 19.4562 19.795 19.4713 19.7712C19.6753 19.941 19.9728 19.9672 20.1413 20.195C20.1263 20.2136 20.1145 20.2311 20.1048 20.2498L20.1027 20.2487Z" fill="white"/>
<path d="M21.3946 20.0981C21.5943 20.2208 21.797 20.3426 21.9967 20.4653C21.9869 20.4839 21.973 20.5004 21.9612 20.518C21.767 20.3849 21.5125 20.3469 21.3549 20.1538C21.3699 20.1353 21.3817 20.1177 21.3967 20.0992L21.3946 20.0981Z" fill="white"/>
<path d="M17.9954 18.2697C17.6177 18.2201 17.6076 18.2043 17.6786 17.8511C17.8023 18.0132 17.8983 18.1425 17.9954 18.2697Z" fill="white"/>
<path d="M22.8013 21.9088C22.7239 21.7893 22.6424 21.6676 22.5641 21.5449C22.5853 21.5296 22.6075 21.5174 22.6286 21.5021C22.8023 21.5585 22.9388 21.6404 22.8784 21.8621C22.8541 21.8784 22.8298 21.8946 22.8033 21.9099L22.8013 21.9088Z" fill="white"/>
<path d="M23.7776 21.5696C23.6577 21.4911 23.4761 21.4754 23.4893 21.2581C23.7771 21.3029 23.8346 21.3646 23.7776 21.5696Z" fill="white"/>
<path d="M20.8458 19.8562C20.5998 19.8121 20.5483 19.7694 20.5595 19.551C20.6874 19.6495 20.7864 19.7276 20.8874 19.8067C20.8735 19.8232 20.8597 19.8397 20.8478 19.8573L20.8458 19.8562Z" fill="white"/>
<path d="M30.6266 23.206C29.4754 23.7335 28.2911 23.7742 27.0635 23.6605C27.0806 23.4611 27.0952 23.2867 27.1083 23.1353C27.7055 23.1888 28.2843 23.2722 28.8654 23.2857C29.4424 23.2969 30.0175 23.236 30.6245 23.205L30.6266 23.206Z" fill="white"/>
</g>
<defs>
<clipPath id="clip0_37_1327">
<rect width="34.4829" height="14.9283" fill="white" transform="translate(6.91173) rotate(27.5805)"/>
</clipPath>
</defs>
</svg>
