<svg width="132" height="119" viewBox="0 0 132 119" fill="none" xmlns="http://www.w3.org/2000/svg">
<g clip-path="url(#clip0_36_1276)">
<path d="M114.904 58.8366C115.322 56.0784 115.471 53.344 114.859 50.5985C114.57 49.3013 114.23 48.0116 114.054 46.6964C113.804 44.8428 113.14 43.1651 112.095 41.65C109.275 37.5731 105.85 34.1051 101.607 31.5054C100.331 30.7227 99.0005 30.0302 97.68 29.3195C96.4316 28.642 95.1113 28.1435 93.7012 27.9346C92.7705 27.7963 91.8137 27.7912 90.8929 27.6053C89.0016 27.219 87.1155 27.1932 85.223 27.52C83.5241 27.807 81.909 28.3583 80.3065 28.9764C78.2601 29.7599 76.3972 30.8256 74.724 32.2378C74.287 32.607 73.8701 33.0017 73.4004 33.4212C73.374 33.2105 73.3583 33.0511 73.3285 32.8904C73.1353 31.8949 72.9771 30.8938 72.7422 29.9125C72.2853 27.995 71.3521 26.2824 70.3724 24.5969C68.8748 22.0147 67.014 19.7697 64.4168 18.2066C63.6327 17.7333 62.8734 17.2214 62.0971 16.7364C61.5621 16.4042 61.0387 16.0397 60.4668 15.7893C58.7704 15.0453 56.9924 14.5682 55.1671 14.2424C50.6513 13.4431 46.1309 13.4069 41.6165 14.2766C39.4659 14.6896 37.3349 15.1499 35.455 16.3338C34.6268 16.8544 33.8632 17.4899 33.1064 18.1169C31.6094 19.3548 30.0933 20.5749 28.6524 21.8807C26.8808 23.4842 25.7729 25.5908 24.5992 27.626C23.8598 28.9142 23.2189 30.2745 22.6505 31.6464C21.9199 33.4171 21.2206 35.2027 20.857 37.1022C20.6148 38.3613 20.2619 39.6024 19.9862 40.8531C19.7552 41.8784 19.5089 42.9055 19.3711 43.9461C19.1323 45.7736 19.2275 47.6082 19.4177 49.4331C19.6934 52.0756 19.9188 54.7256 20.752 57.2729C20.9292 57.8162 21.1974 58.3301 21.334 58.8844C22.6281 64.0679 24.74 68.8916 27.7205 73.3263C29.0626 75.3255 30.4554 77.2955 31.8295 79.277C32.7938 80.6605 33.7348 82.0576 34.7334 83.417C38.6909 88.8043 43.2934 93.6415 47.7236 98.6214C48.1982 99.1513 48.6691 99.6615 49.4527 99.6699C49.518 99.6715 49.5822 99.7167 49.6379 99.7551C50.0741 100.077 50.5538 100.137 51.0806 100.056C54.3709 99.557 57.6591 99.0534 60.951 98.5803C65.6358 97.9075 70.2591 96.9491 74.8125 95.647C76.4724 95.1741 78.1056 94.5926 79.7789 94.194C83.8418 93.2272 87.7812 91.9231 91.4274 89.8802C93.9046 88.4911 96.2944 86.9387 98.6881 85.406C101.583 83.5493 103.945 81.0795 106.275 78.5872C107.627 77.1432 108.763 75.5371 109.555 73.708C109.869 72.9798 110.186 72.2527 110.545 71.5441C111.106 70.4333 111.804 69.3825 112.267 68.2323C113.484 65.2031 114.417 62.0928 114.912 58.8466L114.904 58.8366Z" fill="#D2D2D2"/>
<path d="M31.5301 72.0777C31.6905 71.9782 31.8164 71.9029 31.9888 71.8005C32.8865 73.8955 33.7569 75.9952 35.5225 77.5509C35.3746 77.1901 35.2256 76.8327 35.0984 76.516C35.3103 76.4864 35.5492 76.514 35.7095 76.4145C35.8941 76.2982 36.0418 76.0918 36.1534 75.8942C36.597 75.1213 36.9997 74.3299 37.4498 73.5593C37.8056 72.9486 38.2 72.3628 38.6169 71.7047C39.0817 72.414 39.4972 73.0469 39.9065 73.6667C38.8645 74.4248 38.1707 75.4551 37.5455 76.5284C37.2705 76.9962 37.0921 77.5209 36.8901 78.0298C36.841 78.1658 36.815 78.3393 36.8509 78.4731C36.8971 78.6288 36.999 78.8229 37.1282 78.8805C37.2327 78.9255 37.4495 78.8318 37.5575 78.7354C37.7045 78.6019 37.8093 78.4128 37.9094 78.2368C38.6152 77.0315 39.3113 75.8228 40.0073 74.6141C40.0834 74.4843 40.1487 74.3541 40.2456 74.1769C40.795 74.8545 41.3223 75.5022 41.7871 76.0798C41.5021 76.2916 41.1817 76.4394 40.9894 76.6883C40.1613 77.7762 39.3589 78.8843 38.58 80.0082C38.3825 80.2919 38.2637 80.6515 38.1942 80.996C38.1567 81.191 38.2937 81.4197 38.3528 81.6313C38.5572 81.5514 38.7965 81.517 38.9576 81.3849C39.1331 81.2434 39.2334 81.0161 39.3676 80.8267C40.1828 79.6427 41.0001 78.4631 41.8088 77.2768C41.9568 77.0594 42.0791 76.8218 42.2247 76.5707C42.4531 76.7995 42.7063 77.0812 42.981 77.334C43.637 77.9293 44.2994 78.527 44.9832 79.0958C45.1518 79.2371 45.4088 79.275 45.6278 79.3577C45.6046 79.1078 45.6662 78.8154 45.5534 78.621C45.0514 77.741 44.5729 76.8365 43.9612 76.0375C41.9622 73.4353 40.1159 70.7346 38.5529 67.847C37.4179 65.7505 36.3161 63.6331 35.2163 61.5201C34.3679 59.8967 33.9641 58.1263 33.6214 56.3488C33.1221 53.7683 32.5825 51.1879 32.2831 48.5807C31.9336 45.5347 32.3089 42.4978 32.8394 39.4767C33.2632 37.0354 34.1769 34.7673 35.1145 32.5042C35.5475 31.4567 36.0699 30.4451 36.5794 29.4288C36.6505 29.2825 36.829 29.153 36.9871 29.1003C41.1318 27.7239 45.489 27.361 49.7164 26.384C50.4347 26.2188 51.1803 26.1806 51.9143 26.0833C52.0345 26.0644 52.1706 26.0624 52.269 26.0027C52.3597 25.944 52.4796 25.8043 52.4607 25.7353C52.4328 25.6301 52.3055 25.5366 52.2016 25.4698C52.1447 25.4346 52.0419 25.4561 51.961 25.4671C49.1641 25.8261 46.3516 26.1063 43.5726 26.5778C41.6353 26.9068 39.7417 27.5003 37.8312 27.978C37.679 28.0145 37.5297 28.0631 37.3817 28.1084C37.3563 28.0773 37.333 28.0506 37.3141 28.0218C37.8037 27.2838 38.29 26.5446 38.7764 25.8054C38.8895 25.634 39.0458 25.4745 39.0995 25.2853C39.1519 25.0994 39.1747 24.7929 39.0713 24.7044C38.9305 24.5877 38.6149 24.5396 38.4507 24.6194C38.1631 24.7571 37.9368 25.0193 37.6867 25.2255C37.5934 25.3016 37.5069 25.4094 37.4006 25.4405C36.7077 25.6368 36.0077 25.8123 35.3098 25.9921C35.2616 26.004 35.2104 26.0039 35.1601 26.0113C35.1339 25.9726 35.1109 25.935 35.0846 25.8962C35.4239 25.6455 35.7354 25.3298 36.114 25.1628C36.9353 24.7933 37.7991 24.5086 38.6381 24.1711C38.8646 24.0809 39.0739 23.9369 39.2596 23.7771C39.3565 23.6913 39.4595 23.487 39.4213 23.4C39.3675 23.2855 39.1854 23.2124 39.0485 23.1557C38.9384 23.116 38.8108 23.1248 38.6338 23.1085C38.6921 23.038 38.74 22.9968 38.7586 22.945C38.7896 22.839 38.8043 22.7273 38.8276 22.6222C38.7158 22.6075 38.5813 22.5443 38.4943 22.5824C38.1918 22.7111 37.909 22.8761 37.6147 23.0224C36.8411 23.4018 36.0634 23.7724 35.2951 24.1574C34.3062 24.6567 33.3381 25.2 32.3368 25.6729C30.7111 26.4363 29.9284 27.9357 29.0294 29.3419C27.8089 31.2432 26.9091 33.3004 26.119 35.4082C25.8207 36.2043 25.4609 36.9782 25.2026 37.7851C24.8699 38.8286 24.601 39.8878 24.3181 40.9455C23.5569 43.8249 23.334 46.7741 23.3461 49.7312C23.3545 51.3808 23.6242 53.0259 23.7784 54.6769C23.7923 54.8209 23.817 54.9652 23.7554 55.1259C23.7213 55.0075 23.6763 54.8888 23.6542 54.7674C23.2915 52.6094 22.8688 50.4554 22.599 48.2834C22.4964 47.4524 22.6946 46.5689 22.8352 45.7232C23.2681 43.1754 23.7248 40.6326 24.1989 38.0924C24.4215 36.8775 24.831 35.7227 25.3962 34.6131C25.8021 33.8229 26.1339 32.995 26.4774 32.1749C27.8536 28.8993 29.6771 25.8948 31.9512 23.1627C32.4089 22.6144 32.8751 22.0728 33.276 21.4893C33.6294 20.9766 34.0887 20.6264 34.601 20.2918C36.5275 19.0295 38.6289 18.1341 40.7658 17.3028C41.9277 16.8513 43.1413 16.7734 44.3537 16.6987C45.951 16.602 47.5524 16.4738 49.1506 16.5164C50.2298 16.5474 51.3058 16.8406 52.3778 17.0336C53.1582 17.1725 53.9503 17.2792 54.7104 17.4949C57.3721 18.2507 60.0391 19.0121 62.3304 20.6624C62.5508 20.8224 62.8174 20.9149 63.0433 21.0697C63.4694 21.3589 63.9655 21.5964 64.2804 21.9809C66.6249 24.8322 68.8907 27.7393 70.2857 31.2139C70.7155 32.2837 71.1171 33.3507 71.266 34.5095C71.3529 35.1812 71.5697 35.8376 71.7298 36.4991C71.7458 36.5561 71.7939 36.6356 71.8416 36.6455C72.2358 36.7293 72.6163 36.9727 73.0235 36.6148C73.3818 36.3013 73.845 36.1026 74.1798 35.7734C75.5732 34.4066 77.3322 33.6693 79.0559 32.8572C81.8295 31.5494 84.8276 31.0691 87.7891 30.4366C88.17 30.3545 88.6027 30.4229 89.0019 30.4828C90.2046 30.6681 91.4229 30.8004 92.5942 31.1134C93.8997 31.4602 95.2022 31.8864 96.4294 32.4501C98.3542 33.3314 100.238 34.3076 102.087 35.3373C102.84 35.7554 103.493 36.379 104.137 36.9664C105.328 38.055 106.532 39.1407 107.632 40.3207C108.275 41.0137 108.781 41.8514 109.255 42.6774C110.335 44.5602 111.204 46.5423 111.815 48.6324C111.866 48.8046 111.934 48.9794 111.928 49.149C111.874 51.0943 111.861 53.0362 111.728 54.9751C111.579 57.1608 111.196 59.3167 110.596 61.427C110.132 63.0454 109.749 64.6853 109.229 66.287C108.931 67.2149 108.486 68.1151 108.005 68.9699C106.585 71.4944 105.128 74.0016 103.645 76.4887C103.373 76.9469 102.98 77.3683 102.556 77.691C100.881 78.9747 99.1754 80.214 97.4809 81.4722C97.2325 81.6533 97.0069 81.8426 97.3345 82.2426C95.2311 83.6605 93.152 85.0616 91.0709 86.4583C91.0467 86.424 91.0213 86.3928 90.9939 86.3573C91.5615 85.8999 92.2738 85.5789 92.5939 84.6919C92.2098 84.7728 91.915 84.809 91.6461 84.895C87.3331 86.2508 83.021 87.6143 78.7101 88.9746C78.5444 89.0282 78.3759 89.0589 78.2149 89.0996C78.1771 89.042 78.1547 89.023 78.152 89C78.1255 88.8404 78.1001 88.6776 78.078 88.5159C77.963 88.6318 77.8006 88.7268 77.7395 88.8658C77.5965 89.191 77.3684 89.3465 77.0274 89.3991C76.6394 89.4603 76.255 89.5521 75.7671 89.6468C75.8454 89.4299 75.9107 89.2997 75.9412 89.1644C75.9578 89.0679 75.9222 88.9636 75.9073 88.8631C75.815 88.8957 75.7101 88.9127 75.6282 88.9673C75.5507 89.0198 75.4824 89.0976 75.4411 89.1815C75.1695 89.7311 74.6838 89.8705 74.1226 89.8948C73.7586 89.9097 73.3967 89.9694 72.9764 90.0189C73.1906 89.5877 73.3888 89.2311 73.5558 88.8596C73.6629 88.6238 73.7951 88.3386 73.4792 88.1697C73.1912 88.0145 73.0316 88.2643 72.8841 88.4598C72.5239 88.9409 72.1678 89.4307 71.8011 89.9094C71.7234 90.0131 71.6176 90.1542 71.5062 90.1689C70.7411 90.2916 69.9713 90.3869 69.2864 90.48C69.1681 90.1995 69.1349 89.8655 68.9757 89.7898C68.6527 89.6403 68.4648 89.9786 68.323 90.2091C68.1054 90.5587 67.8208 90.7085 67.4195 90.7356C66.9562 90.7623 66.4991 90.8425 66.047 90.8988C65.8308 90.3524 65.6185 90.2612 65.2616 90.6519C64.5971 91.3781 63.6973 91.2655 62.8723 91.4325C62.8209 91.4432 62.7383 91.439 62.7161 91.409C62.4252 90.9784 62.1586 91.281 61.8796 91.4254C61.7363 91.4981 61.5821 91.5705 61.4281 91.5918C60.0835 91.7688 58.7405 91.9316 57.395 92.101C57.1493 92.1331 56.974 92.132 56.8149 91.8733C56.6192 91.5539 56.252 91.5677 56.0264 91.7973C55.563 92.2703 54.9973 92.2967 54.4105 92.341C53.9327 92.3772 53.4601 92.47 52.9833 92.5138C52.8731 92.5252 52.7341 92.4641 52.6411 92.3976C52.3471 92.1781 51.9878 92.1801 51.8215 92.4787C51.5641 92.9383 51.4015 93.4394 51.5548 93.9777C51.6678 94.3844 51.925 94.4626 52.1998 94.1373C52.442 93.8515 52.6052 93.5006 52.8208 93.1467C53.1982 93.2061 53.6135 93.2718 54.0886 93.3445C53.0401 94.4955 51.7551 95.349 51.0309 96.6865C49.3979 94.9153 47.77 93.1605 46.1565 91.3963C44.2081 89.2624 42.3265 87.0648 40.3033 85.0064C39.5301 84.2187 38.6058 83.5558 37.9497 82.6567C37.0145 81.3752 36.1592 80.0346 35.2595 78.7256C33.8721 76.71 32.7176 74.5663 31.6626 72.3597C31.6232 72.276 31.5863 72.1858 31.5337 72.068L31.5301 72.0777ZM65.067 36.5897C64.1719 36.7277 63.3139 36.8241 62.4724 36.9961C56.5659 38.2049 50.6606 39.4105 44.7704 40.6655C42.2106 41.2088 39.6784 41.8682 37.1343 42.4795C36.9054 42.5359 36.6404 42.6012 36.7023 42.9163C36.7621 43.2269 37.0187 43.1951 37.2636 43.1555C37.8844 43.0575 38.5061 42.9672 39.131 42.8781C46.6641 41.7954 54.1032 40.2432 61.4795 38.3684C62.7734 38.0378 64.0325 37.5702 65.3603 37.1456C65.6473 37.5163 66.0048 37.9856 66.3667 38.4529C66.404 38.4407 66.4381 38.4274 66.4754 38.4153C66.4907 38.1903 66.5487 37.9587 66.5105 37.7401C66.3501 36.7857 66.238 35.8086 65.9591 34.8883C65.38 32.9852 64.3924 31.2712 63.2035 29.6786C61.8767 27.9007 60.5185 26.1591 58.657 24.8689C56.3158 23.2555 53.7802 22.2415 50.9384 22.0354C50.2614 21.985 49.5887 21.8922 48.8525 21.8131C48.9467 21.613 48.9857 21.4441 49.0866 21.3268C49.536 20.7609 49.9951 20.1985 50.4604 19.6493C50.651 19.4253 50.8254 19.1956 50.5957 18.9297C50.3684 18.6574 50.092 18.7845 49.8645 18.9585C48.9796 19.616 48.2047 20.3536 47.9416 21.4881C47.921 21.5757 47.7957 21.7098 47.7196 21.7079C47.2732 21.7078 46.8265 21.6783 46.346 21.6512C46.4149 21.4602 46.4451 21.2955 46.53 21.1615C46.9099 20.5449 47.3187 19.9496 47.6868 19.3251C47.789 19.1534 47.7743 18.9103 47.8144 18.6979C47.5999 18.7449 47.3886 18.793 47.1793 18.8456C47.1552 18.8515 47.1371 18.8815 47.116 18.8995C46.3203 19.6442 45.7284 20.5136 45.4452 21.5822C45.4195 21.6937 45.271 21.8011 45.1521 21.857C44.8437 22.0018 44.5072 22.0926 44.2083 22.2518C44.0978 22.3144 43.9992 22.5166 44.0081 22.6442C44.0156 22.7348 44.2138 22.8649 44.3365 22.8799C44.5906 22.9057 44.8531 22.8577 45.1121 22.8598C45.8199 22.8554 46.5345 22.7914 47.2337 22.8718C48.6884 23.0382 50.1374 23.2612 51.5817 23.4971C53.2722 23.7706 54.8761 24.3349 56.3461 25.2093C57.5048 25.902 58.7152 26.573 59.5494 27.6681C60.7307 29.2105 61.8654 30.7909 62.9701 32.3934C63.403 33.029 63.6897 33.7655 64.0666 34.5053C63.5743 34.5617 63.1641 34.593 62.7662 34.6616C55.317 35.9173 47.9432 37.5113 40.61 39.3175C39.3987 39.6121 38.2081 39.9911 37.022 40.3679C36.7784 40.4447 36.5926 40.6959 36.3804 40.8682C36.6425 40.9225 36.9002 40.9789 37.1624 41.0333C37.2144 41.0411 37.2691 41.0316 37.3238 41.022C38.5535 40.8183 39.7911 40.6539 41.0122 40.4031C45.7057 39.4224 50.3951 38.4329 55.0768 37.404C57.6874 36.8314 60.279 36.1898 62.8715 35.5558C63.3447 35.4412 63.7911 35.2181 64.2679 35.0426C64.5358 35.5674 64.7976 36.079 65.0688 36.605L65.067 36.5897ZM68.5886 38.9877C68.6948 38.6528 68.4797 38.4581 68.1614 38.5189C67.702 38.6055 67.2542 38.7513 66.7945 38.8085C63.163 39.2797 59.5845 40.0299 56.0197 40.8435C50.7754 42.0425 45.5361 43.258 40.3013 44.5117C39.0397 44.8137 37.8218 45.2889 36.589 45.7038C36.4506 45.7526 36.3617 45.9584 36.2517 46.0907C36.4168 46.1503 36.588 46.2742 36.7485 46.2553C37.372 46.1803 37.9969 46.0912 38.612 45.9583C44.3558 44.7237 50.0946 43.4726 55.8384 42.238C59.9908 41.3474 64.1272 40.3998 68.1879 39.1651C68.3481 39.1168 68.4952 39.0235 68.5877 38.9801L68.5886 38.9877ZM70.0258 57.8965C70.0116 57.8548 70.0018 57.811 69.992 57.7672C69.8858 57.7472 69.7781 57.701 69.6766 57.7083C68.8038 57.7848 67.9318 57.8286 67.0685 57.9598C60.3653 58.9835 53.8024 60.6323 47.2971 62.5068C45.6272 62.9872 44.0014 63.6188 42.3585 64.1967C42.1532 64.269 41.7987 64.3386 41.9247 64.6585C41.9709 64.774 42.3486 64.8225 42.5593 64.7961C43.1566 64.7226 43.7568 64.6209 44.3396 64.4763C48.0403 63.5801 51.7363 62.6564 55.4403 61.7613C59.9283 60.6809 64.4531 59.7417 68.8637 58.3589C69.2598 58.2347 69.641 58.0503 70.027 57.8933L70.0258 57.8965ZM62.7471 32.9606C62.7323 32.9003 62.7195 32.8445 62.7002 32.7863C61.8856 32.8436 61.0616 32.8352 60.2625 32.9712C53.6694 34.075 47.127 35.4238 40.6253 36.974C39.0724 37.3429 37.5538 37.8705 36.0265 38.3511C35.795 38.4249 35.6082 38.6282 35.3989 38.7722C35.4213 38.8316 35.4406 38.8897 35.4599 38.9479C35.6948 38.9559 35.9301 38.9932 36.1594 38.9662C36.6891 38.8976 37.2182 38.8105 37.739 38.7057C42.0779 37.8459 46.4204 37.0166 50.7453 36.1041C53.9453 35.4296 57.1309 34.673 60.3114 33.9C61.1472 33.693 61.9369 33.2792 62.7439 32.9594L62.7471 32.9606ZM95.1254 72.3051C95.1473 72.346 95.1659 72.3856 95.1845 72.4253C95.6528 72.243 96.1293 72.0784 96.5893 71.8785C99.4629 70.6178 101.905 68.7586 104.145 66.5776C106.416 64.3604 107.679 61.6513 108.377 58.6137C108.875 56.4224 108.735 54.2351 108.384 52.0447C108.36 51.8972 108.331 51.744 108.265 51.6139C108.215 51.5191 108.091 51.405 108.007 51.4073C107.928 51.4119 107.804 51.5536 107.788 51.6468C107.75 51.9148 107.738 52.1921 107.75 52.4635C107.829 54.2193 107.766 55.9564 107.335 57.6779C106.57 60.7498 105.261 63.5155 102.887 65.6627C100.797 67.5501 98.6295 69.3584 96.493 71.1924C96.0502 71.5778 95.5853 71.9332 95.1266 72.3019L95.1254 72.3051ZM66.0998 42.0411C66.0782 41.9894 66.0631 41.9401 66.0435 41.8928C65.2238 42.025 64.3877 42.1111 63.5796 42.3024C61.2318 42.8564 58.8929 43.4466 56.5605 44.039C50.397 45.6052 44.2614 47.2765 38.2022 49.2023C37.9269 49.2858 37.6587 49.3903 37.4029 49.5211C37.3036 49.5731 37.249 49.7144 37.1757 49.816C37.2938 49.8843 37.4131 49.9895 37.539 50.0057C37.7093 50.0306 37.8939 50.0057 38.0679 49.9697C38.8336 49.8253 39.6084 49.7061 40.3633 49.5102C45.271 48.23 50.1794 46.9683 55.0679 45.6299C58.0152 44.8239 60.9303 43.9148 63.8441 43.0089C64.6186 42.7689 65.3493 42.3667 66.0998 42.0411ZM71.0897 62.2176C71.0764 62.1835 71.0643 62.1462 71.051 62.1121C70.9195 62.1013 70.7865 62.0642 70.6566 62.0795C69.6662 62.1978 68.6592 62.2405 67.6965 62.4748C64.597 63.2258 61.4982 63.9954 58.4275 64.8593C55.1605 65.7804 51.8898 66.7221 48.7615 68.0701C47.5962 68.5716 46.4729 69.1797 45.3281 69.7362C45.1539 69.8233 44.8556 69.8693 44.995 70.1319C45.0553 70.2487 45.3718 70.3044 45.549 70.2696C45.9252 70.2005 46.2827 70.0514 46.6491 69.9385C51.551 68.411 56.4499 66.8714 61.358 65.3571C64.186 64.4862 67.026 63.6634 69.8529 62.7957C70.2807 62.6647 70.6777 62.4165 71.0874 62.2241L71.0897 62.2176ZM69.2473 60.378C69.2428 60.3398 69.235 60.3005 69.2305 60.2622C68.3363 60.3676 67.4257 60.3865 66.5573 60.5927C63.8698 61.2363 61.1806 61.9049 58.519 62.6493C54.145 63.8698 49.8147 65.223 45.6596 67.064C44.9452 67.3806 44.2648 67.7754 43.4831 68.1774C43.6581 68.2297 43.7439 68.2862 43.8194 68.2696C44.4836 68.1324 45.1614 68.0185 45.8096 67.8243C52.142 65.9423 58.467 64.0503 64.7976 62.153C66.332 61.6932 67.8288 61.1248 69.2484 60.3748L69.2473 60.378ZM59.3819 31.1532C59.3765 31.1074 59.3743 31.0627 59.3657 31.0156C59.1919 31.0005 59.0186 30.9635 58.8475 30.9713C58.1401 31.005 57.4194 31.0047 56.7171 31.0952C51.5806 31.7623 46.5192 32.8298 41.4661 33.9551C39.4879 34.3974 37.5276 34.9119 35.6559 35.7183C35.5084 35.7821 35.3404 35.8422 35.2277 35.9516C35.1485 36.0291 35.0954 36.1965 35.1201 36.3006C35.142 36.3817 35.2998 36.4716 35.4019 36.4828C35.5737 36.4935 35.7565 36.4534 35.926 36.4195C39.9856 35.5832 44.0538 34.7537 48.1116 33.9021C51.0849 33.2775 54.0586 32.642 57.0179 31.9648C57.8238 31.78 58.5913 31.4277 59.3775 31.1553L59.3819 31.1532ZM97.5865 40.1016C97.3475 39.8616 97.1858 39.6203 96.9614 39.4917C96.286 39.1126 95.6083 38.6887 94.8818 38.4411C92.3003 37.5643 89.649 37.4892 86.9739 37.8957C84.5087 38.2683 82.1485 38.9276 80.1602 40.5334C79.9592 40.6951 79.7685 40.8787 79.624 41.0864C79.5563 41.1827 79.5654 41.3908 79.6271 41.4936C79.671 41.5644 79.8772 41.5912 79.9901 41.5624C80.2378 41.4945 80.4819 41.396 80.7177 41.2799C83.991 39.6621 87.4633 39.0237 91.0783 39.3076C92.6115 39.4292 94.1238 39.8214 95.6484 40.068C96.2567 40.1668 96.8755 40.3279 97.5898 40.1027L97.5865 40.1016ZM68.9744 65.5339C68.8087 65.496 68.756 65.4697 68.7102 65.4751C67.6516 65.5797 66.5719 65.6108 65.5285 65.805C62.0792 66.4407 58.7056 67.4038 55.3432 68.3966C52.7957 69.1493 50.2733 69.9843 47.8273 71.0334C47.4907 71.1753 47.1446 71.3029 46.7917 71.3987C46.5243 71.4705 46.3052 71.5707 46.3639 71.8846C46.4199 72.2159 46.6744 72.2711 46.9636 72.1999C47.3897 72.0939 47.8158 71.9879 48.2369 71.8654C52.414 70.6325 56.5829 69.382 60.7639 68.1687C63.3112 67.4269 65.9092 66.8388 68.3616 65.792C68.5311 65.7178 68.7059 65.6492 68.9776 65.535L68.9744 65.5339ZM41.1163 61.5457C41.135 61.6256 41.1538 61.7055 41.1725 61.7855C41.4883 61.7824 41.8127 61.8263 42.1146 61.7706C42.8155 61.6431 43.5129 61.485 44.202 61.3092C47.2896 60.51 50.3787 59.6966 53.4663 58.8974C56.3708 58.1491 59.2845 57.4262 62.1852 56.6583C62.7308 56.5149 63.2377 56.2258 63.7614 56.0014C63.7422 55.9432 63.7294 55.8874 63.709 55.8325C63.1239 55.8518 62.5339 55.8035 61.961 55.9005C60.1123 56.2174 58.2623 56.5377 56.432 56.9455C51.5647 58.0427 46.7434 59.3066 42.0554 61.0321C41.7226 61.1534 41.4288 61.3694 41.1143 61.5413L41.1163 61.5457ZM70.0921 68.773C70.0791 68.728 70.0681 68.6875 70.0583 68.6437C69.9139 68.6282 69.7635 68.5885 69.6163 68.6013C68.5417 68.6891 67.4476 68.6894 66.3963 68.8954C60.6328 70.0021 54.9497 71.4233 49.4384 73.4736C49.2351 73.5502 49.0154 73.6722 49.1436 73.9051C49.2103 74.0243 49.4828 74.1007 49.6424 74.0741C49.921 74.032 50.1797 73.8729 50.4568 73.8046C53.6485 73.021 56.8412 72.245 60.0361 71.4626C62.9343 70.7523 65.8366 70.0508 68.7309 69.3208C69.1975 69.2039 69.6336 68.9588 70.0845 68.7739L70.0921 68.773ZM67.3627 72.6653C67.3485 72.6236 67.3299 72.5839 67.3157 72.5422C67.0016 72.5203 66.691 72.4887 66.3787 72.4821C66.1752 72.4782 65.9677 72.5058 65.7667 72.5356C62.988 72.9048 60.3002 73.6911 57.6121 74.4479C54.5941 75.2979 51.589 76.1928 48.5736 77.0656C48.5231 77.084 48.4522 77.0877 48.422 77.1207C48.3338 77.2132 48.207 77.3212 48.2022 77.4256C48.1963 77.5332 48.2997 77.7132 48.3915 77.7427C48.6313 77.8183 48.8985 77.8891 49.1377 77.8547C49.7071 77.7675 50.2708 77.6453 50.8244 77.4901C55.9203 76.0839 61.0165 74.6668 66.1065 73.2364C66.5449 73.1166 66.9421 72.8575 67.3595 72.6641L67.3627 72.6653ZM59.6188 53.9757C59.606 53.9198 59.5944 53.8608 59.5828 53.8017C58.9346 53.8641 58.281 53.8807 57.6414 53.9901C52.5739 54.8614 47.6116 56.1915 42.6474 57.5063C41.8135 57.7285 41.0268 58.1544 40.2381 58.5247C40.1004 58.5921 40.038 58.8257 39.9417 58.9812C40.1223 59.0281 40.3187 59.1429 40.4818 59.1066C42.9895 58.5152 45.4948 57.9302 47.9853 57.285C51.3556 56.4122 54.7084 55.4964 58.0624 54.5775C58.5972 54.4339 59.0988 54.1795 59.6188 53.9757ZM55.7612 27.5193C55.7531 27.4505 55.7429 27.3773 55.7283 27.3062C55.3707 27.2832 55.0079 27.2035 54.6584 27.2493C53.2028 27.4301 51.7453 27.5956 50.3125 27.8652C46.6527 28.5567 43.0037 29.2997 39.3528 30.0273C39.1909 30.0604 39.0033 30.0731 38.8877 30.1705C38.7345 30.2908 38.6458 30.4857 38.5274 30.6515C38.7053 30.7669 38.868 30.9244 39.0646 30.9881C39.2029 31.0307 39.3844 30.9535 39.5452 30.9237C42.4288 30.4057 45.3163 29.9075 48.1963 29.359C50.4003 28.9397 52.5916 28.4646 54.784 27.9862C55.1287 27.913 55.436 27.68 55.76 27.5225L55.7612 27.5193ZM55.2287 29.8664C55.2226 29.802 55.2198 29.7388 55.2126 29.6777C54.8147 29.6548 54.4085 29.5741 54.0187 29.62C49.0688 30.2264 44.168 31.1323 39.2935 32.1684C39.1863 32.1919 39.0478 32.2004 38.9862 32.2697C38.8751 32.4052 38.7124 32.6026 38.7453 32.7243C38.7862 32.8744 38.993 33.0113 39.1622 33.0797C39.2841 33.1273 39.4565 33.0651 39.602 33.0371C40.7198 32.8295 41.8375 32.6219 42.952 32.4131C46.6512 31.7138 50.3512 31.0222 54.0453 30.3065C54.45 30.2294 54.8341 30.0167 55.2243 29.8685L55.2287 29.8664ZM66.6648 76.2919C66.6491 76.2241 66.6322 76.1594 66.6164 76.0915C66.0134 76.13 65.3867 76.0721 64.8137 76.2202C62.2776 76.86 59.7525 77.5402 57.2325 78.237C55.5587 78.6976 53.8989 79.2109 52.2299 79.6989C51.9798 79.7733 51.7999 79.9169 51.8788 80.2052C51.9524 80.4879 52.1731 80.5456 52.4314 80.4888C53.0586 80.3529 53.697 80.2467 54.3132 80.0703C57.9589 79.0224 61.6037 77.9669 65.2434 76.8949C65.7347 76.7502 66.1916 76.498 66.6669 76.2964L66.6648 76.2919ZM73.8999 45.8956C73.8881 45.8474 73.8794 45.8004 73.8708 45.7533C73.6198 45.6884 73.372 45.5843 73.1155 45.5649C72.1909 45.491 71.3282 45.7724 70.4831 46.0967C69.5424 46.4524 69.5641 46.4529 69.2298 45.4834C68.8956 44.5138 68.5392 43.5546 68.1544 42.6034C68.0293 42.2912 67.8131 42.0082 67.6051 41.7429C67.529 41.6496 67.3461 41.6494 67.2102 41.6003C67.1634 41.7298 67.1003 41.8644 67.0882 41.9991C67.0802 42.1023 67.1452 42.2062 67.1731 42.3114C67.4804 43.4469 67.7692 44.583 68.093 45.7134C68.2416 46.2244 68.3954 46.7409 68.6353 47.2117C68.9322 47.7982 69.5774 48.0786 70.167 47.834C71.2524 47.3916 72.3156 46.8788 73.3733 46.3714C73.5803 46.2742 73.7251 46.0557 73.8967 45.8944L73.8999 45.8956ZM59.547 46.1963C59.5291 46.1241 59.5178 46.0541 59.5021 45.9862C59.0326 46.04 58.5566 46.0511 58.0999 46.1607C56.1965 46.619 54.2889 47.0684 52.398 47.5934C49.6532 48.3554 46.9264 49.1787 44.1926 49.9813C44.0204 50.0325 43.8553 50.1047 43.7008 50.188C43.6489 50.2204 43.595 50.3291 43.6122 50.3828C43.6262 50.4354 43.7324 50.4958 43.7924 50.4918C43.9832 50.4802 44.1766 50.4512 44.3585 50.4034C48.5111 49.3299 52.6634 48.2673 56.8079 47.1653C57.7394 46.9161 58.6353 46.5223 59.5437 46.1952L59.547 46.1963ZM65.0696 80.6814C65.0538 80.6135 65.0401 80.55 65.0244 80.4822C64.5822 80.4909 64.1316 80.4417 63.7019 80.5171C60.5802 81.0662 57.5377 81.9329 54.5365 82.939C54.3202 83.011 54.0852 83.0944 54.1512 83.378C54.2168 83.6725 54.4728 83.6222 54.6892 83.5905C57.8693 83.1027 60.9627 82.2873 64.0015 81.2582C64.377 81.1303 64.7131 80.8784 65.0684 80.6847L65.0696 80.6814ZM53.3959 88.8464C53.4273 88.8102 53.464 88.7795 53.4986 88.7444C53.4222 88.5302 53.369 88.3025 53.2595 88.1093C53.082 87.8001 52.8925 87.4938 52.6596 87.2268C51.3731 85.7526 50.0755 84.289 48.7736 82.8275C48.673 82.7107 48.5219 82.6123 48.3707 82.565C48.0175 82.4485 47.6951 82.7237 47.7524 83.092C47.7769 83.2472 47.8458 83.4111 47.9384 83.5396C49.3218 85.455 50.8712 87.2143 52.8166 88.5861C52.9889 88.7068 53.2031 88.7622 53.3959 88.8464ZM66.1572 83.6389C66.1433 83.5863 66.1305 83.5305 66.1178 83.4747C65.2637 83.5396 64.3912 83.5138 63.5595 83.6893C61.2022 84.1886 58.8624 84.7711 56.5146 85.3251C56.2102 85.3982 56.0074 85.5848 56.067 85.9063C56.1343 86.2673 56.4214 86.3233 56.7339 86.2788C56.7754 86.2754 56.8159 86.2645 56.8565 86.2535C58.5868 85.8389 60.3346 85.4671 62.0489 84.9955C63.4388 84.6117 64.7916 84.0974 66.1605 83.6401L66.1572 83.6389ZM40.3775 19.4531C40.2369 19.417 40.1694 19.3707 40.1136 19.3835C39.5068 19.534 38.9011 19.6813 38.297 19.8548C38.1994 19.8818 38.0771 20.0279 38.0759 20.1226C38.0724 20.3958 37.8958 20.4491 37.6969 20.5237C36.5741 20.9381 35.4855 21.4197 34.5597 22.1905C34.2973 22.4105 34.0787 22.7121 33.9306 23.0209C33.8651 23.1619 33.9558 23.4581 34.0778 23.5863C34.2562 23.7714 34.5166 23.719 34.6946 23.5198C35.392 22.7434 36.3125 22.3219 37.2351 21.9048C38.0543 21.5308 38.9015 21.2109 39.7219 20.8338C39.919 20.7439 40.0445 20.5075 40.2056 20.3351C40.043 20.2179 39.876 20.1027 39.7069 19.9831C39.89 19.8407 40.1066 19.6664 40.3755 19.4487L40.3775 19.4531ZM42.1821 21.8132C42.1516 22.0803 42.0692 22.4201 42.0926 22.7506C42.1155 23.1028 42.3824 23.1845 42.6303 22.9336C42.7799 22.7827 42.8947 22.5863 42.9865 22.3926C43.7919 20.6782 44.8035 19.1223 46.3507 17.9683C46.557 17.8123 46.6689 17.6039 46.5169 17.366C46.3566 17.1106 46.1102 17.1241 45.8676 17.2488C45.7363 17.3185 45.608 17.4003 45.4883 17.4888C44.0149 18.6108 43.0319 20.1075 42.1854 21.8144L42.1821 21.8132ZM40.5644 82.671C40.532 82.7911 40.4849 82.8912 40.4714 82.9997C40.4324 83.3003 40.2748 83.6862 40.6533 83.8338C40.9897 83.9662 41.1939 83.6337 41.3438 83.3805C41.7392 82.7109 42.1077 82.0243 42.4978 81.3491C42.7912 80.8403 43.1029 80.3417 43.3963 79.8329C43.5363 79.5871 43.5668 79.32 43.3002 79.136C43.0357 78.9564 42.8126 79.088 42.6117 79.2899C42.5826 79.3197 42.5568 79.3506 42.531 79.3816C41.7051 80.3824 41.1035 81.5118 40.5656 82.6678L40.5644 82.671ZM42.7107 84.5507C42.6942 84.9107 42.6543 85.2036 42.6689 85.4979C42.6839 85.7705 42.8731 85.8241 43.0653 85.6666C43.262 85.5071 43.4582 85.3181 43.5833 85.1035C44.0864 84.2569 44.553 83.3898 45.0465 82.5398C45.2069 82.2574 45.3365 81.9895 45.0369 81.735C44.7938 81.5265 44.4741 81.6014 44.2418 81.9712C43.7057 82.8279 43.2062 83.705 42.7042 84.5484L42.7107 84.5507ZM42.2858 19.0625C42.2447 18.9635 42.2006 18.7207 42.1344 18.7115C41.9606 18.6963 41.7128 18.724 41.601 18.841C40.7252 19.7469 40.0499 20.7765 39.7223 22.0085C39.6754 22.1891 39.6374 22.4059 39.6922 22.5684C39.7606 22.7541 39.94 22.8957 40.0721 23.0568C40.1888 22.916 40.3617 22.7917 40.4169 22.6287C40.8287 21.4674 41.2296 20.3059 42.0737 19.3665C42.1385 19.2984 42.1853 19.2092 42.2858 19.0625ZM44.7151 86.489C44.6369 86.8376 44.5427 87.078 44.5433 87.3197C44.5435 87.532 44.6428 87.7435 44.6975 87.9571C44.8777 87.8429 45.1157 87.7715 45.2253 87.6098C45.6428 86.9701 46.0314 86.3091 46.4103 85.6445C46.5594 85.3836 46.6148 85.078 46.3006 84.8841C45.9884 84.6946 45.7298 84.8537 45.5601 85.1108C45.2446 85.5897 44.9591 86.0867 44.7151 86.489ZM47.9144 88.6243C47.9774 88.2775 48.0825 87.9458 48.082 87.6127C48.0792 87.458 47.8996 87.2359 47.7454 87.1765C47.6138 87.1254 47.3311 87.199 47.2467 87.3112C46.8244 87.8833 46.4898 88.5163 46.4545 89.2426C46.4455 89.4297 46.6073 89.7112 46.7666 89.787C46.8979 89.849 47.2122 89.7283 47.3245 89.5896C47.5602 89.3014 47.7235 88.9505 47.9156 88.621L47.9144 88.6243ZM48.855 90.0834C48.8503 90.1878 48.8111 90.2761 48.7848 90.3691C48.6983 90.7001 48.7208 91.0229 49.0576 91.1847C49.4041 91.35 49.6585 91.1418 49.8313 90.8456C49.981 90.6032 50.1298 90.3532 50.2397 90.0892C50.3657 89.7908 50.3568 89.4912 50.0414 89.3005C49.7325 89.1122 49.4536 89.2055 49.2393 89.4647C49.0877 89.6515 48.9777 89.8752 48.8506 90.0855L48.855 90.0834ZM53.3005 19.8401C53.2493 19.8399 53.1516 19.8266 53.0599 19.8374C52.5193 19.9057 51.7977 20.6076 51.7299 21.1503C51.7132 21.2979 51.7478 21.5263 51.8453 21.5907C51.9599 21.6687 52.2154 21.6804 52.3273 21.6037C52.7436 21.3222 53.1507 21.0154 53.5141 20.6673C53.7896 20.4008 53.6704 19.9809 53.3005 19.8401ZM100.708 40.7195C100.78 40.976 100.793 41.2039 100.909 41.3483C100.964 41.4193 101.281 41.3912 101.368 41.3019C101.747 40.9117 102.108 40.5003 102.421 40.0573C102.506 39.9451 102.451 39.64 102.346 39.5253C102.266 39.434 101.939 39.426 101.845 39.5162C101.45 39.8788 101.103 40.2949 100.711 40.7207L100.708 40.7195ZM104.368 43.0066C104.39 43.0583 104.406 43.2471 104.506 43.3051C104.686 43.414 105.225 43.0963 105.282 42.8277C105.31 42.688 105.22 42.4506 105.106 42.3727C104.884 42.2268 104.557 42.4931 104.371 43.0078L104.368 43.0066Z" fill="white"/>
<path d="M34.9312 76.097C34.6475 75.5043 34.3313 74.8596 34.0295 74.2055C33.9964 74.135 34.0191 74.0114 34.0612 73.9352C34.9306 72.2768 35.7999 70.6183 36.6757 68.9623C36.7155 68.8925 36.7768 68.8341 36.8768 68.7092C37.2642 69.3796 37.6385 70.005 37.9765 70.6502C38.0169 70.7307 37.8915 70.9159 37.8168 71.0316C37.0162 72.2868 36.1888 73.5249 35.4182 74.7982C35.181 75.1919 35.0863 75.6773 34.9367 76.0917L34.9312 76.097Z" fill="white"/>
<path d="M33.3293 72.5771C33.0955 71.9475 32.8671 71.3638 32.664 70.7709C32.6338 70.6722 32.6669 70.5195 32.727 70.4241C33.5875 68.993 34.4565 67.5686 35.3255 66.1442C35.3516 66.1024 35.4003 66.0688 35.4883 65.9871C35.7684 66.5492 36.0384 67.0785 36.2908 67.616C36.3207 67.6853 36.266 67.8266 36.2065 67.9002C35.0663 69.2852 34.1675 70.8123 33.4575 72.455C33.4494 72.4777 33.4218 72.4934 33.3305 72.5738L33.3293 72.5771Z" fill="white"/>
<path d="M31.0468 65.8842C30.9073 65.3582 30.7665 64.8866 30.6639 64.4105C30.6377 64.2803 30.6835 64.1028 30.7582 63.9871C31.4043 63.0384 32.0675 62.1033 32.7274 61.1669C32.7614 61.1133 32.8222 61.0767 32.8222 61.0767C33.0525 61.4928 33.2884 61.9036 33.5023 62.3248C33.5345 62.3876 33.5019 62.5186 33.4524 62.5848C32.6702 63.6673 31.8782 64.7463 31.05 65.8853L31.0468 65.8842Z" fill="white"/>
<path d="M32.0303 68.8773C31.733 68.2614 31.5477 67.7408 31.9702 67.1176C32.6561 66.0992 33.2543 65.0198 33.8942 63.9665C33.9657 63.8495 34.0563 63.7505 34.1826 63.5729C34.4121 63.9814 34.6252 64.3437 34.8131 64.7152C34.8495 64.7869 34.8057 64.9284 34.7527 65.0044C33.8938 66.2385 33.0284 67.4703 32.1631 68.702C32.1326 68.7459 32.0956 68.7875 32.0303 68.8773Z" fill="white"/>
<path d="M31.1173 31.5554C31.4113 31.2883 31.6717 30.9725 32.0011 30.7694C32.714 30.3352 33.4676 29.9705 34.1909 29.5583C34.4261 29.4237 34.6533 29.2605 34.841 29.0648C35.0736 28.8158 34.9712 28.552 34.6363 28.5775C34.2359 28.6123 33.8428 28.7485 33.4526 28.8564C33.274 28.9054 33.1083 28.9993 32.9356 29.0723C32.9017 29.0345 32.8678 28.9966 32.8307 28.9576C33.1178 28.6587 33.353 28.2606 33.7036 28.0798C34.5374 27.6453 35.4219 27.3133 36.366 26.999C36.301 27.1183 36.2339 27.2331 36.1668 27.348C35.6702 28.1969 35.1767 29.047 34.6748 29.8903C34.601 30.0137 34.5007 30.1495 34.3806 30.2086C33.3723 30.7009 32.3558 31.1755 31.3457 31.6525C31.3105 31.6691 31.2702 31.6692 31.2308 31.6769C31.1948 31.6347 31.1589 31.5924 31.1229 31.5501L31.1173 31.5554Z" fill="white"/>
<path d="M25.1868 44.8743C25.5985 44.7777 25.9106 44.7037 26.2436 44.6227C26.161 45.1454 26.2153 45.7248 25.7913 46.2304C25.5389 46.5345 25.3864 46.9368 25.2485 47.3188C25.1901 47.4806 25.2838 47.6974 25.3096 47.8897C25.4587 47.8008 25.6111 47.7131 25.7582 47.6198C25.8046 47.5927 25.8383 47.55 25.9351 47.4642C25.9226 48.0158 25.9911 48.5052 25.6655 48.9512C25.5292 49.1362 25.4357 49.3549 25.3433 49.5703C25.124 50.0766 25.2132 50.2552 25.7383 50.3715C25.8335 50.9291 25.586 51.3411 25.1156 51.7421C24.8626 49.3712 25.0294 47.0641 25.19 44.8754L25.1868 44.8743Z" fill="white"/>
<path d="M62.2121 95.2484C62.9181 94.519 63.6278 93.8604 64.248 93.1255C64.6157 92.6948 64.9994 92.4527 65.5572 92.4382C65.8894 92.43 66.2239 92.3751 66.6802 92.3276C66.0517 93.1362 65.3532 93.6927 64.6886 94.2871C63.9829 94.9142 63.1365 95.11 62.2109 95.2516L62.2121 95.2484Z" fill="white"/>
<path d="M60.0443 93.0939C59.0443 94.2222 57.9826 95.2477 56.7012 96C56.404 96.1745 56.0015 96.1646 55.5856 96.2523C55.6265 96.139 55.6308 96.0967 55.6511 96.071C56.502 95.2036 57.3529 94.3362 58.2177 93.4811C58.3527 93.3505 58.5533 93.251 58.7402 93.2197C59.1708 93.1519 59.6057 93.1332 60.041 93.0927L60.0443 93.0939Z" fill="white"/>
<path d="M76.7105 91.696C76.9356 91.265 77.2316 91.0023 77.7306 90.8567C80.9472 89.9028 84.1498 88.8963 87.3531 87.9083C87.4892 87.8659 87.6252 87.8235 87.7775 87.8273C84.1694 89.3388 80.4301 90.4736 76.7093 91.6993L76.7105 91.696Z" fill="white"/>
<path d="M27.8168 33.9281C28.2579 32.9493 28.7022 31.9718 29.14 30.9919C29.3786 30.4523 29.7794 30.092 30.3031 29.8273C30.8235 29.5614 31.323 29.2624 31.8318 28.9777C31.8711 29.0211 31.9082 29.0601 31.9474 29.1036C31.6025 29.4913 31.2863 29.9114 30.9022 30.2558C30.3344 30.7643 29.7104 31.216 29.1202 31.7055C28.9647 31.8323 28.7995 31.9959 28.7374 32.1784C28.6801 32.337 28.7007 32.6043 28.8057 32.719C28.9646 32.8971 29.1631 32.7931 29.3286 32.6186C29.5119 32.425 29.7291 32.2692 29.977 32.1501C29.4808 32.9773 28.5421 33.2971 27.9614 34.0242C27.911 33.9914 27.8651 33.9565 27.8179 33.9249L27.8168 33.9281Z" fill="white"/>
<path d="M29.3492 57.2364C29.2987 56.6767 29.2428 56.1625 29.2086 55.6489C29.2022 55.5551 29.2608 55.4335 29.3279 55.359C29.7429 54.9087 30.1718 54.4707 30.6522 53.9709C30.8293 54.5141 30.9925 55.0048 31.1413 55.5049C31.1618 55.5598 31.1038 55.6596 31.0536 55.7074C30.5102 56.1992 29.9604 56.6886 29.3459 57.2352L29.3492 57.2364Z" fill="white"/>
<path d="M29.6269 34.8229C29.8465 34.0422 30.1881 33.5216 30.8536 33.1983C31.7241 32.7734 32.5607 32.2703 33.4114 31.809C33.5018 31.7611 33.6038 31.7321 33.7621 31.6685C33.5099 32.1848 33.2887 32.6355 33.1307 32.9517C32.6265 33.132 32.1986 33.2227 31.8333 33.4238C31.214 33.7711 30.6354 34.188 30.0359 34.5717C29.9264 34.6419 29.8148 34.7077 29.6249 34.8185L29.6269 34.8229Z" fill="white"/>
<path d="M32.174 58.8888C32.2826 59.2061 32.3805 59.4317 32.4378 59.6683C32.4636 59.7691 32.4381 59.9209 32.3807 59.9989C31.6823 60.8592 30.9701 61.7072 30.27 62.5522C29.9894 62.1435 29.9607 61.7161 30.2523 61.3237C30.7626 60.6297 31.2879 59.9448 31.8153 59.2643C31.9008 59.1488 32.0165 59.0515 32.1772 58.89L32.174 58.8888Z" fill="white"/>
<path d="M29.7033 59.834C29.5481 59.2401 29.4436 58.7085 29.9558 58.2018C30.4747 57.6865 30.914 57.0877 31.4614 56.4327C31.5934 56.9085 31.707 57.2934 31.8008 57.6822C31.8157 57.7424 31.7588 57.839 31.7043 57.8888C31.0527 58.5282 30.3959 59.1619 29.7033 59.834Z" fill="white"/>
<path d="M69.9756 92.1083C68.8905 93.0668 67.8282 94.0738 66.2362 94.4396C66.8836 93.6597 67.4503 92.9715 68.03 92.2879C68.076 92.2314 68.1715 92.2 68.248 92.191C68.805 92.1176 69.3574 92.0572 69.9153 91.9914C69.9383 92.029 69.9569 92.0687 69.98 92.1062L69.9756 92.1083Z" fill="white"/>
<path d="M29.072 54.0811C29.0425 53.4228 29.0127 52.8668 28.9969 52.3123C28.9949 52.2165 29.049 52.097 29.115 52.0256C29.4435 51.6832 29.7891 51.3542 30.2019 50.9507C30.293 51.6714 30.3795 52.3137 30.4487 52.9534C30.4547 53.0178 30.3991 53.1111 30.3404 53.1521C29.9488 53.4462 29.5499 53.7303 29.0688 54.0799L29.072 54.0811Z" fill="white"/>
<path d="M63.1158 92.8156C61.8928 94.1561 60.5729 95.147 58.9183 95.889C59.0297 95.7426 59.0628 95.6814 59.1141 95.6304C59.8832 94.8176 60.649 94.0036 61.4307 93.2063C61.5724 93.0672 61.7841 92.957 61.9766 92.9204C62.307 92.8567 62.651 92.8564 63.1146 92.8189L63.1158 92.8156Z" fill="white"/>
<path d="M27.1381 59.8851C27.0321 59.2358 26.9379 58.6859 26.8589 58.1342C26.8458 58.0489 26.8684 57.9254 26.9233 57.8647C27.2984 57.4439 27.6917 57.0334 28.1657 56.5312C28.2417 57.2026 28.3035 57.7408 28.3566 58.2832C28.3635 58.3552 28.3284 58.4524 28.2748 58.5098C27.9244 58.9432 27.5655 59.3698 27.1369 59.8884L27.1381 59.8851Z" fill="white"/>
<path d="M69.9254 93.6561C70.5011 93.0443 71.0716 92.4269 71.66 91.8307C71.7415 91.7467 71.9127 91.7389 72.0426 91.7236C72.4859 91.6714 72.9277 91.6333 73.4046 91.5895C72.7723 92.5505 70.9412 93.8325 69.9286 93.6573L69.9254 93.6561Z" fill="white"/>
<path d="M32.681 34.1066C32.4134 34.8479 32.1491 35.5904 31.8718 36.3282C31.8426 36.4092 31.7675 36.4955 31.6917 36.523C31.3218 36.6456 30.948 36.7486 30.4676 36.8935C30.6849 36.2914 30.7818 35.6275 31.133 35.1615C31.4941 34.6881 32.1127 34.4137 32.617 34.0506C32.6362 34.0684 32.6553 34.0863 32.6777 34.1054L32.681 34.1066Z" fill="white"/>
<path d="M27.6154 37.7704C27.1744 39.0126 26.9442 40.3601 25.7193 41.2902C25.9293 40.3232 26.1236 39.42 26.3267 38.5127C26.338 38.4509 26.3769 38.3735 26.4309 38.3454C26.8069 38.1554 27.1902 37.9755 27.6122 37.7692L27.6154 37.7704Z" fill="white"/>
<path d="M27.9168 53.2873C27.9561 53.8576 27.9993 54.3562 28.0208 54.8543C28.024 54.9469 27.959 55.0661 27.8865 55.1351C27.5051 55.5024 27.1185 55.8641 26.723 56.23C26.2877 55.3374 26.7059 54.2699 27.9135 53.2861L27.9168 53.2873Z" fill="white"/>
<path d="M57.0325 93.3387C55.6629 94.5787 54.4096 95.7802 52.8601 96.5858C52.8348 96.5547 52.8094 96.5236 52.7808 96.4913C53.1473 96.1552 53.5223 95.8259 53.8749 95.4775C54.4372 94.923 55.0349 94.3923 55.5377 93.7798C55.9385 93.2878 56.4109 93.3375 57.0348 93.3322L57.0325 93.3387Z" fill="white"/>
<path d="M30.221 35.7215C29.7156 36.9697 29.4143 38.2404 28.1157 38.8072C28.1183 37.6848 28.953 36.4164 30.221 35.7215Z" fill="white"/>
<path d="M26.7548 37.083L27.4465 35.1666C27.4593 35.131 27.4877 35.0827 27.5174 35.0714C27.9584 34.8939 28.4014 34.7209 28.8355 34.5519C28.6959 35.8005 27.6402 36.3634 26.8826 37.1548C26.8407 37.1287 26.801 37.107 26.758 37.0842L26.7548 37.083Z" fill="white"/>
<path d="M30.0604 48.3418C30.0813 48.8617 30.1092 49.3218 30.1109 49.7834C30.114 49.876 30.0479 49.9985 29.9757 50.0566C29.6728 50.2876 29.3551 50.4986 29.0372 50.7205C28.7162 49.785 28.9685 49.1772 30.0636 48.343L30.0604 48.3418Z" fill="white"/>
<path d="M29.8334 65.728C30.3776 66.6636 30.4218 67.565 29.7619 68.4099C29.0997 67.5379 29.1074 66.9186 29.8334 65.728Z" fill="white"/>
<path d="M26.6645 52.9962C26.4166 51.8786 26.9296 51.1161 27.7933 50.5277C28.0684 51.4685 27.7081 52.2642 26.6645 52.9962Z" fill="white"/>
<path d="M27.7457 62.7534C27.5534 62.1205 27.2986 61.5895 27.7943 61.0475C28.0617 60.7525 28.2717 60.4039 28.5566 60.0201C28.7101 60.639 28.8901 61.154 28.44 61.6611C28.1813 61.952 28.0143 62.3234 27.7501 62.7513L27.7457 62.7534Z" fill="white"/>
<path d="M73.5089 92.6592C73.8382 92.2841 74.1578 91.9055 74.4977 91.5415C74.5725 91.4661 74.7147 91.4369 74.835 91.4181C75.2723 91.3418 75.7135 91.2851 76.2118 91.2125C75.5792 92.2758 74.5304 92.4241 73.5121 92.6604L73.5089 92.6592Z" fill="white"/>
<path d="M28.9408 45.4423C28.8927 44.8761 28.7961 44.3327 29.3901 43.9543C29.6775 43.7763 29.9092 43.5196 30.1762 43.2867C30.4091 44.2635 30.0521 44.8775 28.9408 45.4423Z" fill="white"/>
<path d="M25.6702 42.2678C25.977 42.0968 26.2763 41.9267 26.6019 41.7442C26.5791 42.2739 26.5582 42.7676 26.1443 43.1744C25.8418 43.475 25.6104 43.8525 25.3484 44.1934C25.3116 44.1838 25.2737 44.1774 25.2381 44.1645C25.3347 43.5115 25.4325 42.8553 25.5292 42.2023C25.5766 42.223 25.6228 42.247 25.6702 42.2678Z" fill="white"/>
<path d="M31.2362 37.998C31.1199 38.4317 31.008 38.8633 30.8885 39.2959C30.871 39.3444 30.8421 39.4145 30.8047 39.4266C30.3546 39.5788 29.9036 39.7234 29.5272 39.8437C29.51 38.9081 30.4736 38.5497 31.2362 37.998Z" fill="white"/>
<path d="M34.0913 26.1341C33.7943 26.3892 33.5245 26.6907 33.1963 26.8905C32.5685 27.2713 31.9062 27.5958 31.2575 27.9434C31.1803 27.9851 31.1028 28.0376 31.0264 28.0869C30.9978 28.0546 30.9713 28.0267 30.9459 27.9956C31.1205 27.7147 31.2951 27.4337 31.4708 27.1496C31.4855 27.1292 31.5113 27.0983 31.5331 27.0988C32.4231 27.0761 32.9684 26.285 33.7789 26.0873C33.8556 26.0674 33.9302 26.0431 34.0037 26.022C34.0343 26.0587 34.0618 26.0942 34.0892 26.1297L34.0913 26.1341Z" fill="white"/>
<path d="M30.4813 40.8393C30.4265 41.3866 30.5967 41.9896 29.9179 42.2788C29.6153 42.4074 29.3651 42.6647 29.0381 42.9016C29.0225 42.3874 28.9767 41.9464 29.4547 41.636C29.8175 41.401 30.1426 41.1086 30.4846 40.8405L30.4813 40.8393Z" fill="white"/>
<path d="M29.1724 63.1294C29.3684 63.5697 29.4549 63.9485 29.1533 64.3483C28.9349 64.639 28.7808 64.9749 28.5363 65.3989C28.3992 64.9981 28.2928 64.6744 28.2206 64.469C28.5658 63.9789 28.8533 63.5777 29.1724 63.1294Z" fill="white"/>
<path d="M30.3226 69.3807C30.481 69.3171 30.7151 69.226 30.9548 69.1296C31.4027 69.7742 31.4022 70.1509 30.9375 70.8504C30.7287 70.3542 30.5264 69.8604 30.3238 69.3775L30.3226 69.3807Z" fill="white"/>
<path d="M26.939 47.3288C26.7267 46.4874 27.1533 45.9645 27.7597 45.5211C27.9982 46.2694 27.7873 46.7422 26.939 47.3288Z" fill="white"/>
<path d="M30.0189 46.1353C30.0648 46.6165 30.1523 47.0836 29.5808 47.3493C29.3693 47.4486 29.1989 47.6469 29.0055 47.8076C28.8 47.0895 29.0303 46.7152 30.0221 46.1365L30.0189 46.1353Z" fill="white"/>
<path d="M26.8332 49.8116C26.6323 48.9488 27.3046 48.617 27.7542 48.1316C27.9896 48.7873 27.7913 49.1439 26.8332 49.8116Z" fill="white"/>
<path d="M27.1017 44.6579C27.0053 43.7998 27.1966 43.4115 27.885 43.0452C28.0532 43.7755 27.7124 44.2636 27.1017 44.6579Z" fill="white"/>
<path d="M28.402 40.2241C28.4043 40.9274 28.112 41.3927 27.4398 41.7648C27.3396 41.0591 27.5505 40.7181 28.402 40.2241Z" fill="white"/>
<path d="M25.5452 53.046C25.5268 53.4821 25.5192 53.8782 25.5029 54.3187C25.2193 53.7663 25.2285 53.3049 25.5452 53.046Z" fill="white"/>
<path d="M53.1324 82.7434C51.8795 82.2912 51.0802 81.1502 51.1039 79.8379C51.1217 78.9369 51.1996 78.2039 51.3489 77.537C51.8823 75.1975 52.4424 72.8749 53.0081 70.6386C53.1942 69.8898 53.4221 69.1671 53.6419 68.467C53.7551 68.1127 53.8651 67.7573 53.9707 67.4039C54.0384 67.1758 54.0984 66.9487 54.1596 66.7183C54.2616 66.3343 54.3727 65.9353 54.507 65.5228C54.6412 65.1102 54.7849 64.712 54.9261 64.3312C55.0967 63.8585 55.2591 63.4086 55.3962 62.9677C55.9009 61.3058 56.3839 59.6433 56.8137 58.1482C56.609 58.5939 56.4086 59.0375 56.2138 59.4758C55.9087 60.1487 55.6037 60.8216 55.2921 61.4922C55.0139 62.0906 54.7021 62.6404 54.4022 63.1468C53.6771 64.3853 52.2501 64.9936 50.8549 64.662C50.737 64.6341 50.6181 64.5985 50.5048 64.5576C49.2973 64.1218 48.4825 63.0337 48.3844 61.714C48.3492 61.2439 48.3493 60.7975 48.3479 60.3653C48.3468 60.2368 48.3456 60.1083 48.3455 59.9766C48.3375 59.4614 48.336 58.9486 48.3301 58.4379C48.2686 58.4157 48.2015 58.3988 48.1335 58.3742C48.0591 58.3474 47.9943 58.324 47.9361 58.303C46.5084 57.7877 46.1226 56.9203 45.9852 55.7803L45.9672 55.6275C45.8258 54.519 45.81 53.4375 45.8436 52.3812C45.172 53.1268 44.5182 53.9043 43.8499 54.6913C42.651 56.1173 41.3864 56.0525 40.5415 55.7475C40.4412 55.7113 40.3334 55.6651 40.2301 55.6168C39.9752 55.4919 39.6372 55.3333 39.3029 55.2053C39.277 55.196 39.2217 55.187 39.1708 55.1759C39.0463 55.1456 38.8904 55.1113 38.7133 55.0547C38.2001 54.8951 37.689 54.7399 37.1778 54.5847C35.934 54.2089 34.6525 53.8159 33.3897 53.3711C32.9948 53.2285 32.5986 53.0892 32.2037 52.9467C30.6045 52.3695 18.774 48.0739 17.2142 47.489C16.5152 47.2257 15.815 46.9657 15.1181 46.7068L15.0178 46.6706L12.9964 45.9045L13.81 43.9039C14.0889 43.2325 14.3592 42.5544 14.6317 41.8807L15.4002 39.9846L18.4419 41.1373C20.2475 41.822 32.3367 46.2219 34.1761 46.9041C34.3736 46.9754 34.5743 47.0478 34.7717 47.1191C35.5843 47.4124 36.4274 47.702 37.2414 47.9812C37.5901 48.0997 37.9421 48.2195 38.2929 48.3424C38.9115 48.5547 39.611 48.7962 40.3323 49.0382C41.6978 47.6979 42.9677 46.4402 44.1933 45.2141C45.4177 43.9912 46.4672 43.1515 47.6004 42.4957C47.9339 42.3015 48.3459 42.0623 48.8574 41.892C49.4589 41.6956 50.0696 41.6965 50.6296 41.8986C51.8307 42.3321 52.5099 43.5725 52.2864 44.9115C52.2783 44.9745 52.2879 45.1609 52.29 45.297C52.2951 45.4452 52.3001 45.5934 52.2975 45.7425L52.2902 47.5876C52.2847 49.0931 52.2824 50.5998 52.2681 52.1095C52.266 52.2368 52.266 52.3685 52.264 52.4958C52.6535 51.7107 53.0432 50.9147 53.4154 50.1269C53.8337 49.2315 54.2443 48.2966 54.6432 47.3941C54.9556 46.6909 55.2647 45.9865 55.5835 45.2856C55.9425 44.5041 56.3167 43.7207 56.6804 42.9665C56.9053 42.4952 57.1315 42.0207 57.3565 41.5494L57.8448 40.5108C59.1624 37.7116 60.4813 34.9092 61.7936 32.1044C62.3659 30.8839 62.9725 29.5478 63.7043 27.9056C63.9476 27.3531 64.1877 26.7994 64.4245 26.2446C64.719 25.5605 65.0216 24.8538 65.3393 24.1562C65.8181 23.1032 66.3134 22.0453 66.7958 21.0229C67.0486 20.4848 67.2993 19.9423 67.5488 19.403C67.7062 19.0683 67.8572 18.7312 68.0113 18.3954C68.1655 18.0595 68.3196 17.7236 68.4738 17.3877C68.6116 17.0972 68.7416 16.8587 68.8831 16.639C69.6542 15.4757 71.0956 14.9897 72.3808 15.4536L72.4553 15.4805C73.8074 16.0124 74.5594 17.4364 74.2488 18.8647C74.0315 19.862 73.8025 20.8515 73.5634 21.808C73.3571 22.6227 73.1444 23.435 72.9361 24.2453C72.6751 25.2524 72.414 26.2596 72.1671 27.2682C71.983 28.0213 71.8078 28.7704 71.6314 29.5227C71.4001 30.5186 71.1623 31.5524 70.8998 32.5737C70.3521 34.6994 69.7377 36.9694 68.9114 39.9277C68.7228 40.6024 68.5139 41.2625 68.3098 41.8987C68.1625 42.3577 68.0183 42.818 67.8818 43.2773C67.2882 45.2767 66.7073 47.2917 66.1657 49.1672L65.9908 49.7737C65.5113 51.4265 65.0217 53.1378 64.5567 54.8214C64.3118 55.7027 64.0761 56.6092 63.8477 57.4854C63.8238 57.5719 63.7999 57.6584 63.7792 57.7461C64.364 57.6059 64.9114 57.6607 65.3648 57.7731C65.5551 57.8236 65.7502 57.861 65.9429 57.905C66.3912 58.0009 66.8981 58.107 67.4193 58.2952C68.8455 58.8245 70.2247 59.3626 71.5618 59.8854C72.2196 60.1411 72.8794 60.4013 73.5416 60.6549C74.1047 60.8691 74.6665 61.0865 75.2189 61.2896C75.3698 61.1757 75.5333 61.0774 75.7051 60.9967L76.0984 60.8093C77.3487 60.2141 78.7644 59.5359 80.4751 59.3886C80.63 59.375 80.7894 59.3594 80.9454 59.3425C81.7127 59.2645 82.5793 59.1748 83.5483 59.3489C84.074 59.4435 84.591 59.5826 85.0928 59.7637C85.6496 59.9646 86.1942 60.2197 86.7092 60.5264C86.9206 60.6502 87.1162 60.7977 87.293 60.9566C87.4495 61.1009 87.6071 61.242 87.7604 61.3851C88.2012 61.7857 88.6527 62.1975 89.0963 62.6613C89.6089 63.1976 90.0193 63.7738 90.3204 64.3691C90.7325 65.1838 91.2245 66.1626 91.5441 67.2842C91.5762 67.3068 91.6767 67.3833 91.6982 67.3947C92.092 67.5808 92.5188 67.7568 92.9956 67.9362C93.2643 68.0332 93.5318 68.1334 93.8005 68.2304L94.7782 68.5832C95.1181 68.7059 95.4548 68.8274 95.7956 68.9578C96.1979 69.1103 96.4798 69.3328 96.6504 69.4785C99.0995 70.3369 110.64 74.4729 113.101 75.3282C113.602 75.5017 114.106 75.6763 114.611 75.8477L117.032 76.6738L115.005 82.4407L113.128 81.935C111.501 81.4943 110.168 81.0826 108.931 80.6363C108.792 80.586 108.656 80.537 108.52 80.4879C107.698 80.1802 97.7857 76.6025 96.9614 76.3013C96.2297 76.0373 95.4981 75.7732 94.7668 75.4983L94.2132 75.2985C93.0363 74.859 91.8193 74.4088 90.622 73.9145C90.0928 73.6978 89.7256 73.3568 89.3743 73.1641C89.1155 73.0195 88.2585 72.7175 88.0749 72.6585C88.0264 72.641 87.9778 72.6235 87.9292 72.606C86.6958 72.1608 85.891 71.1568 85.6713 69.7786C85.6507 69.643 85.6301 69.5075 85.6094 69.372C85.5574 69.0093 85.5092 68.6663 85.4296 68.4509C85.3068 68.1322 85.0958 67.7743 84.7816 67.3572C84.6677 67.2063 84.4915 67.0256 84.3046 66.8337C84.0655 66.5938 83.8011 66.3227 83.5445 65.9996C83.5266 65.9785 83.4823 65.9186 83.233 65.8286C83.055 65.7644 82.8311 65.7055 82.5942 65.642L82.3909 65.5869C82.353 65.5805 82.2451 65.5855 82.1372 65.5904C82.0426 65.6295 81.948 65.6685 81.8525 65.6999C81.7065 65.7497 81.5637 65.8006 81.4241 65.8527C81.0419 65.9891 80.6465 66.1318 80.2113 66.2528C79.5328 66.4397 78.8297 66.6543 78.3006 67.0048C78.2763 67.0217 78.2096 67.0744 78.0545 67.2307C77.2637 68.0429 76.2288 68.3353 75.1372 68.0548C73.9947 67.7632 72.7879 67.3862 71.4445 66.9013C70.101 66.4164 68.856 65.9121 67.6098 65.4111C67.0224 65.1735 66.4208 64.9344 65.8245 64.7009C65.6041 65.1189 65.3836 65.537 65.16 65.9539C64.6952 66.8363 64.2239 67.7163 63.7472 68.5907C63.177 69.6436 62.6046 70.6921 62.0279 71.7426C61.2948 73.0843 60.5389 74.469 59.8041 75.8357C59.1867 76.9886 58.5695 78.1819 57.975 79.3321C57.704 79.86 57.4297 80.3867 57.1587 80.9145L57.1128 81.0114C57.0648 81.1038 57.0168 81.1963 56.9699 81.2855C56.3036 82.483 54.9781 83.1242 53.6778 82.8744C53.4969 82.8384 53.3195 82.7927 53.1511 82.7319L53.1324 82.7434Z" fill="#D2D2D2"/>
<path d="M114.339 77.9814C113.687 77.7607 113.039 77.5379 112.392 77.3119C109.88 76.4378 98.284 72.2819 95.7722 71.4046C95.6719 71.3684 95.5806 71.3171 95.4916 71.2594C95.3332 71.151 95.2043 70.9911 95.0307 70.9247C94.1062 70.5765 93.1692 70.2529 92.2436 69.9078C91.728 69.7144 91.2215 69.506 90.7287 69.2696C90.4629 69.1444 90.2521 68.9073 89.9792 68.8015C89.7647 68.7167 89.6856 68.6114 89.6428 68.4056C89.4249 67.3061 88.9335 66.3055 88.4363 65.3211C88.2153 64.8791 87.9032 64.4664 87.5604 64.1085C87.0256 63.5423 86.4296 63.0344 85.8537 62.5009C85.7856 62.4361 85.7032 62.3807 85.6216 62.333C84.8566 61.8776 84.0367 61.5743 83.1577 61.4144C82.3122 61.2629 81.4802 61.409 80.6358 61.4775C79.1521 61.6042 77.8802 62.2795 76.5794 62.893C76.4416 62.9604 76.3067 63.091 76.2314 63.2285C76.0007 63.6245 75.7878 63.7379 75.3551 63.5781C74.4908 63.2661 73.6311 62.9412 72.777 62.611C70.7604 61.8319 68.7584 61.0325 66.7312 60.2825C66.1249 60.0564 65.4684 59.9695 64.8376 59.8113C64.2015 59.6476 63.7729 59.9429 63.3847 60.4102C62.8294 61.077 62.4234 61.8269 62.0494 62.5993C61.3981 63.9376 60.7553 65.2826 60.0728 66.606C59.5447 67.6229 58.9631 68.6058 58.418 69.6092C58.1135 70.1689 57.835 70.7379 57.5435 71.3023C57.6924 70.5145 57.9038 69.7566 58.141 69.0079C58.852 66.7947 59.5836 64.5853 60.2881 62.3698C60.6042 61.3825 60.8944 60.3859 61.1705 59.3878C61.6348 57.6857 62.0624 55.9739 62.53 54.2729C63.0535 52.3763 63.5997 50.4878 64.1471 48.5961C64.7161 46.6244 65.2839 44.6559 65.8658 42.6888C66.1957 41.5821 66.5798 40.4876 66.8902 39.3739C67.5707 36.9412 68.235 34.5026 68.869 32.0567C69.3226 30.3031 69.6995 28.5291 70.1337 26.7685C70.588 24.942 71.0726 23.1228 71.5302 21.2974C71.7726 20.3421 71.9976 19.3842 72.2064 18.4204C72.3056 17.9732 72.0779 17.58 71.6941 17.4269C71.3189 17.2804 70.8732 17.4306 70.6312 17.7969C70.5339 17.9448 70.4505 18.105 70.3736 18.2674C70.062 18.938 69.7602 19.6121 69.4486 20.2827C68.714 21.8617 67.9645 23.4316 67.2493 25.0176C66.6854 26.2557 66.1732 27.5125 65.619 28.7541C64.9875 30.1691 64.3496 31.5817 63.6934 32.9841C62.2222 36.1377 60.7348 39.2855 59.2539 42.4356C58.6703 43.6775 58.0663 44.9048 57.4956 46.1515C56.7547 47.7684 56.072 49.4064 55.3149 51.0175C54.5244 52.7007 53.678 54.3565 52.8531 56.0236C52.7351 56.2591 52.6075 56.4911 52.4453 56.7985C52.4118 56.6583 52.3987 56.6134 52.3922 56.5707C52.2722 55.6054 52.0986 55.4073 51.1732 55.1428C50.8186 55.0405 50.4661 54.9425 50.1083 54.839C50.1325 53.9001 50.1777 52.9943 50.1826 52.0886C50.201 49.9694 50.2054 47.8488 50.2118 45.7325C50.2094 45.3438 50.1658 44.9476 50.2252 44.5702C50.3116 44.0671 50.0055 43.7188 49.5193 43.88C49.2164 43.9792 48.9336 44.1442 48.652 44.3061C47.5409 44.9515 46.584 45.788 45.6755 46.6932C44.134 48.237 42.5831 49.7665 41.0236 51.2893C40.9476 51.368 40.7459 51.3794 40.625 51.3394C39.6162 51.0119 38.6133 50.6682 37.6115 50.3212C36.2222 49.8417 34.8315 49.3764 33.4538 48.8645C31.2304 48.04 18.7982 43.5054 16.5806 42.6647C16.3059 43.3449 16.0311 44.0251 15.7542 44.7009C15.7898 44.7137 15.8222 44.7254 15.8546 44.7371C18.5245 45.7337 31.4064 50.4417 34.0971 51.3909C35.8272 52.0007 37.5959 52.5037 39.3482 53.052C39.5892 53.1243 39.8442 53.1578 40.075 53.2484C40.4438 53.3925 40.8011 53.5581 41.1562 53.7301C41.6672 53.9768 41.9547 53.7073 42.2676 53.3373C43.1648 52.2707 44.0673 51.2097 45.0167 50.1912C45.8945 49.2493 46.8339 48.37 47.748 47.4595C47.8618 47.3469 47.9745 47.2375 48.1329 47.0825C48.1342 47.2513 48.1297 47.3448 48.1328 47.4374C48.2039 50.0792 47.7188 52.7106 48.0554 55.3567C48.1551 56.1245 48.096 56.1361 48.8279 56.3893C48.9865 56.4466 49.1651 56.4891 49.3277 56.4746C49.4815 56.4642 50.3103 56.6719 50.3929 56.8078C50.4201 56.8542 50.4217 56.9207 50.4225 56.9795C50.4319 57.9671 50.4413 58.9548 50.454 59.9436C50.4582 60.4794 50.4471 61.0169 50.4896 61.5482C50.5282 62.1 50.8841 62.5028 51.3528 62.6135C51.8409 62.7311 52.3444 62.5323 52.6126 62.0729C52.8967 61.59 53.1755 61.1015 53.4101 60.5935C54.1584 58.9865 54.8669 57.3579 55.6314 55.7567C56.4138 54.1364 57.2737 52.5551 58.0475 50.9281C58.92 49.0988 59.7397 47.2432 60.5648 45.3931C61.0962 44.1945 61.5899 42.9787 62.1181 41.7789C63.1648 39.4161 64.2289 37.0559 65.2756 34.6931C65.6988 33.7335 66.1058 32.7681 66.5225 31.8062C66.5517 31.8167 66.5808 31.8272 66.6067 31.8365C66.4501 32.4935 66.3129 33.1575 66.1227 33.806C65.7946 34.928 65.4341 36.0383 65.0898 37.1544C64.569 38.8508 64.0567 40.554 63.538 42.2548C63.332 42.9269 63.0957 43.5917 62.9027 44.2684C62.1912 46.7668 61.485 49.2708 60.7832 51.7728C60.2333 53.7221 59.6985 55.6805 59.1453 57.6287C58.5793 59.6125 58.0069 61.594 57.4085 63.5661C57.143 64.4435 56.7922 65.2939 56.5041 66.1632C56.3097 66.7626 56.1638 67.3796 55.9856 67.9848C55.6723 69.0353 55.3146 70.0771 55.0446 71.1395C54.4649 73.4147 53.922 75.6996 53.3964 77.987C53.2605 78.5966 53.2165 79.2357 53.2033 79.8602C53.1916 80.3792 53.5523 80.718 54.0551 80.8153C54.4657 80.894 54.9001 80.6739 55.1246 80.2646C55.1806 80.1604 55.2344 80.0518 55.2871 79.9464C56.176 78.2438 57.0423 76.5331 57.9483 74.844C59.2513 72.42 60.5875 70.0154 61.897 67.5937C62.7799 65.9585 63.6414 64.3118 64.521 62.6755C64.6463 62.4499 64.8232 62.254 64.9797 62.0433C65.2258 62.1724 65.4229 62.3057 65.6451 62.3896C68.9584 63.6513 72.1888 65.1429 75.6421 66.0271C76.0111 66.12 76.2887 66.03 76.5477 65.7685C76.7275 65.5846 76.9182 65.401 77.134 65.2593C77.902 64.7535 78.7644 64.483 79.6436 64.2368C80.1566 64.0927 80.6557 63.8959 81.1619 63.7201C81.375 63.6469 81.5805 63.5235 81.7975 63.5104C82.1747 63.4892 82.5736 63.4685 82.9338 63.5656C83.7514 63.7838 84.5984 63.9615 85.1845 64.6999C85.5729 65.195 86.079 65.5972 86.4563 66.103C86.8242 66.5943 87.1604 67.1328 87.3793 67.7021C87.5879 68.2494 87.6414 68.8615 87.7349 69.444C87.8313 70.0387 88.1113 70.4691 88.7022 70.6567C89.0306 70.7606 89.3695 70.8354 89.6968 70.9425C89.8707 70.998 90.0461 71.0796 90.2004 71.1792C90.6077 71.4396 90.9747 71.7916 91.4112 71.9711C92.7551 72.5257 94.1233 73.0231 95.488 73.5303C97.0437 74.1065 107.69 77.9418 109.245 78.5211C110.699 79.0643 112.174 79.5089 113.665 79.9081C113.891 79.2616 114.122 78.613 114.351 77.9676L114.339 77.9814Z" fill="white"/>
</g>
<defs>
<clipPath id="clip0_36_1276">
<rect width="108.337" height="87.0847" fill="white" transform="translate(29.5647) rotate(19.846)"/>
</clipPath>
</defs>
</svg>
