<svg width="214" height="60" viewBox="0 0 214 60" fill="none" xmlns="http://www.w3.org/2000/svg">
<mask id="mask0_1_4586" style="mask-type:luminance" maskUnits="userSpaceOnUse" x="-1" y="0" width="61" height="60">
<path d="M-0.000839233 29.9862C-0.000839233 46.546 13.4143 59.9724 29.9604 59.9724C46.5064 59.9724 59.9216 46.546 59.9216 29.9862C59.9216 13.4263 46.5064 0 29.9604 0C13.4143 0 -0.000839233 13.4263 -0.000839233 29.9862Z" fill="white"/>
</mask>
<g mask="url(#mask0_1_4586)">
<mask id="mask1_1_4586" style="mask-type:luminance" maskUnits="userSpaceOnUse" x="-30" y="-30" width="120" height="120">
<path d="M29.959 -29.9847L-29.9624 29.9865L29.959 89.9578L89.8803 29.9865L29.959 -29.9847Z" fill="white"/>
</mask>
<g mask="url(#mask1_1_4586)">
<path d="M48.2289 -29.9865L-29.9624 48.27V-29.9865H48.2289Z" fill="#A5B0FF"/>
<path d="M48.7195 -29.9865L-29.9624 48.761V48.27L48.2289 -29.9865H48.7195Z" fill="#A5B0FF"/>
<path d="M49.2101 -29.9865L-29.9624 49.252V48.761L48.7195 -29.9865H49.2101Z" fill="#A4B0FE"/>
<path d="M49.7008 -29.9865L-29.9624 49.743V49.252L49.2101 -29.9865H49.7008Z" fill="#A3B1FE"/>
<path d="M50.1914 -29.9865L-29.9624 50.2341V49.743L49.7008 -29.9865H50.1914Z" fill="#A2B1FD"/>
<path d="M50.6782 -29.9865L-29.9624 50.7213V50.2341L50.1914 -29.9865H50.6782Z" fill="#A1B1FD"/>
<path d="M51.1689 -29.9865L-29.9624 51.2124V50.7214L50.6782 -29.9865H51.1689Z" fill="#A0B1FC"/>
<path d="M51.6595 -29.9865L-29.9624 51.7034V51.2124L51.1689 -29.9865H51.6595Z" fill="#9FB2FB"/>
<path d="M52.1501 -29.9865L-29.9624 52.1944V51.7034L51.6595 -29.9865H52.1501Z" fill="#9EB2FB"/>
<path d="M52.6407 -29.9865L-29.9624 52.6854V52.1944L52.1501 -29.9865H52.6407Z" fill="#9DB2FA"/>
<path d="M53.1313 -29.9865L-29.9624 53.1765V52.6854L52.6407 -29.9865H53.1313Z" fill="#9CB2F9"/>
<path d="M53.6182 -29.9865L-29.9624 53.6637V53.1765L53.1313 -29.9865H53.6182Z" fill="#9BB3F9"/>
<path d="M54.1088 -29.9865L-29.9624 54.1548V53.6637L53.6182 -29.9865H54.1088Z" fill="#9AB3F8"/>
<path d="M54.5994 -29.9865L-29.9624 54.6458V54.1548L54.1088 -29.9865H54.5994Z" fill="#99B3F8"/>
<path d="M55.09 -29.9865L-29.9624 55.1368V54.6458L54.5994 -29.9865H55.09Z" fill="#98B4F7"/>
<path d="M55.5807 -29.9865L-29.9624 55.6278V55.1368L55.09 -29.9865H55.5807Z" fill="#97B4F6"/>
<path d="M56.0713 -29.9865L-29.9624 56.1189V55.6278L55.5806 -29.9865H56.0713Z" fill="#96B4F6"/>
<path d="M56.5619 -29.9865L-29.9624 56.6099V56.1189L56.0713 -29.9865H56.5619Z" fill="#95B4F5"/>
<path d="M57.0487 -29.9865L-29.9624 57.0971V56.6099L56.5619 -29.9865H57.0487Z" fill="#94B5F4"/>
<path d="M57.5393 -29.9865L-29.9624 57.5882V57.0971L57.0487 -29.9865H57.5393Z" fill="#93B5F4"/>
<path d="M58.03 -29.9865L-29.9624 58.0792V57.5882L57.5394 -29.9865H58.03Z" fill="#92B5F3"/>
<path d="M58.5206 -29.9865L-29.9624 58.5702V58.0792L58.03 -29.9865H58.5206Z" fill="#91B5F3"/>
<path d="M59.0112 -29.9865L-29.9624 59.0612V58.5702L58.5206 -29.9865H59.0112Z" fill="#90B6F2"/>
<path d="M59.5018 -29.9865L-29.9624 59.5523V59.0612L59.0112 -29.9865H59.5018Z" fill="#8FB6F1"/>
<path d="M59.9924 -29.9865L-29.9624 60.0433V59.5523L59.5018 -29.9865H59.9924Z" fill="#8EB6F1"/>
<path d="M60.4793 -29.9865L-29.9624 60.5306V60.0433L59.9924 -29.9865H60.4793Z" fill="#8DB7F0"/>
<path d="M60.9699 -29.9865L-29.9624 61.0216V60.5306L60.4793 -29.9865H60.9699Z" fill="#8CB7EF"/>
<path d="M61.4605 -29.9865L-29.9624 61.5126V61.0216L60.9699 -29.9865H61.4605Z" fill="#8BB7EF"/>
<path d="M61.9511 -29.9865L-29.9624 62.0036V61.5126L61.4605 -29.9865H61.9511Z" fill="#8AB7EE"/>
<path d="M62.4417 -29.9865L-29.9624 62.4947V62.0036L61.9511 -29.9865H62.4417Z" fill="#89B8EE"/>
<path d="M62.9324 -29.9865L-29.9624 62.9857V62.4947L62.4417 -29.9865H62.9324Z" fill="#88B8ED"/>
<path d="M63.423 -29.9865L-29.9624 63.4767V62.9857L62.9324 -29.9865H63.423Z" fill="#87B8EC"/>
<path d="M63.9099 -29.9865L-29.9624 63.964V63.4767L63.423 -29.9865H63.9099Z" fill="#86B8EC"/>
<path d="M64.4005 -29.9865L-29.9624 64.455V63.964L63.9099 -29.9865H64.4005Z" fill="#85B9EB"/>
<path d="M64.8911 -29.9865L-29.9624 64.946V64.455L64.4005 -29.9865H64.8911Z" fill="#84B9EB"/>
<path d="M65.3817 -29.9865L-29.9624 65.4371V64.9461L64.8911 -29.9865H65.3817Z" fill="#83B9EA"/>
<path d="M65.8723 -29.9865L-29.9624 65.9281V65.4371L65.3817 -29.9865H65.8723Z" fill="#82BAE9"/>
<path d="M66.3629 -29.9865L-29.9624 66.4191V65.9281L65.8723 -29.9865H66.3629Z" fill="#81BAE9"/>
<path d="M66.8498 -29.9865L-29.9624 66.9064V66.4191L66.363 -29.9865H66.8498Z" fill="#80BAE8"/>
<path d="M67.3404 -29.9865L-29.9624 67.3974V66.9064L66.8498 -29.9865H67.3404Z" fill="#7FBAE7"/>
<path d="M67.831 -29.9865L-29.9624 67.8884V67.3974L67.3404 -29.9865H67.831Z" fill="#7EBBE7"/>
<path d="M68.3216 -29.9865L-29.9624 68.3794V67.8884L67.831 -29.9865H68.3216Z" fill="#7DBBE6"/>
<path d="M68.8123 -29.9865L-29.9624 68.8705V68.3794L68.3216 -29.9865H68.8123Z" fill="#7CBBE6"/>
<path d="M69.3029 -29.9865L-29.9624 69.3615V68.8705L68.8123 -29.9865H69.3029Z" fill="#7BBBE5"/>
<path d="M69.7935 -29.9865L-29.9624 69.8525V69.3615L69.3029 -29.9865H69.7935Z" fill="#7ABCE4"/>
<path d="M70.2804 -29.9865L-29.9624 70.3398V69.8525L69.7935 -29.9865H70.2804Z" fill="#79BCE4"/>
<path d="M70.771 -29.9865L-29.9624 70.8308V70.3398L70.2804 -29.9865H70.771Z" fill="#78BCE3"/>
<path d="M71.2616 -29.9865L-29.9624 71.3218V70.8308L70.771 -29.9865H71.2616Z" fill="#77BDE2"/>
<path d="M71.7522 -29.9865L-29.9624 71.8129V71.3218L71.2616 -29.9865H71.7522Z" fill="#76BDE2"/>
<path d="M72.2428 -29.9865L-29.9624 72.3039V71.8129L71.7522 -29.9865H72.2428Z" fill="#75BDE1"/>
<path d="M72.7334 -29.9865L-29.9624 72.7949V72.3039L72.2428 -29.9865H72.7334Z" fill="#74BDE1"/>
<path d="M73.2241 -29.9865L-29.9624 73.2859V72.7949L72.7334 -29.9865H73.2241Z" fill="#73BEE0"/>
<path d="M73.7109 -29.9865L-29.9624 73.7732V73.2859L73.224 -29.9865H73.7109Z" fill="#72BEDF"/>
<path d="M74.2015 -29.9865L-29.9624 74.2642V73.7732L73.7109 -29.9865H74.2015Z" fill="#71BEDF"/>
<path d="M74.6921 -29.9865L-29.9624 74.7553V74.2642L74.2015 -29.9865H74.6921Z" fill="#70BFDE"/>
<path d="M75.1828 -29.9865L-29.9624 75.2463V74.7553L74.6921 -29.9865H75.1828Z" fill="#6FBFDD"/>
<path d="M75.6734 -29.9865L-29.9624 75.7373V75.2463L75.1828 -29.9865H75.6734Z" fill="#6EBFDD"/>
<path d="M76.164 -29.9865L-29.9624 76.2283V75.7373L75.6734 -29.9865H76.164Z" fill="#6DBFDC"/>
<path d="M76.6546 -29.9865L-29.9624 76.7193V76.2283L76.164 -29.9865H76.6546Z" fill="#6CC0DC"/>
<path d="M77.1415 -29.9865L-29.9624 77.2066V76.7193L76.6546 -29.9865H77.1415Z" fill="#6BC0DB"/>
<path d="M77.6321 -29.9865L-29.9624 77.6977V77.2066L77.1415 -29.9865H77.6321Z" fill="#6AC0DA"/>
<path d="M78.1227 -29.9865L-29.9624 78.1887V77.6977L77.6321 -29.9865H78.1227Z" fill="#69C0DA"/>
<path d="M78.6133 -29.9865L-29.9624 78.6797V78.1887L78.1227 -29.9865H78.6133Z" fill="#68C1D9"/>
<path d="M79.1039 -29.9865L-29.9624 79.1707V78.6797L78.6133 -29.9865H79.1039Z" fill="#67C1D8"/>
<path d="M79.5945 -29.9865L-29.9624 79.6617V79.1707L79.1039 -29.9865H79.5945Z" fill="#66C1D8"/>
<path d="M80.0814 -29.9865L-29.9624 80.149V79.6617L79.5946 -29.9865H80.0814Z" fill="#65C2D7"/>
<path d="M80.5721 -29.9865L-29.9624 80.6401V80.149L80.0814 -29.9865H80.5721Z" fill="#64C2D7"/>
<path d="M81.0627 -29.9865L-29.9624 81.1311V80.6401L80.5721 -29.9865H81.0627Z" fill="#63C2D6"/>
<path d="M81.5533 -29.9865L-29.9624 81.6221V81.1311L81.0627 -29.9865H81.5533Z" fill="#62C2D5"/>
<path d="M82.0439 -29.9865L-29.9624 82.1131V81.6221L81.5533 -29.9865H82.0439Z" fill="#61C3D5"/>
<path d="M82.5345 -29.9865L-29.9624 82.6041V82.1131L82.0439 -29.9865H82.5345Z" fill="#60C3D4"/>
<path d="M83.0251 -29.9865L-29.9624 83.0952V82.6041L82.5345 -29.9865H83.0251Z" fill="#5FC3D4"/>
<path d="M83.512 -29.9865L-29.9624 83.5824V83.0952L83.0251 -29.9865H83.512Z" fill="#5EC3D3"/>
<path d="M84.0026 -29.9865L-29.9624 84.0735V83.5824L83.512 -29.9865H84.0026Z" fill="#5DC4D2"/>
<path d="M84.4932 -29.9865L-29.9624 84.5645V84.0735L84.0026 -29.9865H84.4932Z" fill="#5CC4D2"/>
<path d="M84.9838 -29.9865L-29.9624 85.0555V84.5645L84.4932 -29.9865H84.9838Z" fill="#5BC4D1"/>
<path d="M85.4745 -29.9865L-29.9624 85.5466V85.0555L84.9838 -29.9865H85.4745Z" fill="#5AC5D0"/>
<path d="M85.9651 -29.9865L-29.9624 86.0376V85.5466L85.4745 -29.9865H85.9651Z" fill="#59C5D0"/>
<path d="M86.4557 -29.9865L-29.9624 86.5286V86.0376L85.9651 -29.9865H86.4557Z" fill="#58C5CF"/>
<path d="M86.9425 -29.9865L-29.9624 87.0159V86.5286L86.4557 -29.9865H86.9425Z" fill="#57C5CF"/>
<path d="M87.4332 -29.9865L-29.9624 87.5069V87.0159L86.9425 -29.9865H87.4332Z" fill="#56C6CE"/>
<path d="M87.9238 -29.9865L-29.9624 87.9979V87.5069L87.4332 -29.9865H87.9238Z" fill="#55C6CD"/>
<path d="M88.4144 -29.9865L-29.9624 88.4889V87.9979L87.9238 -29.9865H88.4144Z" fill="#54C6CD"/>
<path d="M88.905 -29.9865L-29.9624 88.98V88.4889L88.4144 -29.9865H88.905Z" fill="#53C6CC"/>
<path d="M89.3956 -29.9865L-29.9624 89.471V88.98L88.905 -29.9865H89.3956Z" fill="#52C7CB"/>
<path d="M89.8825 -29.9865L-29.9624 89.9582V89.471L89.3956 -29.9865H89.8825Z" fill="#51C7CB"/>
<path d="M89.8825 -29.4954L-29.4717 89.9582H-29.9624L89.8825 -29.9865V-29.4954Z" fill="#50C7CA"/>
<path d="M89.8827 -29.0042L-28.9809 89.9585H-29.4715L89.8827 -29.4952V-29.0042Z" fill="#4FC8CA"/>
<path d="M89.883 -28.5129L-28.49 89.9587H-28.9806L89.883 -29.0039V-28.5129Z" fill="#4EC8C9"/>
<path d="M89.8832 -28.022L-27.9991 89.9586H-28.4898L89.8832 -28.5131V-28.022Z" fill="#4DC8C8"/>
<path d="M89.8827 -27.5308L-27.5091 89.9588H-27.9997L89.8827 -28.0218V-27.5308Z" fill="#4CC8C8"/>
<path d="M89.8829 -27.0399L-27.0182 89.9587H-27.5088L89.8829 -27.5309V-27.0399Z" fill="#4BC9C7"/>
<path d="M89.8832 -26.5491L-26.5274 89.9585H-27.018L89.8832 -27.0401V-26.5491Z" fill="#4AC9C6"/>
<path d="M89.8834 -26.0615L-26.0403 89.9587H-26.5271L89.8834 -26.5488V-26.0615Z" fill="#49C9C6"/>
<path d="M89.8834 -25.5705L-25.5497 89.9587H-26.0403L89.8834 -26.0615V-25.5705Z" fill="#48C9C5"/>
<path d="M89.8828 -25.0797L-25.0596 89.9585H-25.5502L89.8828 -25.5707V-25.0797Z" fill="#47CAC5"/>
<path d="M89.8839 -24.5884L-24.5679 89.9588H-25.0586L89.8839 -25.0794V-24.5884Z" fill="#46CAC4"/>
<path d="M89.8825 -24.0975L-24.0787 89.9587H-24.5693L89.8825 -24.5886V-24.0975Z" fill="#44CAC3"/>
<path d="M89.8836 -23.6067L-23.587 89.9585H-24.0777L89.8836 -24.0977V-23.6067Z" fill="#43CBC3"/>
<path d="M89.883 -23.1192L-23.1007 89.9587H-23.5876L89.883 -23.6064V-23.1192Z" fill="#42CBC2"/>
<path d="M89.883 -22.6281L-22.6101 89.9587H-23.1007L89.883 -23.1192V-22.6281Z" fill="#41CBC1"/>
<path d="M89.8832 -22.1373L-22.1193 89.9586H-22.6099L89.8832 -22.6283V-22.1373Z" fill="#40CBC1"/>
<path d="M89.8827 -21.646L-21.6292 89.9588H-22.1198L89.8827 -22.137V-21.646Z" fill="#3FCCC0"/>
<path d="M89.8837 -21.1551L-21.1375 89.9586H-21.6282L89.8837 -21.6462V-21.1551Z" fill="#3ECCC0"/>
<path d="M89.8832 -20.6643L-20.6475 89.9585H-21.1381L89.8832 -21.1553V-20.6643Z" fill="#3DCCBF"/>
<path d="M89.8826 -20.173L-20.1574 89.9587H-20.6481L89.8826 -20.664V-20.173Z" fill="#3CCDBE"/>
<path d="M89.8829 -19.6859L-19.6703 89.9586H-20.1572L89.8829 -20.1732V-19.6859Z" fill="#3BCDBE"/>
<path d="M89.8836 -19.1949L-19.1789 89.9585H-19.6695L89.8836 -19.6859V-19.1949Z" fill="#3ACDBD"/>
<path d="M89.8822 -18.7036L-18.6897 89.9588H-19.1803L89.8822 -19.1946V-18.7036Z" fill="#39CDBC"/>
<path d="M89.8833 -18.2128L-18.198 89.9586H-18.6886L89.8833 -18.7038V-18.2128Z" fill="#38CEBC"/>
<path d="M89.8827 -17.7219L-17.708 89.9585H-18.1986L89.8827 -18.2129V-17.7219Z" fill="#37CEBB"/>
<path d="M89.8838 -17.2306L-17.2163 89.9587H-17.7069L89.8838 -17.7216V-17.2306Z" fill="#36CEBB"/>
<path d="M89.8824 -16.7398L-16.727 89.9586H-17.2177L89.8824 -17.2308V-16.7398Z" fill="#35CEBA"/>
<path d="M89.8835 -16.2522L-16.2391 89.9588H-16.726L89.8835 -16.7395V-16.2522Z" fill="#34CFB9"/>
<path d="M89.8835 -15.7612L-15.7485 89.9588H-16.2391L89.8835 -16.2522V-15.7612Z" fill="#33CFB9"/>
<path d="M89.8829 -15.2704L-15.2585 89.9586H-15.7491L89.8829 -15.7614V-15.2704Z" fill="#32CFB8"/>
<path d="M89.8831 -14.7791L-14.7676 89.9589H-15.2582L89.8831 -15.2701V-14.7791Z" fill="#31D0B8"/>
<path d="M89.8826 -14.2882L-14.2776 89.9587H-14.7682L89.8826 -14.7793V-14.2882Z" fill="#30D0B7"/>
<path d="M89.8836 -13.7974L-13.7859 89.9585H-14.2765L89.8836 -14.2884V-13.7974Z" fill="#2FD0B6"/>
<path d="M89.8831 -13.3061L-13.2958 89.9588H-13.7865L89.8831 -13.7971V-13.3061Z" fill="#2ED0B6"/>
<path d="M89.8833 -12.819L-12.8087 89.9587H-13.2956L89.8833 -13.3063V-12.819Z" fill="#2DD1B5"/>
<path d="M89.8833 -12.328L-12.3181 89.9586H-12.8087L89.8833 -12.819V-12.328Z" fill="#2CD1B4"/>
<path d="M89.8835 -11.8371L-11.8273 89.9585H-12.3179L89.8835 -12.3281V-11.8371Z" fill="#2BD1B4"/>
<path d="M89.883 -11.3458L-11.3372 89.9587H-11.8278L89.883 -11.8369V-11.3458Z" fill="#2AD1B3"/>
<path d="M89.8832 -10.855L-10.8464 89.9585H-11.337L89.8832 -11.346V-10.855Z" fill="#29D2B3"/>
<path d="M89.8835 -10.3637L-10.3555 89.9588H-10.8461L89.8835 -10.8547V-10.3637Z" fill="#28D2B2"/>
<path d="M89.8837 -9.87659L-9.86838 89.9586H-10.3553L89.8837 -10.3639V-9.87659Z" fill="#27D2B1"/>
<path d="M89.8829 -9.38559L-9.3786 89.9586H-9.86922L89.8829 -9.87661V-9.38559Z" fill="#26D3B1"/>
<path d="M89.8823 -8.89433L-8.88854 89.9588H-9.37915L89.8823 -9.38535V-8.89433Z" fill="#25D3B0"/>
<path d="M89.8834 -8.40345L-8.39688 89.9587H-8.8875L89.8834 -8.89447V-8.40345Z" fill="#24D3AF"/>
<path d="M89.8828 -7.91258L-7.90682 89.9585H-8.39743L89.8828 -8.40361V-7.91258Z" fill="#23D3AF"/>
<path d="M89.8831 -7.42132L-7.41597 89.9588H-7.90659L89.8831 -7.91234V-7.42132Z" fill="#22D4AE"/>
<path d="M89.8825 -6.93046L-6.92592 89.9586H-7.41653L89.8825 -7.42148V-6.93046Z" fill="#21D4AE"/>
<path d="M89.8828 -6.44334L-6.43879 89.9585H-6.92566L89.8828 -6.93062V-6.44334Z" fill="#20D4AD"/>
<path d="M89.8827 -5.95193L-5.94821 89.9589H-6.43883L89.8827 -6.44295V-5.95193Z" fill="#1FD4AC"/>
<path d="M89.883 -5.46106L-5.45735 89.9587H-5.94797L89.883 -5.95209V-5.46106Z" fill="#1ED5AC"/>
<path d="M89.8832 -4.9702L-4.96648 89.9585H-5.45709L89.8832 -5.46123V-4.9702Z" fill="#1DD5AB"/>
<path d="M89.8835 -4.47894L-4.47563 89.9588H-4.96625L89.8835 -4.96996V-4.47894Z" fill="#1CD5AA"/>
<path d="M89.8829 -3.98806L-3.98557 89.9586H-4.47618L89.8829 -4.47909V-3.98806Z" fill="#1BD6AA"/>
<path d="M89.8831 -3.4972L-3.49472 89.9585H-3.98534L89.8831 -3.98822V-3.4972Z" fill="#1AD6A9"/>
<path d="M89.8834 -3.00968L-3.00759 89.9587H-3.49446L89.8834 -3.49696V-3.00968Z" fill="#19D6A9"/>
<path d="M89.8826 -2.51867L-2.51782 89.9587H-3.00844L89.8826 -3.0097V-2.51867Z" fill="#18D6A8"/>
<path d="M89.8828 -2.02781L-2.02693 89.9585H-2.51755L89.8828 -2.51884V-2.02781Z" fill="#17D7A7"/>
<path d="M89.8831 -1.53654L-1.53607 89.9588H-2.02669L89.8831 -2.02757V-1.53654Z" fill="#16D7A7"/>
<path d="M89.8833 -1.04568L-1.04524 89.9586H-1.53586L89.8833 -1.53671V-1.04568Z" fill="#15D7A6"/>
<path d="M89.8836 -0.554815L-0.554369 89.9585H-1.04498L89.8836 -1.04584V-0.554815Z" fill="#14D8A5"/>
<path d="M89.883 -0.0635398L-0.0643148 89.9587H-0.554932L89.883 -0.554565V-0.0635398Z" fill="#13D8A5"/>
<path d="M89.8832 0.423576L0.422796 89.9586H-0.0640717L89.8832 -0.0636978V0.423576Z" fill="#12D8A4"/>
<path d="M89.8832 0.914585L0.913392 89.9585H0.422775L89.8832 0.423559V0.914585Z" fill="#11D8A4"/>
<path d="M89.8834 1.40584L1.40425 89.9588H0.913635L89.8834 0.914822V1.40584Z" fill="#10D9A3"/>
<path d="M89.8829 1.89672L1.8943 89.9586H1.40369L89.8829 1.40569V1.89672Z" fill="#0FD9A2"/>
<path d="M89.8831 2.38757L2.38518 89.9585H1.89456L89.8831 1.89655V2.38757Z" fill="#0ED9A2"/>
<path d="M89.8834 2.87884L2.87601 89.9587H2.38539L89.8834 2.38782V2.87884Z" fill="#0DD9A1"/>
<path d="M89.8836 3.36596L3.36312 89.9585H2.87625L89.8836 2.87868V3.36596Z" fill="#0CDAA0"/>
<path d="M89.8828 3.85697L3.85295 89.9585H3.36234L89.8828 3.36594V3.85697Z" fill="#0BDAA0"/>
<path d="M89.883 4.34824L4.34378 89.9588H3.85316L89.883 3.85722V4.34824Z" fill="#0ADA9F"/>
<path d="M89.8833 4.83909L4.83466 89.9586H4.34404L89.8833 4.34807V4.83909Z" fill="#09DB9F"/>
<path d="M89.8827 5.32997L5.32471 89.9585H4.83409L89.8827 4.83894V5.32997Z" fill="#08DB9E"/>
<path d="M89.883 5.82123L5.81557 89.9587H5.32495L89.883 5.33021V5.82123Z" fill="#07DB9D"/>
<path d="M89.8832 6.3121L6.30643 89.9585H5.81581L89.8832 5.82108V6.3121Z" fill="#06DB9D"/>
<path d="M89.8835 6.79962L6.79354 89.9588H6.30667L89.8835 6.31234V6.79962Z" fill="#05DC9C"/>
<path d="M89.8826 7.29062L7.28332 89.9588H6.79271L89.8826 6.79959V7.29062Z" fill="#04DC9B"/>
<path d="M89.8829 7.78149L7.77419 89.9586H7.28357L89.8829 7.29046V7.78149Z" fill="#03DC9B"/>
<path d="M89.8831 8.27275L8.26506 89.9589H7.77444L89.8831 7.78173V8.27275Z" fill="#02DC9A"/>
<path d="M89.8834 8.76363L8.75592 89.9587H8.2653L89.8834 8.27261V8.76363Z" fill="#01DD9A"/>
<path d="M89.8828 9.25448L9.24599 89.9585H8.75537L89.8828 8.76346V9.25448Z" fill="#00DD99"/>
<path d="M9.2462 89.9588L89.883 9.25474V89.9588H9.2462Z" fill="#00DD99"/>
</g>
</g>
<path d="M47.5848 23.8391L43.8733 17.4071L29.9601 25.4471L16.0468 17.4071L12.3354 23.8391L22.5372 29.7352L12.3354 35.6274L16.0468 42.0595L26.2486 36.1672V47.9555H33.6715V36.1672L43.8733 42.0595L47.5848 35.6274L37.383 29.7352L47.5848 23.8391Z" fill="white"/>
<path d="M29.9112 21.2676C33.1545 21.2676 35.7874 18.6364 35.7874 15.3866C35.7874 12.1368 33.1583 9.50556 29.9112 9.50556C26.6642 9.50556 24.0351 12.1368 24.0351 15.3866C24.0351 18.6364 26.6642 21.2676 29.9112 21.2676Z" fill="white"/>
<path d="M91.3697 39.7913L91.3435 26.7736L84.8943 37.5461H83.2689L76.8198 26.9422V39.7913H73.3443V20.1504H76.3441L84.1378 33.1681L91.7891 20.1504H94.789L94.819 39.7913H91.3697Z" fill="#878787"/>
<path d="M113.795 33.4193H102.05C102.256 34.525 102.792 35.3984 103.661 36.0431C104.53 36.6878 105.608 37.0101 106.9 37.0101C108.544 37.0101 109.9 36.4666 110.964 35.3834L112.844 37.5424C112.17 38.3483 111.32 38.9555 110.293 39.3678C109.267 39.7801 108.106 39.9862 106.818 39.9862C105.174 39.9862 103.724 39.6602 102.473 39.0042C101.223 38.3483 100.253 37.4374 99.571 36.268C98.8894 35.0985 98.5486 33.7754 98.5486 32.2985C98.5486 30.8217 98.8819 29.5248 99.5448 28.3554C100.208 27.1859 101.129 26.2751 102.305 25.6191C103.481 24.9632 104.81 24.6371 106.286 24.6371C107.762 24.6371 109.046 24.9594 110.196 25.6041C111.346 26.2488 112.241 27.1559 112.889 28.3254C113.533 29.4948 113.855 30.848 113.855 32.381C113.855 32.6246 113.836 32.9695 113.799 33.4193H113.795ZM103.436 28.4416C102.661 29.105 102.189 29.9896 102.02 31.0916H110.514C110.364 30.0084 109.908 29.1275 109.14 28.4528C108.372 27.7781 107.421 27.4445 106.282 27.4445C105.144 27.4445 104.211 27.7781 103.436 28.4416Z" fill="#878787"/>
<path d="M131.877 18.9735V39.7914H128.514V37.8535C127.933 38.5657 127.218 39.098 126.368 39.4541C125.518 39.8101 124.578 39.9863 123.551 39.9863C122.113 39.9863 120.817 39.6677 119.668 39.0342C118.518 38.397 117.615 37.4975 116.964 36.328C116.308 35.1585 115.982 33.8166 115.982 32.3023C115.982 30.788 116.308 29.4499 116.964 28.2917C117.619 27.1335 118.518 26.2339 119.668 25.5967C120.817 24.9595 122.109 24.6446 123.551 24.6446C124.54 24.6446 125.446 24.8133 126.27 25.1506C127.094 25.488 127.795 25.994 128.371 26.6649V18.9772H131.877V18.9735ZM126.24 36.4105C126.914 36.0281 127.446 35.4809 127.84 34.7687C128.233 34.0565 128.428 33.2357 128.428 32.2986C128.428 31.3615 128.233 30.5407 127.84 29.8285C127.446 29.1163 126.914 28.5691 126.24 28.1867C125.566 27.8044 124.81 27.6133 123.971 27.6133C123.132 27.6133 122.372 27.8044 121.701 28.1867C121.027 28.5691 120.495 29.1163 120.102 29.8285C119.709 30.5407 119.514 31.3615 119.514 32.2986C119.514 33.2357 119.709 34.0565 120.102 34.7687C120.495 35.4809 121.027 36.0281 121.701 36.4105C122.375 36.7928 123.132 36.9839 123.971 36.9839C124.81 36.9839 125.57 36.7928 126.24 36.4105Z" fill="#878787"/>
<path d="M136.641 21.7361C136.211 21.335 135.997 20.8328 135.997 20.2368C135.997 19.6408 136.211 19.1385 136.641 18.7375C137.072 18.3364 137.604 18.134 138.24 18.134C138.877 18.134 139.409 18.3252 139.84 18.7075C140.27 19.0898 140.484 19.5733 140.484 20.1506C140.484 20.769 140.274 21.2863 139.855 21.7061C139.435 22.1259 138.896 22.3358 138.244 22.3358C137.592 22.3358 137.076 22.1334 136.645 21.7323L136.641 21.7361ZM136.473 24.8059H139.978V39.7878H136.473V24.8059Z" fill="#878787"/>
<path d="M162.936 39.7913L162.909 26.7736L156.46 37.5461H154.835L148.386 26.9422V39.7913H144.91V20.1504H147.91L155.704 33.1681L163.355 20.1504H166.355L166.385 39.7913H162.936Z" fill="#878787"/>
<path d="M182.126 26.2226C183.294 27.2796 183.879 28.8726 183.879 31.0054V39.7876H180.572V37.9622C180.141 38.6182 179.53 39.1167 178.736 39.4615C177.943 39.8064 176.984 39.9788 175.864 39.9788C174.744 39.9788 173.763 39.7876 172.92 39.4053C172.078 39.023 171.43 38.4907 170.973 37.8048C170.516 37.1226 170.287 36.3504 170.287 35.4883C170.287 34.1427 170.786 33.0632 171.785 32.2461C172.785 31.4327 174.358 31.0242 176.508 31.0242H180.377V30.7993C180.377 29.7535 180.062 28.9476 179.437 28.3854C178.811 27.8231 177.883 27.542 176.647 27.542C175.804 27.542 174.98 27.6732 174.167 27.9356C173.355 28.198 172.669 28.5615 172.108 29.0301L170.733 26.4775C171.52 25.8778 172.463 25.4205 173.564 25.1019C174.665 24.7833 175.834 24.6259 177.07 24.6259C179.276 24.6259 180.961 25.1544 182.13 26.2114L182.126 26.2226ZM178.931 36.8302C179.613 36.4292 180.096 35.8519 180.373 35.106V33.3668H176.755C174.737 33.3668 173.729 34.0303 173.729 35.3572C173.729 35.9944 173.98 36.4966 174.486 36.8715C174.991 37.2463 175.692 37.4337 176.587 37.4337C177.482 37.4337 178.246 37.2313 178.927 36.8302H178.931Z" fill="#878787"/>
<path d="M197.361 38.9783C196.949 39.3156 196.451 39.5667 195.863 39.7354C195.275 39.9041 194.653 39.9866 193.998 39.9866C192.354 39.9866 191.084 39.5555 190.185 38.6972C189.287 37.8388 188.841 36.5831 188.841 34.9376V27.726H186.373V24.9185H188.841V21.4963H192.346V24.9185H196.354V27.726H192.346V34.8514C192.346 35.5823 192.522 36.1371 192.878 36.5194C193.234 36.9017 193.747 37.0929 194.421 37.0929C195.208 37.0929 195.859 36.8867 196.384 36.4744L197.365 38.9708L197.361 38.9783Z" fill="#878787"/>
<path d="M213.761 33.4193H202.016C202.222 34.525 202.758 35.3984 203.627 36.0431C204.496 36.6878 205.574 37.0101 206.866 37.0101C208.51 37.0101 209.866 36.4666 210.93 35.3834L212.81 37.5424C212.136 38.3483 211.285 38.9555 210.259 39.3678C209.233 39.7801 208.072 39.9862 206.784 39.9862C205.14 39.9862 203.69 39.6602 202.439 39.0042C201.189 38.3483 200.219 37.4374 199.537 36.268C198.855 35.0985 198.515 33.7754 198.515 32.2985C198.515 30.8217 198.848 29.5248 199.511 28.3554C200.174 27.1859 201.095 26.2751 202.271 25.6191C203.447 24.9632 204.776 24.6371 206.252 24.6371C207.728 24.6371 209.012 24.9594 210.162 25.6041C211.312 26.2488 212.207 27.1559 212.855 28.3254C213.499 29.4948 213.821 30.848 213.821 32.381C213.821 32.6246 213.802 32.9695 213.765 33.4193H213.761ZM203.402 28.4416C202.627 29.105 202.155 29.9896 201.986 31.0916H210.48C210.33 30.0084 209.874 29.1275 209.106 28.4528C208.338 27.7781 207.387 27.4445 206.248 27.4445C205.11 27.4445 204.177 27.7781 203.402 28.4416Z" fill="#878787"/>
</svg>
