<svg width="123" height="147" viewBox="0 0 123 147" fill="none" xmlns="http://www.w3.org/2000/svg">
<g clip-path="url(#clip0_37_1365)">
<path d="M92.6936 124.194C92.9969 123.019 93.3152 121.85 93.614 120.673C93.6916 120.366 93.7483 120.049 93.7702 119.733C93.9045 117.571 94.0011 115.413 93.7257 113.25C93.4163 110.834 92.8132 108.518 91.6893 106.351C91.4263 105.847 91.2267 105.286 90.8753 104.848C89.3585 102.955 87.82 101.077 86.0199 99.4357C83.9402 97.5389 81.6869 95.8779 79.1931 94.5692C77.9871 93.937 76.7251 93.4099 75.469 92.8871C74.016 92.2805 72.5442 91.7122 71.026 91.2813C70.8984 91.2428 70.7758 91.1961 70.6509 91.1486C70.6584 91.0752 70.6533 91.0273 70.6693 90.9906C71.309 89.5818 71.9218 88.1648 72.593 86.7729C73.8623 84.1426 75.474 81.7206 77.2327 79.3943C79.0229 77.0285 80.7714 74.6307 82.2168 72.056C82.3355 72.0186 82.4983 72.0213 82.5714 71.9407C82.9863 71.4799 83.4117 71.0246 83.6257 70.4201C83.757 70.0495 83.8145 69.7128 83.4246 69.4512C83.4783 69.338 83.5237 69.2442 83.569 69.1505C83.7638 68.7233 83.9988 68.3083 84.1488 67.8676C84.7455 66.0992 85.3192 64.3262 85.8913 62.5503C86.183 61.6396 86.4261 60.7118 86.7351 59.8088C87.254 58.2903 87.8072 56.7797 88.3507 55.2687C88.7463 54.1672 89.1937 53.0886 89.767 52.0699C91.4595 49.0643 93.3439 46.1996 95.7612 43.7056C98.0046 41.3911 99.5485 38.6434 100.555 35.5896C101.055 34.068 101.479 32.5256 102.016 31.0126C102.152 30.6241 102.162 30.1801 102.186 29.7578C102.25 28.7199 102.085 27.6982 101.863 26.6914C101.581 25.4024 101.276 24.114 100.411 23.0549C100.067 22.6314 99.7577 22.1767 99.3724 21.7944C97.8893 20.3241 96.1895 19.1352 94.3988 18.0776C93.6675 17.6447 92.8643 17.361 92.0737 17.0517C91.2479 16.7295 90.4065 16.5075 89.5312 16.3901C89.4444 16.3786 89.3542 16.3538 89.2761 16.3132C88.7351 16.0426 88.2032 15.7577 87.6602 15.4938C87.1285 15.2407 86.5637 15.1461 85.9798 15.285C85.7462 15.3391 85.5211 15.4299 85.2704 15.5081C85.2089 15.4286 85.143 15.3476 85.08 15.2652C84.7155 14.7817 84.2852 14.3785 83.6663 14.2773C82.9513 14.1545 82.2315 14.0717 81.5141 13.9653C81.4138 13.9497 81.3065 13.9247 81.2186 13.8762C80.0871 13.2884 78.8509 13.0401 77.6217 12.7842C76.6984 12.5913 75.7585 12.5667 74.819 12.5568C73.1627 12.5433 71.5164 12.6426 69.8917 12.978C68.9698 13.1688 68.0771 13.4734 67.2831 13.9933C65.8698 14.9149 64.7047 16.1067 63.691 17.4442C63.2892 17.975 62.8785 18.5275 62.7618 19.1979C62.6839 19.6505 62.5019 20.0596 62.3813 20.492C62.064 21.6171 61.7109 22.7315 61.439 23.8679C61.1638 25.0155 60.9089 26.1765 60.7496 27.3444C60.494 29.2206 60.6458 31.0976 60.9009 32.9643C61.0166 33.8195 61.1905 34.668 61.2907 35.5259C61.5102 37.3647 61.5141 39.2142 61.4544 41.064C61.3947 42.9139 61.2734 44.7574 60.81 46.5612C60.6358 47.2362 60.4772 47.916 60.3052 48.5918C60.0005 49.7964 59.7451 51.0159 59.3749 52.2032C58.5789 54.7539 57.9169 57.3378 57.2319 59.9171C57.182 60.1072 57.1521 60.3033 57.1223 60.4994C57.0755 60.8246 57.0331 61.1513 56.9917 61.4586C56.4801 61.5925 56.4277 61.645 56.2947 62.1103C56.1369 62.6659 56.2403 63.222 56.2771 63.78C56.2935 64.0413 56.3871 64.2331 56.588 64.3035C56.5387 64.8477 56.4525 65.3442 56.4542 65.8404C56.4586 68.2956 56.471 70.7483 56.6498 73.1999C56.9403 77.1355 56.7189 81.0437 55.9767 84.9218C55.7543 86.0805 55.57 87.2506 55.3655 88.4146C55.2707 88.9476 55.1663 89.4801 55.0582 90.0653C54.5377 90.0182 54.0445 89.9696 53.5521 89.9261C51.4264 89.7368 49.298 89.5565 47.1718 89.3524C46.1921 89.2572 45.2109 89.1591 44.2429 88.9844C43.0066 88.7606 41.7796 88.4736 40.5547 88.1872C38.6956 87.7536 36.8409 87.2969 34.9829 86.8514C33.0906 86.398 31.2901 85.6646 29.4684 84.9932C29.4161 84.9725 29.3704 84.9295 29.2951 84.8799C29.3298 84.6999 29.3728 84.5249 29.3972 84.3467C29.4443 84.0044 29.5068 83.6594 29.5234 83.3129C29.5451 82.8604 29.5312 82.4045 29.5292 81.9497C29.5238 80.842 29.1957 79.8006 28.6132 78.8901C27.8619 77.7137 26.9214 76.6708 25.8158 75.8027C25.0379 75.1921 24.2091 74.6614 23.1867 74.546C23.0071 74.526 22.8348 74.4496 22.6557 74.4201C22.2389 74.353 21.8201 74.2438 21.4019 74.2544C20.6932 74.2727 19.9808 74.3435 19.2772 74.4341C16.87 74.741 15.0145 75.9957 13.5161 77.839C13.2797 78.1291 13.0786 78.464 12.9288 78.807C12.5411 79.696 12.1916 80.6039 11.8301 81.5033C11.6231 82.0196 11.5626 82.5605 11.5748 83.1111C11.6282 85.5493 12.4984 87.6917 13.9767 89.6073C14.0504 89.7028 14.1345 89.7965 14.2275 89.8685C15.0101 90.4635 15.7885 91.0644 16.5803 91.645C17.5618 92.3658 18.6934 92.6777 19.881 92.8283C21.1985 92.9936 22.4453 92.786 23.6215 92.1567C24.0636 91.9213 24.5285 91.7319 24.9645 91.4923C25.3313 91.2879 25.6969 91.0636 26.0228 90.8005C26.4426 90.4608 26.8234 90.0726 27.2332 89.6932C27.359 89.7458 27.5054 89.7948 27.6376 89.8664C29.197 90.7273 30.8393 91.3862 32.5446 91.893C33.6052 92.2055 34.6762 92.4919 35.7396 92.7954C37.463 93.2907 39.2303 93.5672 40.9869 93.904C42.4459 94.1828 43.9135 94.4007 45.3821 94.6238C46.624 94.8128 47.8705 94.9786 49.1204 95.1333C50.5952 95.3192 52.0811 95.3229 53.5645 95.3185C53.7398 95.3201 53.9133 95.3358 54.1177 95.3462C54.0853 95.6074 54.0655 95.8188 54.0346 96.0267C53.7938 97.6755 53.527 99.3213 53.3167 100.974C53.0393 103.125 52.8672 105.283 52.8449 107.454C52.8295 109.019 53.0774 110.586 52.8239 112.155C52.7806 112.42 52.799 112.699 52.8165 112.973C52.841 113.386 52.8024 113.765 52.5811 114.142C52.4177 114.425 52.3299 114.765 52.275 115.093C52.1053 116.077 51.9185 117.061 51.8259 118.056C51.712 119.284 51.7674 120.509 52.3146 121.658C52.3445 121.721 52.3307 121.807 52.3261 121.879C52.2349 122.918 52.3803 123.934 52.5775 124.948C52.6942 125.557 52.797 126.171 52.8702 126.787C53.0061 127.931 53.361 129.005 53.8699 130.03C54.1266 130.547 54.4022 131.05 54.6422 131.575C55.1759 132.744 55.8595 133.805 56.746 134.743C58.6616 136.771 60.858 138.41 63.3915 139.58C63.9695 139.849 64.5452 140.118 65.1402 140.339C65.4609 140.457 65.8309 140.437 66.1608 140.542C67.3933 140.94 68.6587 141.148 69.9413 141.308C71.678 141.524 73.407 141.677 75.1382 141.288C75.1955 141.276 75.2575 141.273 75.3196 141.269C76.144 141.24 76.9385 141.042 77.7288 140.826C78.0502 140.74 78.3672 140.628 78.6969 140.571C80.0693 140.336 81.3175 139.792 82.4578 139.022C85.0693 137.26 87.1933 135.01 88.8683 132.346C89.3986 131.502 89.8392 130.6 90.3475 129.74C91.0907 128.482 91.7785 127.205 92.2024 125.799C92.2483 125.647 92.3514 125.507 92.4287 125.365L92.6129 124.754C92.6362 124.563 92.643 124.362 92.6917 124.177L92.6936 124.194ZM60.1021 64.1154C60.0401 63.8111 60.1841 63.4712 60.21 63.142C60.2504 62.6195 60.164 62.1124 59.9468 61.6343C59.8917 61.5176 59.7548 61.4372 59.611 61.2987C59.7092 60.8839 59.7882 60.4194 59.9277 59.9731C60.7597 57.3111 61.6013 54.6496 62.4497 51.9901C62.6795 51.2683 62.9906 50.5686 63.1721 49.8371C63.4045 48.8964 63.5438 47.9324 63.7301 46.9827C63.816 46.552 63.9057 46.1249 64.0102 45.6974C64.2954 44.5088 64.3114 43.2977 64.3577 42.0835C64.4775 38.9089 64.2502 35.7517 63.9439 32.5976C63.7665 30.7568 63.6273 28.9105 63.7625 27.0614C63.8164 26.3403 63.9464 25.6177 64.1332 24.9171C64.4166 23.8477 64.7228 22.7754 65.1184 21.7471C65.4809 20.804 65.9486 19.8927 66.4317 19.0032C66.6283 18.6425 66.9773 18.3595 67.2847 18.0689C67.582 17.7874 67.9122 17.5427 68.2316 17.285C70.0308 15.8205 72.1092 15.1141 74.4103 15.1023C75.1615 15.0969 75.9147 15.263 76.6618 15.3686C77.2454 15.4493 77.8288 15.5471 78.411 15.6568C78.7367 15.7183 79.0567 15.8149 79.3808 15.8979C79.4234 15.9108 79.4798 15.918 79.5057 15.9454C79.7391 16.2159 79.9861 16.4736 80.192 16.7627C80.5312 17.241 80.8379 17.7461 81.1699 18.232C81.2718 18.3799 81.4217 18.4984 81.5236 18.6463C82.1228 19.5253 82.9605 19.6705 83.9248 19.4363C83.9695 19.4254 84.0105 19.4109 84.0553 19.4C84.3324 19.6227 84.5791 19.8167 84.8209 20.019C85.2977 20.4216 85.8478 20.4434 86.4036 20.2765C87.0848 20.0742 87.7803 19.881 88.4124 19.5662C88.8345 19.3566 89.2998 19.3113 89.7099 19.0931C89.7856 19.0525 89.9186 19.0731 90.0113 19.1059C90.3969 19.2441 90.7831 19.3801 91.1562 19.5439C92.07 19.9464 92.9924 20.3369 93.8847 20.7866C95.3592 21.5242 96.4583 22.6809 97.3745 24.0315C98.2783 25.3662 98.739 26.8748 99.0081 28.4356C99.105 28.9971 98.9532 29.6057 98.9006 30.1929C98.7584 31.8225 98.2506 33.3688 97.7576 34.9146C97.3407 36.2246 96.6966 37.4294 95.871 38.5234C94.6859 40.0973 93.4992 41.6684 92.2664 43.206C90.3377 45.6105 88.6073 48.1506 87.0617 50.8147C86.6997 51.4404 86.4759 52.1421 86.1868 52.8094C85.9767 53.2954 85.7817 53.7884 85.5499 54.2654C84.8866 55.6232 84.4585 57.0591 84.1214 58.525C84.0847 58.6873 84.0435 58.8482 83.9971 59.0101C83.3845 61.1229 82.7494 63.229 82.1671 65.3461C81.9522 66.1236 81.7527 66.8985 81.4324 67.637C81.3971 67.7216 81.361 67.801 81.3147 67.914C81.0473 67.7967 80.8615 67.9434 80.6779 68.0907C80.1836 68.491 79.7859 68.9595 79.6124 69.5835C79.5454 69.8221 79.4148 69.9634 79.1841 70.0648C78.8117 70.2308 78.4429 70.4175 78.0933 70.6295C76.8484 71.3895 75.5065 71.9126 74.0914 72.2087C72.189 72.6068 70.2686 72.6674 68.3661 72.1914C67.4945 71.9725 66.6919 71.5571 65.9369 71.0731C64.4195 70.1053 63.0627 68.9612 62.0261 67.4595C61.5336 66.7446 61.0582 66.0299 60.7104 65.2316C60.6747 65.1476 60.631 65.066 60.5858 64.9889C60.4185 64.7016 60.1659 64.4301 60.103 64.1206L60.1021 64.1154ZM58.0006 90.2103C58.0898 89.639 58.1562 89.1194 58.2507 88.6034C58.7616 85.7836 59.2228 82.9585 59.4902 80.1043C59.7185 77.6387 59.7293 75.1735 59.5427 72.7073C59.43 71.2108 59.3844 69.7101 59.3115 68.2109C59.308 68.1415 59.3274 68.0692 59.3439 67.9253C59.4691 68.0607 59.5534 68.1374 59.6182 68.2302C60.2973 69.1845 61.063 70.0625 61.9037 70.8775C62.9117 71.8505 64.0588 72.6457 65.273 73.3316C65.9542 73.7202 66.6653 74.0909 67.4108 74.323C68.1697 74.5592 68.9797 74.6667 69.7745 74.7354C72.4109 74.9639 74.9725 74.5985 77.4475 73.6455C77.5806 73.5929 77.7208 73.557 77.9004 73.577C77.8174 73.6984 77.7395 73.819 77.6527 73.9369C76.4347 75.5791 75.2139 77.2229 73.996 78.8651C72.556 80.8066 71.3607 82.9 70.2939 85.0614C69.475 86.7165 68.7207 88.4082 67.94 90.0821C67.9032 90.1638 67.8581 90.2405 67.8152 90.318C64.5591 89.9905 61.3129 90.0029 58.005 90.2116L58.0006 90.2103ZM57.3118 111.013C57.0844 111.386 56.8246 111.738 56.5657 112.119C56.2777 111.98 56.0603 111.876 55.794 111.747C55.7805 111.459 55.7411 111.145 55.7579 110.83C55.8464 108.876 55.9105 106.923 56.0561 104.974C56.1846 103.253 56.3991 101.538 56.5869 99.8215C56.7473 98.3585 56.9211 96.8996 57.0933 95.4377C57.1008 95.3643 57.1208 95.2897 57.1407 95.1834C59.547 95.179 61.948 95.168 64.3516 95.1725C64.6815 95.1719 65.0132 95.2377 65.343 95.2859C65.4432 95.3015 65.5347 95.3706 65.6802 95.4389C65.4388 95.9398 65.2119 96.433 64.9663 96.9156C63.7428 99.3375 62.5177 101.756 61.2904 104.175C60.3835 105.96 59.3225 107.656 58.2765 109.36C57.9445 109.902 57.6457 110.464 57.3131 111.008L57.3118 111.013ZM86.9751 124.641C86.3777 125.901 85.8237 127.179 85.0823 128.367C83.9768 130.138 82.6933 131.763 81.1506 133.171C81.0289 133.283 80.8966 133.39 80.7556 133.477C79.0195 134.538 77.1605 135.31 75.182 135.766C74.0066 136.037 72.8051 136.021 71.6071 135.945C69.3904 135.807 67.2717 135.246 65.2337 134.385C64.664 134.145 64.1408 133.799 63.6002 133.494C63.4687 133.421 63.3547 133.313 63.2247 133.242C61.8093 132.454 60.7194 131.283 59.6676 130.099C58.8626 129.19 58.2369 128.139 57.9424 126.93C57.8576 126.579 57.7468 126.226 57.6027 125.894C57.215 124.994 57.0446 124.036 56.8597 123.087C56.771 122.628 56.7551 122.155 56.7009 121.687C56.6458 121.213 56.6738 120.748 56.8025 120.289C57.154 119.042 57.2796 117.759 57.4171 116.477C57.431 116.342 57.4298 116.2 57.4728 116.074C57.5841 115.754 57.5865 115.454 57.374 115.163C57.4426 115.081 57.4922 115.006 57.5563 114.947C58.3993 114.2 59.1284 113.353 59.7958 112.443C61.7283 109.808 63.4041 107.019 64.8053 104.065C65.6885 102.205 66.5485 100.332 67.4085 98.4602C67.6931 97.8404 67.9342 97.2026 68.2016 96.5752C68.2847 96.3805 68.3828 96.1928 68.5097 95.9258C68.7044 95.9845 68.8638 96.0228 69.0177 96.079C70.3907 96.6029 71.7766 97.0916 73.1273 97.6649C74.5349 98.2603 75.9134 98.9275 77.2911 99.5895C77.684 99.7763 78.0443 100.039 78.3964 100.296C79.791 101.315 81.1722 102.354 82.4412 103.53C82.7299 103.796 82.9762 104.104 83.2362 104.4C83.3677 104.547 83.4767 104.712 83.6111 104.857C85.3622 106.75 86.3962 109.03 87.1379 111.461C87.4336 112.431 87.7023 113.411 87.9709 114.391C88.3113 115.626 88.4065 116.898 88.5046 118.168C88.5329 118.535 88.439 118.919 88.3758 119.291C88.274 119.888 88.1513 120.481 88.0421 121.078C87.8194 122.302 87.5123 123.499 86.9771 124.634L86.9751 124.641Z" fill="#D2D2D2"/>
<path d="M69.6848 93.2915C69.7897 93.057 69.865 92.8477 69.9741 92.656C70.0684 92.4891 70.2443 92.5373 70.3847 92.582C70.9339 92.7525 71.4854 92.9237 72.0269 93.1114C72.742 93.3637 73.4494 93.6331 74.1637 93.8876C74.2953 93.9371 74.4433 93.9402 74.6052 93.9133C74.4015 93.5442 74.0053 93.498 73.6891 93.3319C73.3737 93.1635 73.0351 93.0394 72.7324 92.8285C73.1196 92.9453 73.5129 93.0419 73.894 93.1788C77.1639 94.3674 80.178 96.0234 82.9591 98.1122C84.0001 98.8949 85.0525 99.6639 85.9734 100.594C86.1715 100.795 86.3324 101.039 86.5191 101.254C86.8244 101.609 87.1262 101.969 87.4481 102.31C88.5857 103.518 89.5966 104.821 90.4613 106.237C90.8192 106.823 91.117 107.431 91.353 108.073C92.5539 111.346 93.0502 114.728 92.9318 118.206C92.9246 118.416 92.8929 118.626 92.8709 118.837C92.8679 118.863 92.839 118.886 92.7753 118.984C92.7564 118.763 92.7326 118.607 92.7288 118.45C92.7109 117.829 92.6856 117.209 92.6876 116.587C92.6872 115.551 92.5344 114.536 92.3012 113.528C92.1 112.657 91.9172 111.781 91.7108 110.911C91.608 110.474 91.4503 110.058 91.1064 109.725C91.162 109.986 91.2228 110.246 91.271 110.507C91.5434 111.952 91.8741 113.389 92.0649 114.846C92.2126 115.967 92.1895 117.113 92.2356 118.247C92.2763 119.246 92.3111 120.248 92.123 121.236C92.005 121.862 91.8908 122.492 91.7236 123.103C91.1812 125.113 90.4908 127.07 89.5963 128.952C89.5112 129.129 89.456 129.32 89.2231 129.371C89.1467 129.39 89.0814 129.485 89.0303 129.557C88.5046 130.28 87.9813 131.004 87.4617 131.731C87.3941 131.826 87.3545 131.941 87.2777 132.098C87.5513 131.993 87.7715 131.91 87.9917 131.828C88.0094 131.85 88.0241 131.874 88.0389 131.898C87.9841 131.999 87.9324 132.105 87.871 132.204C86.9841 133.606 85.9141 134.863 84.7552 136.042C84.4837 136.32 84.1316 136.523 83.8152 136.755C83.6551 136.873 83.4743 136.962 83.3301 137.092C82.5999 137.749 81.6877 137.964 80.7676 138.166C80.7286 138.173 80.6867 138.158 80.5488 138.146C81.7304 137.499 82.8718 136.944 83.8644 136.155C84.8621 135.364 85.7876 134.505 86.4638 133.413C86.4372 133.388 86.4135 133.361 86.3891 133.337C86.229 133.503 86.0673 133.667 85.9126 133.84C85.0425 134.798 84.1013 135.677 83.0177 136.388C81.7953 137.186 80.519 137.881 79.1314 138.361C78.0857 138.719 77.0585 139.13 75.9709 139.368C74.9016 139.603 73.8338 139.735 72.734 139.73C71.8753 139.728 71.0148 139.788 70.151 139.738C68.7123 139.65 67.3402 139.31 66.0123 138.758C64.6867 138.207 63.3588 137.655 62.0069 137.143C62.2874 137.305 62.5572 137.504 62.8544 137.628C63.2339 137.786 63.4368 138.028 63.4096 138.467C62.9402 138.501 62.9032 138.089 62.7172 137.743C62.6831 137.896 62.6615 137.992 62.6306 138.127C62.4776 138.051 62.3371 137.999 62.2142 137.921C61.4389 137.423 60.681 136.892 59.8844 136.424C59.308 136.085 58.8894 135.595 58.459 135.111C57.9453 134.531 57.4627 133.929 56.9425 133.355C56.6454 133.028 56.6571 132.69 56.7907 132.247C56.9631 132.428 57.0974 132.574 57.2958 132.782C57.2912 132.498 57.1786 132.337 57.1108 132.165C57.0189 131.927 56.9415 131.682 56.8328 131.451C56.7587 131.292 56.6218 131.163 56.5448 131.005C55.6683 129.183 54.8942 127.321 54.4994 125.327C54.3549 124.6 54.2375 123.864 54.1747 123.125C54.1351 122.649 54.209 122.161 54.2461 121.681C54.253 121.586 54.3205 121.491 54.3558 121.407C54.5752 121.399 54.5457 121.554 54.5518 121.663C54.5776 122.072 54.588 122.483 54.6094 122.889C54.725 125.202 55.3007 127.415 56.2518 129.516C56.7306 130.576 57.3357 131.581 57.9355 132.58C58.4779 133.485 59.2377 134.213 60.0419 134.89C61.2791 135.937 62.648 136.757 64.1783 137.302C64.6349 137.464 65.0833 137.653 65.5365 137.826C66.5169 138.202 67.5239 138.45 68.5793 138.529C69.1359 138.57 69.6878 138.707 70.2426 138.762C72.7272 139.008 75.1626 138.858 77.5382 137.968C79.0219 137.412 80.4255 136.717 81.7991 135.935C83.0018 135.25 84.0719 134.43 84.9697 133.38C86.0648 132.096 87.0233 130.715 87.9026 129.281C88.1957 128.803 88.4812 128.318 88.7835 127.85C89.3306 126.999 89.7063 126.077 90.0182 125.123C90.0903 124.908 90.1536 124.691 90.2376 124.477C90.9008 122.779 91.2244 121.002 91.3847 119.207C91.615 116.63 91.4899 114.065 90.9814 111.516C90.5692 109.458 89.6481 107.654 88.4678 105.965C86.5356 103.207 84.1524 100.892 81.4531 98.896C79.9516 97.7864 78.3881 96.7851 76.7288 95.9234C75.626 95.354 74.5232 94.7846 73.366 94.3307C72.2627 93.9004 71.1325 93.5596 69.9604 93.3575C69.8905 93.3462 69.8212 93.3253 69.6916 93.2935L69.6848 93.2915ZM75.0688 94.036C75.0488 94.0617 75.0288 94.0874 75.0111 94.1138C75.084 94.1798 75.147 94.2622 75.2289 94.3065C75.5198 94.4674 75.8135 94.6268 76.117 94.7623C78.8196 95.9776 81.2222 97.6617 83.5071 99.5178C84.8467 100.605 86.087 101.812 87.2173 103.125C87.2731 103.19 87.3609 103.231 87.5143 103.346C87.3032 102.669 86.9209 102.237 86.518 101.832C85.3399 100.654 84.1374 99.5003 82.8003 98.5013C81.1004 97.2318 79.3785 95.9948 77.5071 94.9861C76.7326 94.567 75.9326 94.2159 75.0665 94.0353L75.0688 94.036ZM58.3206 133.748C58.304 134.2 58.9781 135.082 59.51 135.318C59.2009 134.731 58.7477 134.251 58.3206 133.748ZM88.81 105.138C88.9675 104.883 88.8753 104.687 88.711 104.527C88.6546 104.471 88.4988 104.453 88.4363 104.491C88.3753 104.531 88.3353 104.68 88.3611 104.756C88.4242 104.944 88.5512 105.089 88.8107 105.136L88.81 105.138ZM59.9869 135.777C59.9159 135.947 59.9686 136.064 60.145 136.127C60.1559 135.977 60.1032 135.861 59.9869 135.777ZM89.93 106.687C89.9638 106.526 89.9069 106.424 89.7522 106.394C89.7253 106.386 89.6471 106.467 89.6488 106.502C89.6625 106.667 89.7575 106.733 89.93 106.687ZM60.8651 136.71C60.9272 136.658 60.9826 136.629 60.9783 136.61C60.9701 136.557 60.9427 136.502 60.9111 136.461C60.9049 136.449 60.8083 136.486 60.8108 136.494C60.8185 136.557 60.8395 136.617 60.8673 136.711L60.8651 136.71Z" fill="white"/>
<path d="M69.3927 94.0337C69.5738 94.081 69.7175 94.1146 69.8621 94.1533C71.6189 94.6025 73.2524 95.3636 74.9033 96.091C77.233 97.1182 79.391 98.4233 81.434 99.9232C83.8209 101.676 85.8281 103.805 87.675 106.117C89.2103 108.038 89.9909 110.226 90.2985 112.607C90.5608 114.62 90.7104 116.65 90.5976 118.684C90.4994 120.483 90.074 122.218 89.4259 123.898C89.3268 124.153 89.2373 124.41 89.1449 124.667C88.0598 127.732 86.4444 130.489 84.3098 132.937C83.2412 134.165 81.9079 135.064 80.5044 135.864C79.141 136.645 77.6772 137.2 76.1865 137.666C75.488 137.885 74.7251 137.921 73.9873 137.979C72.9462 138.063 71.9051 138.018 70.8588 137.973C68.8966 137.89 67.0876 137.273 65.2706 136.635C63.6785 136.077 62.161 135.361 60.7187 134.484C60.3784 134.276 60.0779 134.034 59.8277 133.722C59.1648 132.892 58.4642 132.09 57.8412 131.233C57.4807 130.736 57.19 130.17 56.959 129.6C56.584 128.673 56.29 127.713 55.9514 126.771C55.6258 125.867 55.3958 124.946 55.3192 123.985C55.2554 123.184 55.1842 122.384 55.1307 121.582C55.1167 121.377 55.1454 121.169 55.156 120.972C55.6444 120.931 55.6496 120.93 55.7278 121.31C55.7928 121.637 55.8606 121.963 55.9049 122.294C56.1564 124.164 56.6697 125.96 57.2666 127.754C57.845 129.496 58.9051 130.838 60.183 132.066C61.2905 133.13 62.485 134.084 63.8729 134.768C64.1303 134.895 64.3871 135.031 64.6577 135.129C66.1405 135.669 67.6234 136.209 69.1798 136.505C70.5392 136.766 71.9035 136.914 73.2906 136.775C74.3008 136.672 75.3233 136.69 76.3076 136.406C76.8591 136.245 77.391 136.019 77.9442 135.869C78.8651 135.617 79.6714 135.137 80.4993 134.691C81.3688 134.221 82.1864 133.671 82.8909 132.97C83.2252 132.639 83.5398 132.292 83.744 131.858C83.8003 131.736 83.895 131.632 83.9829 131.527C85.577 129.674 86.8399 127.615 87.779 125.359C87.8585 125.168 87.9613 124.989 88.0791 124.817C87.8239 126.069 87.2623 127.21 86.8475 128.416C86.9089 128.342 86.9809 128.273 87.0325 128.191C87.6209 127.284 88.1177 126.333 88.451 125.301C88.7926 124.249 89.1745 123.209 89.4819 122.149C89.9884 120.405 90.1109 118.606 90.2156 116.801C90.3057 115.263 90.1025 113.759 89.7121 112.301C89.3388 110.899 88.7857 109.543 88.2585 108.19C88.0579 107.673 87.7256 107.204 87.4206 106.734C87.1662 106.347 86.909 105.945 86.4153 105.801C86.3369 105.777 86.2789 105.686 86.2091 105.626C86.3177 105.29 86.1875 105.034 85.9635 104.805C85.9109 104.752 85.8488 104.7 85.7794 104.679C84.5471 104.288 84.3503 104.155 83.6382 103.213C83.692 103.18 83.7451 103.15 83.796 103.119C82.4378 101.696 81.0833 100.276 79.4923 99.0911C78.4789 98.3387 77.4405 97.6447 76.3536 97.0142C75.0133 96.2364 73.5818 95.6558 72.135 95.1097C71.4359 94.8452 70.752 94.5706 69.9903 94.5704C69.9074 94.5698 69.8212 94.5805 69.7278 94.6231C74.0717 95.9745 78.0223 98.0228 81.3916 101.117C81.2762 101.038 81.1601 100.961 81.044 100.885C79.9483 100.154 78.8908 99.3614 77.7486 98.7118C76.6884 98.1064 75.5456 97.6373 74.4256 97.1409C73.2906 96.6375 72.1362 96.1746 70.9909 95.6974C70.6008 95.5334 70.2167 95.3419 69.8129 95.2152C69.5479 95.1304 69.2539 95.1419 68.9362 95.1023C68.9842 94.7407 69.1938 94.4181 69.3986 94.0306L69.3927 94.0337ZM85.5583 130.715C86 130.441 86.0488 130.312 85.8612 129.986C85.5927 130.14 85.5628 130.385 85.5583 130.715ZM84.7388 131.506C84.3766 131.639 84.366 131.657 84.4538 131.982C84.6677 131.912 84.7597 131.769 84.7388 131.506Z" fill="white"/>
<path d="M17.1713 86.8105C17.2103 87.0616 17.2413 87.3151 17.2952 87.5657C17.3443 87.7832 17.4164 87.9978 17.4921 88.2648C17.1013 88.1763 16.9493 87.9839 16.8819 87.6487C16.5774 86.0918 15.9834 84.6284 15.4114 83.157C15.381 83.0795 15.3258 83.0116 15.2007 82.9568C15.2115 83.0992 15.2039 83.2458 15.2411 83.3816C15.363 83.8358 15.487 84.2908 15.6366 84.7339C15.8897 85.4816 16.1625 86.2207 16.4237 86.966C16.4712 87.1 16.499 87.2426 16.4983 87.3987C15.7325 86.489 15.3512 85.3729 14.8227 84.2589C14.6711 84.6161 14.7395 84.8833 14.8215 85.1375C15.1412 86.1422 15.5516 87.1132 16.2331 87.9218C17.2808 89.168 18.6331 89.8492 20.2813 89.8408C21.4038 89.835 22.5253 89.7435 23.582 89.3077C23.9694 89.1486 24.3318 88.9184 24.704 88.7206C24.782 88.6806 24.853 88.6312 24.9524 88.6173C24.5487 89.2842 23.849 89.6128 23.253 90.0508C22.6207 90.512 21.8801 90.7575 21.0965 90.846C20.3535 90.9296 19.6142 90.8385 18.8756 90.689C18.9642 90.9941 19.1658 91.111 19.4044 91.1781C19.5969 91.2361 19.6807 91.3469 19.6258 91.5452C19.4042 91.5728 19.1708 91.4267 18.9254 91.1069C18.8448 91.212 18.7715 91.3095 18.6838 91.4223C18.016 91.321 17.4542 90.9734 16.9274 90.6314C16.8899 90.4077 16.8617 90.2258 16.8167 89.9461C16.6585 90.1304 16.5762 90.2252 16.469 90.354C16.1423 90.1016 15.8358 89.8627 15.4954 89.5989C15.5536 89.4383 15.6063 89.2881 15.6809 89.0811C16.4462 89.5389 17.0761 90.1708 17.9192 90.4031C17.9392 90.3773 17.9591 90.3516 17.9813 90.3266C17.8973 90.2329 17.8204 90.1316 17.7278 90.0499C17.1345 89.5316 16.5298 89.027 15.945 88.4966C15.2806 87.8983 14.8406 87.1308 14.4358 86.3519C13.9142 85.3449 13.6622 84.2532 13.5461 83.1244C13.5315 82.9784 13.5028 82.8305 13.4744 82.6413C13.145 82.8105 12.8611 82.9911 12.4775 82.8705C12.49 82.6912 12.4983 82.5179 12.5091 82.3771C12.7075 82.1561 13.0462 82.4096 13.1875 82.0543C13.0331 81.9833 12.8758 81.9139 12.6697 81.82C12.775 81.4708 12.8606 81.106 12.9948 80.7582C13.2984 79.9781 13.6606 79.2303 14.1271 78.5335C14.7035 77.6745 15.4425 76.9891 16.3326 76.4664C16.5784 76.3232 16.8475 76.1919 17.123 76.1285C18.2178 75.8824 19.3164 75.6643 20.415 75.4462C20.5451 75.4195 20.6909 75.422 20.8218 75.4492C21.7873 75.6402 22.7576 75.823 23.7172 76.0415C24.391 76.1959 24.9899 76.5254 25.5233 76.967C25.5937 77.0249 25.6599 77.0888 25.7317 77.1422C27.108 78.1408 27.8259 79.5658 28.2238 81.1532C28.4771 82.1672 28.518 83.2221 28.3803 84.2696C28.367 84.3705 28.312 84.4638 28.2612 84.5999C28.0915 84.5634 27.9398 84.5323 27.7634 84.4937C28.0223 83.2948 28.0596 82.1512 27.504 81.0705C27.4648 81.0709 27.425 81.0735 27.388 81.0746C27.3897 81.2875 27.3966 81.4996 27.3961 81.7118C27.3956 82.3611 27.4019 83.0125 27.3866 83.6623C27.3825 83.8539 27.314 84.0408 27.2632 84.2819C27.0406 84.2025 26.8649 84.1373 26.6774 84.071C26.7181 83.7903 26.7936 83.5396 26.7893 83.2868C26.7622 81.5305 26.2195 79.9458 24.9158 78.7469C23.5195 77.4664 21.8565 76.86 19.9077 77.0878C18.7336 77.2246 17.741 77.731 16.7679 78.3263C16.5703 78.4474 16.4023 78.6482 16.2786 78.8478C15.9375 79.4042 15.6152 79.9711 15.3161 80.5499C14.991 81.1746 14.9302 81.8619 14.9169 82.5538C15.292 82.2493 15.2031 81.7586 15.4339 81.3497C15.4978 81.4373 15.5602 81.4976 15.5903 81.5677C15.8353 82.1397 16.092 82.7054 16.3071 83.2879C16.5471 83.9414 16.7505 84.6107 16.9634 85.2731C16.9978 85.386 16.994 85.5118 17.0077 85.6283C16.5897 84.8528 16.3195 83.9997 15.7804 83.2854C15.7664 83.3886 15.7844 83.4746 15.8156 83.5573C16.175 84.5031 16.5315 85.4505 16.9018 86.3923C16.9623 86.54 17.0806 86.666 17.1717 86.8009L17.1713 86.8105ZM14.3539 79.9839C14.3919 79.9953 14.4264 80.0106 14.4638 80.0243C14.6769 79.6979 14.8932 79.3774 15.0981 79.0461C15.5326 78.342 16.0073 77.6746 16.7761 77.3033C17.1984 77.101 17.6453 76.955 18.0802 76.776C18.9419 76.4206 19.8589 76.3186 20.7591 76.4265C22.9897 76.6889 24.9123 77.5763 26.3102 79.4262C26.5578 79.7548 26.7914 80.0816 26.9276 80.4718C26.9834 80.6351 27.083 80.7824 27.2083 81.0228C27.2946 80.6069 27.2514 80.3131 27.1522 80.0268C26.8103 79.0227 26.2025 78.1802 25.3722 77.549C23.7298 76.2993 21.8327 75.8297 19.7807 75.8898C18.7041 75.9216 17.7305 76.2921 16.7823 76.724C16.2334 76.9736 15.7469 77.3641 15.4016 77.8777C15.0875 78.3445 14.8026 78.8276 14.5223 79.3119C14.4024 79.5151 14.3076 79.7404 14.3539 79.9839ZM13.9163 80.9897C13.6221 81.0988 13.555 81.3618 13.49 81.6181C13.4767 81.6702 13.5321 81.7699 13.5831 81.7951C13.6357 81.8231 13.7322 81.8107 13.7882 81.7788C14.0275 81.641 14.0813 81.3007 13.9163 80.9897Z" fill="white"/>
<path d="M44.8344 90.9012C45.2118 90.9857 45.5892 91.0702 45.9686 91.1479C46.7102 91.2959 47.4552 91.4326 48.1947 91.5873C49.0919 91.7699 49.9958 91.8251 50.9051 91.7648C52.0389 91.6892 53.17 91.5981 54.3011 91.507C54.4634 91.4949 54.6247 91.4459 54.846 91.4003C54.8028 91.6974 54.7619 91.9707 54.7194 92.2655C53.7671 92.3788 52.8503 92.5125 51.9285 92.4519C50.4325 92.3524 48.9374 92.2336 47.4523 92.0495C46.1015 91.8814 44.7548 91.6511 43.4191 91.3924C41.6655 91.0541 39.9065 90.7093 38.1752 90.2727C36.6019 89.8788 35.0626 89.3561 33.5093 88.8877C32.914 88.7082 32.3096 88.5503 31.726 88.3402C31.1005 88.1149 30.4948 87.8322 29.8753 87.5868C28.9462 87.2187 28.0143 86.8596 27.0845 86.4938C26.6828 86.336 26.2823 86.1664 25.8392 85.984C25.9492 85.7974 26.021 85.6725 26.1056 85.5296C27.2844 86.0657 28.4552 86.5555 29.5854 87.1233C30.215 87.4402 30.8566 87.6849 31.5249 87.8815C32.2671 88.1005 32.9998 88.3507 33.7494 88.545C34.7315 88.8021 35.7202 89.0294 36.7096 89.2545C36.9054 89.3013 37.1152 89.2938 37.3199 89.3115C37.332 89.2713 37.3406 89.2348 37.3505 89.1938C37.1813 89.1233 37.0182 89.0326 36.8429 88.9822C36.2442 88.8139 35.6383 88.6775 35.0416 88.5025C33.5432 88.0629 32.0357 87.6449 30.5528 87.1538C29.8539 86.9211 29.2082 86.5359 28.5309 86.2316C27.7869 85.8974 27.0368 85.5833 26.2496 85.2385C26.2844 85.1391 26.3316 85.0068 26.3925 84.8372C26.6763 84.957 26.9276 85.0547 27.1726 85.1652C28.8105 85.9277 30.4898 86.5855 32.2156 87.1132C33.1856 87.4106 34.1752 87.643 35.1582 87.9053C35.2455 87.9316 35.3382 87.94 35.4268 87.9618C37.1779 88.3897 38.9325 88.8138 40.6828 89.244C41.4761 89.4392 42.2621 89.6665 43.0601 89.8461C44.5242 90.1728 45.9989 90.4563 47.4967 90.5662C49.3518 90.7056 51.211 90.8072 53.0693 90.928C53.1864 90.9365 53.3023 90.9568 53.5318 90.9894C53.374 91.059 53.3191 91.1035 53.2616 91.1081C51.6626 91.2608 50.0577 91.4336 48.4622 91.1698C47.4739 91.0061 46.4855 90.8912 45.4886 90.8127C45.2736 90.7968 45.0564 90.8045 44.8404 90.8004C44.8376 90.8338 44.8349 90.8671 44.8322 90.9005L44.8344 90.9012ZM39.2739 89.4954C38.9753 89.2711 38.8004 89.2355 38.7138 89.3852C38.6786 89.4454 38.6925 89.5692 38.7341 89.6257C38.8487 89.7799 39.025 89.7378 39.2761 89.4961L39.2739 89.4954Z" fill="white"/>
<path d="M98.9296 24.2831C99.7949 25.4377 100.397 26.6228 100.519 27.983C100.578 28.6232 100.477 29.2814 100.411 29.9282C100.249 31.5199 99.871 33.0639 99.4041 34.5883C99.3629 34.7248 99.3419 34.8674 99.3609 35.0147C100.245 33.3208 100.46 31.4591 100.693 29.5687C100.894 29.7759 100.97 29.9771 100.928 30.2157C100.8 30.9316 100.711 31.6545 100.538 32.3591C100.353 33.1261 100.092 33.8703 99.8614 34.6261C99.313 36.4287 98.3826 38.0404 97.363 39.6081C96.1465 41.4802 94.7335 43.2028 93.3643 44.9581C92.4159 46.1761 91.5357 47.4514 90.6372 48.7065C90.0743 49.4963 89.4836 50.2729 89.0019 51.1092C88.507 51.9732 88.1069 52.8951 87.7037 53.8112C86.6996 56.0966 86.05 58.4937 85.4013 60.896C84.9718 62.4903 84.4179 64.0519 83.9206 65.6282C83.9051 65.6797 83.8717 65.7258 83.7892 65.7644C83.7988 65.6354 83.8017 65.5045 83.8202 65.3782C83.9386 64.508 84.0562 63.6401 84.179 62.7713C84.206 62.5768 84.2418 62.3849 84.2851 62.1929C84.5496 61.0567 84.8096 59.9192 85.0859 58.7841C85.1719 58.434 85.2855 58.0898 85.3997 57.7434C86.2434 55.2046 87.3778 52.7949 88.5553 50.3958C89.2755 48.9307 90.1415 47.573 91.1247 46.28C91.565 45.7023 92.0689 45.173 92.5562 44.6338C93.8791 43.1698 95.0521 41.5873 96.2328 40.012C96.3696 40.0117 96.5381 40.0601 96.6414 40.0009C96.8313 39.8897 97.007 39.7278 97.0177 39.4332C96.9242 39.3952 96.8217 39.3545 96.7065 39.3076C96.9736 38.8509 97.2435 38.4172 97.4826 37.9643C97.6959 37.5647 97.8888 37.1517 98.0616 36.7325C98.5662 35.5125 99.0903 34.3008 99.4134 33.0187C99.773 31.5913 100.086 30.1572 100.015 28.6661C99.9445 27.1846 99.7356 25.7397 98.9482 24.4401C98.9419 24.4285 98.9422 24.4115 98.9251 24.2818L98.9296 24.2831ZM85.5585 58.5042C85.9006 58.2362 86.4898 56.4362 86.4217 55.9737C85.8377 56.7523 85.6361 57.6071 85.5585 58.5042ZM84.8386 61.2318C85.0075 61.0117 85.1608 60.7869 85.0459 60.447C84.8044 60.6892 84.7286 60.9325 84.8386 61.2318ZM98.1664 37.6724C97.9643 37.7596 97.8712 37.9146 97.887 38.1375C98.0012 37.9449 98.0845 37.8064 98.1664 37.6724Z" fill="white"/>
<path d="M58.6448 58.3166C58.7354 57.919 58.8103 57.5168 58.9217 57.1231C59.254 55.9561 59.5909 54.7905 59.9523 53.6322C60.2677 52.6188 60.6204 51.6191 60.9514 50.6104C61.5204 48.8775 61.8883 47.0987 62.2301 45.3094C62.4971 43.9299 62.5044 42.5452 62.4863 41.148C62.4523 38.5399 62.3181 35.9406 62.0656 33.3447C61.9789 32.442 61.9266 31.5302 61.9004 30.6213C61.8533 28.9395 61.8409 27.2559 62.0877 25.587C62.1906 24.8977 62.3134 24.2071 62.5004 23.5384C62.7988 22.4759 63.1417 21.4195 63.5028 20.376C63.6535 19.9331 63.8938 19.5246 64.0998 19.1008C64.1898 18.9155 64.3304 18.7894 64.6159 18.7412C63.8168 20.4682 62.894 22.1115 62.7838 24.0316C62.9353 23.6182 63.1197 23.2173 63.2332 22.7925C63.6469 21.2422 64.3444 19.8118 65.0757 18.3988C65.8314 16.9371 67.0843 16.0453 68.5819 15.4592C68.6017 15.4505 68.6334 15.4747 68.7095 15.4977C68.5468 15.6 68.4155 15.6873 68.2819 15.774C67.5569 16.2513 66.8554 16.7478 66.3901 17.5134C66.244 17.755 66.0129 17.9465 65.8352 18.1713C65.218 18.9472 64.7476 19.8186 64.4031 20.7427C64.0104 21.7938 63.6798 22.8661 63.3379 23.935C63.2354 24.2508 63.191 24.5841 63.1243 24.9107C63.0082 25.4739 62.8587 26.0343 62.7878 26.6014C62.6855 27.4104 62.6418 28.2274 62.5689 29.06C62.4799 29.0234 62.381 28.9789 62.2792 28.936C62.0723 29.4035 62.1833 29.7153 62.5867 29.8272C62.6266 30.4398 62.6747 31.0574 62.7052 31.677C62.7898 33.4044 62.9948 35.1216 63.2563 36.829C63.4857 38.3192 63.5313 39.8199 63.3949 41.317C63.2629 42.791 63.0696 44.2661 62.8331 45.7306C62.5991 47.1787 62.2827 48.6166 61.9871 50.0584C61.8036 50.9504 61.4836 51.8013 61.1299 52.642C60.8954 53.2012 60.6579 53.762 60.4831 54.3417C60.2537 55.1026 59.9063 55.8012 59.5307 56.4961C59.2092 57.0926 58.9652 57.7319 58.6873 58.3538C58.6737 58.3423 58.6587 58.3354 58.645 58.3239L58.6448 58.3166ZM61.8958 48.5879C61.539 49.1395 61.1231 50.7941 61.22 51.2017C61.6813 50.789 62.057 49.3812 61.8958 48.5879ZM60.3395 53.9272C60.6339 53.6717 60.6918 53.423 60.5976 53.0308C60.3939 53.3259 60.2955 53.555 60.3395 53.9272ZM62.2561 27.3201C62.2917 27.3235 62.3302 27.3253 62.3658 27.3287C62.4276 27.1642 62.4888 27.002 62.2617 26.8481C62.2582 27.0057 62.2575 27.1618 62.2561 27.3201Z" fill="white"/>
<path d="M24.3556 86.2888C24.4378 85.7813 24.5742 85.3048 24.9465 84.9043C25.1487 84.687 25.2915 84.4077 25.431 84.1397C25.5634 83.8866 25.4801 83.7663 25.1622 83.6949C25.1562 83.6662 25.1413 83.6348 25.1449 83.6066C25.3151 82.8156 25.0686 82.1431 24.5493 81.5494C24.2716 81.2313 24.0027 80.9085 23.7085 80.6049C23.5614 80.4531 23.3651 80.3671 23.0872 80.4468C23.1555 80.5358 23.1946 80.6086 23.2523 80.6602C23.7325 81.076 24.0584 81.6065 24.3108 82.1783C24.4764 82.5602 24.5211 82.979 24.4374 83.386C24.3321 83.8889 24.1785 84.3822 24.0211 84.8719C23.9867 84.986 23.8616 85.0851 23.7574 85.1635C23.5386 85.3222 23.2924 85.4506 23.0774 85.6128C22.4785 86.0768 21.7858 86.1878 21.0603 86.1644C20.7894 86.1559 20.5143 86.1047 20.5066 85.7093C20.3794 85.7344 20.2808 85.7535 20.1794 85.7742C20.0918 85.7893 19.9616 85.8404 19.9258 85.8052C19.7085 85.5785 19.4472 85.4167 19.1958 85.2383C19.1475 85.2042 19.2015 85.0252 19.2106 84.8814C18.9967 84.8218 18.816 84.8381 18.6361 85.0378C18.4892 85.2011 18.277 85.3056 18.0206 85.4919C17.9391 85.3331 17.8826 85.2208 17.8145 85.0904C18.0832 84.8955 18.2977 84.7429 18.573 84.5427C18.2303 84.432 18.0569 84.6752 17.8121 84.7015C17.7874 84.6622 17.735 84.6172 17.7306 84.567C17.633 83.7977 17.5649 83.0276 17.8122 82.2721C17.8979 82.0122 17.9919 81.7573 18.0804 81.4959C18.4366 80.4606 19.1868 79.8592 20.2145 79.5684C21.3054 79.2625 22.3772 79.449 23.4397 79.7474C23.5091 79.7683 23.5804 79.8069 23.6366 79.8556C24.3746 80.4932 25.0534 81.1813 25.4453 82.1004C25.6539 82.5906 25.6982 83.0996 25.6473 83.6165C25.5782 84.3477 25.4041 85.0545 25.0224 85.689C24.872 85.9367 24.6449 86.1392 24.4531 86.3622C24.4185 86.3395 24.3867 86.3153 24.3527 86.2904L24.3556 86.2888ZM21.2046 85.0139C21.4417 85.0292 21.7494 85.1098 22.0341 85.0565C22.7116 84.9312 23.1523 84.4414 23.4209 83.8583C23.8065 83.0248 23.3901 82.0007 22.5661 81.5838C22.3244 81.4621 22.0646 81.3764 21.8077 81.2892C21.1938 81.0821 20.6785 81.2685 20.2417 81.713C19.6827 82.2794 19.492 83.5599 20.0479 84.3721C20.0973 84.4432 20.1652 84.5174 20.2411 84.5573C20.5353 84.7071 20.8365 84.8419 21.2046 85.0139ZM22.3955 79.8256C22.2743 79.5718 22.0295 79.5737 21.8155 79.5872C21.1446 79.634 20.4948 79.7726 19.905 80.1172C19.596 80.2999 19.3623 80.5567 19.1953 80.8677C19.1055 81.0359 19.0237 81.2261 19.2509 81.4362C19.3809 81.3045 19.5257 81.1968 19.6222 81.055C19.9094 80.6289 20.3079 80.3681 20.7908 80.2403C21.1835 80.1365 21.5897 80.0686 21.992 79.9896C22.1318 79.9634 22.3001 80.0044 22.3984 79.8241L22.3955 79.8256ZM18.7974 82.3006C18.9643 82.2166 19.0948 82.1241 19.0158 81.9245C18.9981 81.8777 18.8753 81.8235 18.8374 81.8438C18.6808 81.926 18.6486 82.0652 18.7191 82.2281C18.7254 82.2398 18.7397 82.249 18.7989 82.3035L18.7974 82.3006ZM18.5619 83.0328C18.4073 83.2865 18.4232 83.4281 18.6169 83.5793C18.756 83.4014 18.7053 83.2617 18.5619 83.0328Z" fill="white"/>
<path d="M68.9189 91.5322C69.2677 91.5495 69.3204 91.5043 69.296 91.1723C69.278 90.9324 69.1993 90.6914 69.3713 90.4771C69.3985 90.4438 69.4325 90.4199 69.4859 90.3725C69.6212 90.8064 69.5286 91.2106 69.3796 91.5832C69.0489 92.3967 68.6852 93.1978 68.3283 94.0009C67.6738 95.4833 67.0297 96.9714 66.3557 98.4456C65.4339 100.458 64.5211 102.473 63.5423 104.456C61.8153 107.956 59.669 111.204 57.4091 114.382C57.3665 114.443 57.3149 114.5 57.2492 114.581C57.1747 114.512 57.1081 114.458 57.0544 114.393C57.0084 114.335 56.9747 114.268 56.9235 114.187C57.3116 113.799 57.7053 113.424 58.0749 113.033C58.4415 112.643 58.8169 112.248 58.9831 111.705C58.7355 111.579 58.6255 111.741 58.5154 111.847C58.0177 112.332 57.5284 112.829 57.0331 113.322C56.9044 113.449 56.781 113.583 56.6349 113.695C56.569 113.743 56.466 113.737 56.3397 113.767C56.3625 113.659 56.3572 113.604 56.3823 113.577C57.2601 112.706 57.9337 111.679 58.5908 110.642C59.516 109.185 60.4856 107.751 61.3235 106.243C62.2944 104.497 63.1465 102.683 64.0415 100.897C64.566 99.8543 65.0809 98.8107 65.5822 97.7557C66.0875 96.6873 66.5704 95.6121 67.1046 94.545C67.058 94.6994 67.0204 94.8566 66.9655 95.0061C66.4219 96.4365 65.8281 97.847 65.1459 99.2186C64.6156 100.289 64.1378 101.388 63.6239 102.468C62.4076 105.037 60.9611 107.469 59.3551 109.807C59.2281 109.994 59.1093 110.185 59.0376 110.415C59.123 110.326 59.2109 110.245 59.2881 110.151C60.7133 108.388 61.9546 106.507 62.9579 104.475C64.0613 102.249 65.1347 100.009 66.1894 97.7581C66.5676 96.9492 66.8476 96.0936 67.1757 95.2648C67.4777 94.5061 67.7573 93.7408 68.194 93.0374C68.4788 92.5788 68.6678 92.0571 68.9144 91.5309L68.9189 91.5322Z" fill="white"/>
<path d="M54.7363 109.108C54.7372 108.935 54.7388 108.76 54.7449 108.586C54.7898 106.785 54.7798 104.98 54.9001 103.18C55.0325 101.186 55.3014 99.2019 55.6496 97.2291C55.8072 96.3341 55.8927 95.4272 56.0451 94.5331C56.183 93.7274 56.3677 92.9286 56.5361 92.1272C56.5627 91.9985 56.6124 91.8743 56.7209 91.7654C56.6392 92.2389 56.5434 92.7105 56.478 93.1865C56.2731 94.6434 56.0784 96.0985 55.8809 97.5552C55.6791 99.0423 55.469 100.525 55.2835 102.014C55.019 104.122 54.9204 106.239 54.9263 108.365C54.9288 108.834 54.9165 109.304 54.9167 109.773C54.9189 110.333 54.9107 110.894 54.9401 111.452C54.9696 112.011 55.0359 112.568 55.0891 113.128C54.7301 113.218 54.6808 113.203 54.6583 112.832C54.5974 111.852 54.3675 110.882 54.4388 109.892C54.4413 109.852 54.4104 109.808 54.3761 109.72C54.2898 109.804 54.1833 109.857 54.1649 109.934C54.107 110.183 54.0397 110.439 54.0469 110.69C54.0669 111.433 54.1201 112.172 54.1645 112.916C54.1747 113.092 54.1915 113.263 53.8928 113.241C53.8755 113.153 53.8432 113.058 53.8411 112.96C53.6911 108.817 53.7907 104.689 54.3449 100.576C54.6879 98.0378 55.1216 95.5145 55.5828 92.9971C55.8906 91.3124 56.1449 89.6189 56.4066 87.9252C56.4807 87.4446 56.7083 87.0542 56.9841 86.6173C57.1497 86.8698 57.0722 87.0296 56.9488 87.1877C56.8569 87.3065 56.7537 87.4219 56.6828 87.5519C56.5894 87.7239 56.6483 87.8443 56.8917 87.8712C56.8323 88.222 56.7644 88.5605 56.7203 88.9012C56.6444 89.5009 56.6176 90.1081 56.5135 90.7043C56.356 91.5992 56.1337 92.482 55.9694 93.3749C55.7704 94.4479 55.6064 95.5264 55.4221 96.5989C55.0774 98.6167 54.806 100.642 54.612 102.678C54.4206 104.706 54.4193 106.734 54.6094 108.76C54.6209 108.876 54.6516 108.992 54.6721 109.111C54.6949 109.108 54.7164 109.109 54.7392 109.107L54.7363 109.108Z" fill="white"/>
<path d="M43.2522 93.2173C42.9556 93.4478 42.656 93.3159 42.3751 93.2678C40.5533 92.9529 38.7433 92.5829 36.9658 92.0567C35.5262 91.6323 34.0642 91.2745 32.6356 90.8217C31.6549 90.5114 30.7038 90.1025 29.7526 89.7107C28.9989 89.4004 28.2632 89.0467 27.5147 88.7111C27.7306 88.327 27.7492 88.3057 28.0717 88.4591C28.9616 88.8764 29.8573 89.2905 30.7276 89.7483C31.3112 90.0561 31.9167 90.2827 32.5459 90.4553C33.629 90.7502 34.7211 90.9989 35.8429 91.1003C35.9549 91.1097 36.0706 91.0982 36.1975 91.0095C35.8819 90.9387 35.5683 90.8613 35.2527 90.7905C35.1061 90.7585 34.9554 90.7399 34.8045 90.714C33.7656 90.5399 32.8003 90.1218 31.8142 89.7805C31.2592 89.5888 30.755 89.2609 30.2204 89.0094C29.6581 88.7446 29.0868 88.5015 28.5245 88.2367C28.2448 88.1036 27.9799 87.9456 27.7065 87.7996C27.7211 87.7674 27.7364 87.733 27.7532 87.7014C28.1784 87.8784 28.6009 88.0644 29.0317 88.231C30.725 88.8905 32.3512 89.7325 34.1208 90.1879C35.4552 90.5317 36.7994 90.8516 38.143 91.1567C39.2649 91.4119 40.3917 91.6589 41.5239 91.8636C42.9996 92.1279 44.4822 92.3528 45.9644 92.5873C47.0223 92.7549 48.0827 92.9062 49.1395 93.1345C48.6897 93.1283 48.2369 93.1236 47.7849 93.1167C47.6487 93.1147 47.5113 93.0928 47.3769 93.1011C45.8845 93.2005 44.4138 93.0329 42.946 92.7832C42.3819 92.6863 41.8259 92.5382 41.2646 92.408C40.8693 92.3181 40.4755 92.2311 40.0252 92.1295C40.1913 92.3342 40.5212 92.5143 41.0148 92.6696C41.3894 92.7875 41.7623 92.9194 42.1473 93.0111C42.5108 93.1012 42.8842 93.1503 43.2522 93.2173ZM37.3173 91.733C37.087 91.412 37.078 91.4093 36.7681 91.5624C36.873 91.8138 37.051 91.8309 37.3173 91.733ZM38.6234 91.8631C38.5319 91.6646 38.4037 91.6039 38.2267 91.6971C38.1976 91.7127 38.1755 91.8184 38.1969 91.8444C38.3132 91.9771 38.4494 92.0353 38.6234 91.8631Z" fill="white"/>
<path d="M57.46 92.6427L57.6827 91.9042C60.1032 91.8527 62.5401 91.9576 64.9492 91.5633C63.7657 91.3749 62.5794 91.4225 61.3935 91.4605C60.2031 91.4971 59.0114 91.5626 57.7816 91.6166C57.7943 91.4935 57.8093 91.371 57.8252 91.2293C57.9316 91.2003 58.0158 91.172 58.1034 91.1569C59.3645 90.9585 60.628 90.9464 61.9033 91.0331C63.609 91.1495 65.3217 91.1702 67.0305 91.2362C67.1319 91.24 67.2331 91.2607 67.4039 91.2854C67.2163 91.7049 67.0642 92.0961 66.8648 92.4657C66.8255 92.5393 66.628 92.5628 66.5067 92.5604C65.5712 92.5127 64.6338 92.4473 63.6971 92.4041C63.3964 92.3892 63.0914 92.4046 62.7915 92.4436C61.0895 92.6629 59.3738 92.5631 57.6688 92.6789C57.6267 92.6808 57.5833 92.6629 57.4622 92.6434L57.46 92.6427Z" fill="white"/>
<path d="M57.2436 94.2425C57.3607 93.9921 57.563 94.0336 57.7292 94.0251C58.2865 93.9905 58.8481 93.9987 59.4034 93.9464C60.8637 93.8081 62.3189 93.6463 63.7788 93.4932C63.8679 93.481 63.9662 93.4789 64.0458 93.4418C64.8156 93.0587 65.616 93.3195 66.4843 93.2737C66.4034 93.4935 66.3483 93.66 66.2818 93.8158C66.2167 93.967 66.1381 94.1143 66.0725 94.2508C65.2009 94.2101 64.3434 94.1469 63.4861 94.1398C62.7627 94.1341 62.0382 94.1965 61.3134 94.2196C60.3329 94.2487 59.3521 94.2704 58.3707 94.2943C58.0996 94.3029 57.8268 94.3085 57.5546 94.3045C57.4576 94.3022 57.362 94.2709 57.243 94.2448L57.2436 94.2425Z" fill="white"/>
<path d="M74.6947 79.5274C74.7804 79.397 74.8578 79.2616 74.9496 79.1355C76.065 77.6064 77.1948 76.0865 78.2921 74.5447C78.7006 73.9671 79.0374 73.3362 79.4005 72.723C79.732 72.1661 80.0575 71.605 80.3951 71.0281C80.4996 71.0864 80.5732 71.1257 80.6754 71.1834C80.3436 71.9599 80.2224 72.8072 79.7261 73.4975C79.1525 74.2987 78.5652 75.0885 77.9483 75.8547C76.9881 77.0473 75.9983 78.2162 75.0191 79.3908C74.9547 79.4666 74.879 79.5317 74.8085 79.6032C74.7701 79.577 74.7309 79.553 74.6931 79.5245L74.6947 79.5274Z" fill="white"/>
<path d="M58.3388 64.4407C58.4449 64.4531 58.5295 64.464 58.6549 64.4774C58.6046 65.2191 58.5478 65.9418 58.5087 66.6625C58.4777 67.2514 58.426 67.8438 58.4473 68.4289C58.5172 70.3349 58.6166 72.24 58.7028 74.1485C58.7104 74.3339 58.6935 74.5193 58.6879 74.708C58.6583 74.7089 58.6252 74.7135 58.595 74.7166C58.568 74.6523 58.5197 74.5938 58.5126 74.5282C58.3145 72.586 58.1097 70.6417 57.9322 68.6959C57.8689 67.9907 57.846 67.2733 57.864 66.5658C57.8726 66.1972 58.0061 65.8273 58.0901 65.4596C58.1636 65.135 58.2476 64.816 58.3388 64.4407Z" fill="white"/>
<path d="M55.0486 115.336C54.5197 116.741 54.7072 118.16 54.6366 119.609C54.3939 119.628 54.163 119.649 53.8797 119.674C53.7053 118.244 53.6746 116.848 53.8055 115.442C54.1985 115.272 54.5754 115.237 55.0479 115.338L55.0486 115.336Z" fill="white"/>
<path d="M68.5442 73.876C69.3995 73.8898 70.2458 73.9496 71.0846 73.9047C72.0658 73.849 73.0521 73.7606 74.0149 73.5797C75.1726 73.3599 76.3158 73.0503 77.4491 72.7254C77.9067 72.5924 78.3226 72.3223 78.8391 72.0751C78.7178 72.3804 78.6001 72.5842 78.3382 72.7079C77.3183 73.1914 76.2431 73.502 75.1541 73.7694C73.308 74.2236 71.4339 74.1956 69.5582 74.0597C69.2143 74.0342 68.8773 73.9374 68.5442 73.876Z" fill="white"/>
<path d="M66.4759 73.1963C65.3906 72.747 64.437 72.0712 63.4902 71.3975C61.8569 70.2311 60.5545 68.7445 59.4669 67.0639C59.3051 66.8149 59.2773 66.5672 59.3711 66.2317C59.4504 66.3411 59.5159 66.4072 59.5523 66.489C59.8253 67.106 60.233 67.6245 60.6736 68.1309C61.3704 68.9295 62.0499 69.7448 62.8675 70.4259C63.9844 71.3536 65.0578 72.3365 66.3519 73.0246C66.4045 73.0527 66.427 73.14 66.4627 73.1996L66.4708 73.1972L66.4759 73.1963Z" fill="white"/>
<path d="M75.3882 13.7783C74.952 13.808 74.5173 13.8405 74.0831 13.8634C73.1941 13.9127 72.3002 13.9459 71.4112 14.0197C71.0688 14.0459 70.7217 14.1365 70.3944 14.2502C68.9461 14.7535 67.5199 15.305 66.2826 16.2504C66.2537 16.2734 66.2071 16.274 66.0949 16.3061C66.4134 15.8894 66.7428 15.5908 67.1048 15.3215C67.9605 14.6859 68.9261 14.2934 69.9435 14.0288C71.7339 13.5652 73.5568 13.5118 75.3876 13.683C75.3885 13.7125 75.3864 13.7436 75.385 13.7725L75.3882 13.7783Z" fill="white"/>
<path d="M100.806 26.7314C100.721 26.6326 100.683 26.6063 100.671 26.5712C100.17 25.1502 99.3152 23.9354 98.4186 22.747C97.941 22.1122 97.3376 21.6031 96.6914 21.147C96.1478 20.7633 95.6013 20.3812 95.0621 19.9915C94.9073 19.8814 94.7659 19.7509 94.5546 19.5773C94.6954 19.588 94.7476 19.5769 94.7823 19.5995C96.4594 20.5398 97.9922 21.6589 99.2108 23.1641C99.8067 23.9005 100.293 24.7014 100.592 25.6047C100.704 25.9438 100.782 26.2921 100.809 26.7299L100.806 26.7314Z" fill="white"/>
<path d="M58.512 79.5994C58.2477 83.2774 57.6138 86.9098 56.9464 90.5322C56.9137 90.5272 56.8788 90.5216 56.8461 90.5166C56.9941 89.5968 57.1145 88.6711 57.2907 87.7549C57.5228 86.5479 57.6593 85.334 57.7044 84.1073C57.7138 83.8415 57.6347 83.5613 57.8184 83.3164C57.842 83.2869 57.8065 83.2103 57.7909 83.1567C57.664 82.7596 57.6611 82.7611 57.8989 82.4178C57.6498 82.2401 57.4938 82.4982 57.2944 82.5602C57.1487 82.3795 57.2178 82.2392 57.3557 82.1221C57.5398 81.9652 57.7165 81.7841 57.9311 81.6876C58.1457 81.5912 58.2299 81.4579 58.2615 81.2477C58.3285 80.7991 58.3954 80.3504 58.4645 79.9025C58.4808 79.8 58.4993 79.6981 58.5149 79.5978L58.512 79.5994Z" fill="white"/>
<path d="M67.5469 93.3454C68.9262 90.1477 70.3236 86.9628 72.0359 83.9241C71.9216 84.1655 71.805 84.4062 71.6945 84.6513C71.6312 84.7884 71.5784 84.9312 71.515 85.0684C71.3856 85.3517 71.3492 85.6019 71.5335 85.9139C71.689 86.1756 71.8665 86.51 71.5711 86.9067C71.5023 86.7786 71.4646 86.6769 71.398 86.5982C71.3289 86.5114 71.2368 86.4446 71.091 86.3127C71.1361 86.6975 71.0748 86.9573 70.7583 87.0841C70.7327 87.0959 70.6971 87.1169 70.6904 87.1393C70.503 87.8739 69.9499 88.4127 69.6469 89.0856C69.186 90.1039 68.7177 91.1225 68.2456 92.1375C68.05 92.5595 67.8438 92.9759 67.6386 93.3974C67.6093 93.3813 67.5771 93.3667 67.5455 93.3498L67.5469 93.3454Z" fill="white"/>
<path d="M53.9549 114.979C53.9214 114.717 53.979 114.559 54.194 114.502C54.5875 114.403 54.9771 114.269 55.3775 114.229C55.9136 114.175 56.627 114.781 56.7134 115.313C56.732 115.421 56.6934 115.541 56.6698 115.749C55.8956 114.883 54.9694 114.797 53.9555 114.977L53.9549 114.979Z" fill="white"/>
<path d="M53.341 115.639C53.3283 116.328 53.299 117.001 53.3101 117.668C53.3204 118.33 53.3727 118.991 53.4078 119.692C53.2443 119.716 53.0889 119.738 52.8775 119.767C52.8834 119.205 52.8738 118.694 52.8998 118.187C52.9374 117.463 52.9986 116.742 53.0576 116.02C53.0688 115.869 53.0574 115.68 53.3387 115.638L53.341 115.639Z" fill="white"/>
<path d="M77.612 13.8849C78.1703 13.831 80.246 14.2836 80.7545 14.5566C80.6631 14.949 80.6068 15.0223 80.1395 15.3331C80.0465 15.2367 79.938 15.143 79.8504 15.0286C79.689 14.8188 79.4875 14.6775 79.2449 14.575C78.7173 14.3573 78.1923 14.1307 77.612 13.8849Z" fill="white"/>
<path d="M63.0063 93.3019C61.1331 93.4573 59.2585 93.6173 57.3249 93.7789C57.3383 93.6535 57.353 93.5237 57.3707 93.3678C59.2802 93.343 61.1374 93.1437 63.002 93.2029C63.0022 93.2347 63.0046 93.2672 63.007 93.2997L63.0063 93.3019Z" fill="white"/>
<path d="M92.4889 18.371C92.0267 18.2926 91.5644 18.2387 91.1154 18.1326C90.691 18.0339 90.2838 17.9917 89.874 18.1685C89.8119 18.1961 89.7295 18.1859 89.6424 18.1914C89.4776 17.8634 89.3872 17.548 89.5733 17.2061C90.2908 17.3126 92.1687 18.0644 92.4889 18.371Z" fill="white"/>
<path d="M54.2108 93.9118C53.7709 94.0672 53.5941 94.5804 53.077 94.3927C53.1349 94.2734 53.1899 94.1558 53.2443 94.0403C52.8273 94.2002 52.5126 94.6205 51.9655 94.3457C52.1624 94.1218 52.3441 93.908 52.5394 93.7057C52.5861 93.6563 52.6734 93.6338 52.7428 93.6303C53.2975 93.6046 53.8546 93.5871 54.4079 93.5659C54.4576 94.2108 54.3586 94.4178 53.9874 94.3938C54.0543 94.2528 54.112 94.1262 54.2131 93.9125L54.2108 93.9118Z" fill="white"/>
<path d="M81.5583 16.5471C82.2796 16.479 82.9553 16.6266 83.6322 16.7623C83.5498 17.2624 83.4266 17.428 82.924 17.7427C82.474 17.3482 82.0165 16.9466 81.5583 16.5471Z" fill="white"/>
<path d="M85.9092 17.4465C86.6024 17.7141 87.2225 18.0061 87.8257 18.3296C87.8214 18.36 87.8171 18.3905 87.8099 18.4225C87.2088 18.5049 86.6106 18.5858 85.9867 18.6711C85.8048 18.2867 85.7162 17.9084 85.9092 17.4465Z" fill="white"/>
<path d="M70.4773 73.2626C69.3221 73.6443 66.5174 72.8157 65.6698 71.813C66.2245 72.0706 66.7038 72.3274 67.2077 72.5185C67.7289 72.7171 68.2661 72.8791 68.808 73.001C69.3477 73.1222 69.9009 73.1743 70.4751 73.262L70.4773 73.2626Z" fill="white"/>
<path d="M14.1411 87.1348C14.4485 87.5189 14.6577 88.0182 14.7686 88.6327C14.8553 88.5637 14.9327 88.5015 15.0087 88.4439C15.2517 88.6636 15.306 88.9315 15.1717 89.2475C15.0648 89.1567 14.9563 89.0873 14.8744 88.9943C14.5776 88.6508 14.2778 88.3089 14.0027 87.9501C13.7329 87.5977 13.7629 87.4822 14.1418 87.1326L14.1411 87.1348Z" fill="white"/>
<path d="M88.2641 124.131C88.7491 122.255 89.3171 120.412 89.2881 118.411C89.4899 118.511 89.5762 118.63 89.5562 118.809C89.3541 120.621 89.0189 122.405 88.3217 124.102C88.319 124.111 88.3013 124.113 88.2641 124.131Z" fill="white"/>
<path d="M16.669 81.7881C16.4612 81.2786 16.2344 80.7756 16.0619 80.2548C16.0191 80.1296 16.1512 79.9424 16.2643 79.786C16.5372 80.4275 16.9029 81.0285 16.8325 81.7397C16.7783 81.7576 16.7247 81.7732 16.6712 81.7888L16.669 81.7881Z" fill="white"/>
<path d="M18.912 88.9811C18.4915 88.9666 18.4443 88.945 18.3682 88.6144C18.2696 88.1965 18.1961 87.7763 18.1 87.3176C18.5591 87.5196 18.871 88.202 18.9104 88.9782L18.912 88.9811Z" fill="white"/>
<path d="M79.9715 138.797C79.6918 139.353 79.264 139.443 78.8344 139.062C79.1428 138.857 80.5988 138.417 80.9627 138.417C80.7734 138.753 80.4575 138.878 79.9693 138.797L79.9715 138.797Z" fill="white"/>
<path d="M59.4949 64.4207C59.9485 65.3534 60.3544 66.1936 60.7855 67.0879C60.4822 67.0086 60.3863 66.7844 60.2741 66.5894C59.5473 65.3399 59.3985 64.9507 59.4949 64.4207Z" fill="white"/>
<path d="M79.6675 70.5427C79.6646 70.8275 79.5328 70.9489 79.3697 71.0364C78.693 71.3939 78.0866 71.907 77.3201 72.0763C77.3007 72.0435 77.2842 72.0093 77.2647 71.9766C78.0484 71.5072 78.8343 71.0386 79.6675 70.5427Z" fill="white"/>
<path d="M55.2713 116.079L55.4009 115.649C55.7023 115.767 55.9818 115.869 56.2564 115.978C56.6089 116.121 56.6285 116.186 56.4606 116.621C56.0724 116.443 55.6857 116.268 55.2735 116.08L55.2713 116.079Z" fill="white"/>
<path d="M58.9839 61.3782C58.8729 61.374 58.7715 61.3702 58.6456 61.3665C58.5691 60.5352 58.9866 59.831 59.1385 59.0759C59.0878 59.8273 59.0363 60.5809 58.9833 61.3804L58.9839 61.3782Z" fill="white"/>
<path d="M82.1061 68.4554C81.9783 68.3607 81.896 68.3017 81.8296 68.2548C82.1914 67.6217 82.5391 67.0111 82.8884 66.4035C82.7141 67.103 82.5996 67.8229 82.1061 68.4554Z" fill="white"/>
<path d="M89.6519 116.516C89.1697 115.953 89.1033 115.753 89.1284 114.932C89.6125 115.23 89.7771 115.704 89.6519 116.516Z" fill="white"/>
<path d="M22.8863 87.2911C23.1904 86.3231 23.149 86.4766 23.7841 86.2165C23.8739 86.7367 23.5164 87.1612 22.8863 87.2911Z" fill="white"/>
<path d="M65.6541 139.517C65.0611 139.468 64.7631 139.136 64.5934 138.638C65.1704 138.619 65.4846 138.873 65.6541 139.517Z" fill="white"/>
<path d="M48.7213 94.2218C49.2181 93.959 49.5076 93.4359 50.12 93.6401C49.842 94.1569 49.3079 94.406 48.7213 94.2218Z" fill="white"/>
<path d="M18.513 77.9883C18.6238 78.3415 18.7253 78.6529 18.8267 78.9643C18.8898 79.1518 18.8531 79.2896 18.5982 79.3495C18.4335 78.9971 18.2656 78.6388 18.075 78.2346C18.2249 78.1504 18.3602 78.074 18.5153 77.9889L18.513 77.9883Z" fill="white"/>
<path d="M16.8041 78.9915C16.9433 79.6634 17.3064 80.2002 17.2995 80.8305C17.2688 80.8432 17.2388 80.8537 17.2103 80.8671C17.1696 80.8157 17.1115 80.7738 17.0898 80.716C16.9381 80.304 16.7909 79.8934 16.6467 79.4812C16.5742 79.2762 16.58 79.2731 16.8086 78.9928L16.8041 78.9915Z" fill="white"/>
<path d="M87.7229 108.29C87.2077 107.812 86.7603 107.401 86.3251 106.982C86.2703 106.929 86.2557 106.832 86.2543 106.731C86.8005 107.155 87.509 107.412 87.7229 108.29Z" fill="white"/>
<path d="M71.6619 140.225C72.3323 140.01 72.8165 140.129 73.2245 140.686C72.6653 140.655 72.164 140.584 71.6619 140.225Z" fill="white"/>
<path d="M19.9355 89.109C19.4885 89.1744 19.4863 89.1737 19.3929 88.8599C19.3127 88.5915 19.2434 88.3192 19.1519 87.9912C19.8128 88.1637 19.6714 88.7461 19.9333 89.1083L19.9355 89.109Z" fill="white"/>
<path d="M16.4347 82.4597C16.1598 81.9788 15.8745 81.4997 15.6251 81.007C15.5758 80.9115 15.6701 80.7446 15.7057 80.5698C15.9565 80.8554 16.3463 81.8544 16.4363 82.4627L16.4347 82.4597Z" fill="white"/>
<path d="M13.5492 87.2273C13.4356 86.9562 13.345 86.7384 13.2475 86.5112C13.389 86.3659 13.5119 86.2418 13.6347 86.1177C14.0124 86.5172 13.9732 86.8009 13.5492 87.2273Z" fill="white"/>
<path d="M88.6355 112.591C89.0912 112.878 89.5423 113.082 89.4464 113.732C89.0198 113.479 88.618 113.24 88.6355 112.591Z" fill="white"/>
<path d="M72.7744 84.4225C72.7331 83.9681 72.3775 83.5361 72.8201 83.1129C73.1851 83.5624 73.1768 84.0189 72.7744 84.4225Z" fill="white"/>
<path d="M77.5816 139.881C77.1156 140.107 76.7311 140.086 76.3754 139.752C76.8555 139.374 77.0239 139.391 77.5816 139.881Z" fill="white"/>
<path d="M58.2613 78.7059C58.348 79.0177 58.2825 79.2592 58.0099 79.4505C57.8555 79.5577 57.731 79.7033 57.564 79.8605C57.5179 79.2362 57.6664 79.0026 58.2606 78.7081L58.2613 78.7059Z" fill="white"/>
<path d="M54.121 126.59C53.9741 125.757 53.8242 124.919 53.6832 124.083C53.6805 124.067 53.75 124.039 53.8116 123.997C53.9752 124.823 54.1331 125.627 54.2887 126.431C54.2982 126.48 54.2592 126.537 54.243 126.59C54.2016 126.59 54.1624 126.591 54.121 126.59Z" fill="white"/>
<path d="M72.3563 85.2901C72.1141 84.7711 72.1043 84.3498 72.3272 84.0263C72.6812 84.5286 72.6955 84.8699 72.3563 85.2901Z" fill="white"/>
<path d="M73.5849 81.2974C73.7113 81.7848 73.9852 82.2531 73.7992 82.8294C73.6669 82.6772 73.3288 81.7256 73.3489 81.5534C73.3596 81.4614 73.4311 81.378 73.4758 81.2865C73.5121 81.2876 73.5493 81.294 73.5833 81.2945L73.5849 81.2974Z" fill="white"/>
<path d="M52.1955 93.7043C51.8216 93.9725 51.6006 94.487 50.9305 94.4094C51.1837 94.1366 51.3692 93.902 51.59 93.7122C51.7588 93.5654 51.9786 93.6219 52.1955 93.7043Z" fill="white"/>
<path d="M58.1465 79.7504C58.2827 80.1895 58.2171 80.3504 57.4816 80.7732C57.3995 80.2601 57.3284 80.3339 58.1465 79.7504Z" fill="white"/>
<path d="M13.3865 85.1273C13.6357 85.637 13.633 85.6459 13.0977 86.0608C13.0118 85.8273 12.9308 85.61 12.8227 85.321C13.027 85.2508 13.2071 85.1879 13.3865 85.1273Z" fill="white"/>
<path d="M81.3058 70.5751C81.2833 70.3339 81.2601 70.095 81.2341 69.8332C81.1191 69.9231 80.9786 70.1297 80.8706 70.3584C80.7713 70.2992 80.6771 70.239 80.5424 70.1594C80.6961 69.9249 80.8328 69.7146 80.9717 69.505C81.5048 69.8099 81.5813 70.0258 81.3058 70.5751Z" fill="white"/>
<path d="M55.1564 117.197C55.6855 117.313 56.1901 117.729 56.2522 118.138C56.1602 118.103 56.0799 118.086 56.0121 118.044C55.7575 117.884 55.5128 117.707 55.254 117.554C55.09 117.458 55.0426 117.356 55.1542 117.196L55.1564 117.197Z" fill="white"/>
<path d="M58.7605 76.8884C58.6299 77.435 58.0538 77.5885 57.7527 78.0202C57.6584 77.7012 57.6915 77.6159 58.041 77.2989C58.2356 77.1232 58.4476 76.9625 58.6498 76.794C58.687 76.8247 58.7234 76.8577 58.7605 76.8884Z" fill="white"/>
<path d="M17.1565 86.811C17.1384 86.5955 17.1204 86.3801 17.1075 86.1638C17.1 86.0346 17.0942 85.9083 17.089 85.7798C17.2541 86.0664 17.4623 86.3392 17.5681 86.6445C17.6706 86.944 17.6699 87.2783 17.7131 87.5966C17.678 87.6079 17.6435 87.6171 17.609 87.6262C17.555 87.4976 17.5142 87.3657 17.4479 87.2455C17.3621 87.0927 17.2546 86.9553 17.1565 86.811Z" fill="white"/>
<path d="M78.4453 139.082C78.5496 139.238 78.6323 139.36 78.7134 139.48C78.3071 139.726 78.1076 139.708 77.5692 139.372C77.8365 139.181 78.1435 139.184 78.4459 139.08L78.4453 139.082Z" fill="white"/>
<path d="M47.4944 94.145C48.3765 93.5271 48.5455 93.4609 48.9728 93.663C48.5023 93.9118 48.1392 94.2979 47.4944 94.145Z" fill="white"/>
<path d="M55.76 131.641C55.3132 131.203 55.5872 130.78 55.6199 130.324C56.0084 130.639 56.0249 130.827 55.76 131.641Z" fill="white"/>
<path d="M12.7582 84.9354C12.7117 84.709 12.6746 84.5244 12.6277 84.3076C12.8233 84.2176 12.9949 84.1424 13.1701 84.0634C13.3777 84.6461 13.3701 84.6633 12.7575 84.9376L12.7582 84.9354Z" fill="white"/>
<path d="M56.1777 131.276C56.5484 131.666 56.5662 131.769 56.3687 132.408C55.9716 132.178 55.9225 131.887 56.1777 131.276Z" fill="white"/>
<path d="M18.0565 79.7453C17.9083 79.3783 17.7666 79.0304 17.6294 78.6838C17.5504 78.4842 17.6376 78.4055 17.838 78.4049C17.9701 78.728 18.1007 79.0481 18.2319 79.366C18.2962 79.5172 18.3342 79.6581 18.0565 79.7453Z" fill="white"/>
<path d="M83.7455 15.3828C83.3617 16.0728 83.242 16.1783 82.8999 16.0898C83.0382 15.858 83.1646 15.6251 83.3084 15.4073C83.4125 15.2482 83.4246 15.2567 83.7433 15.3821L83.7455 15.3828Z" fill="white"/>
<path d="M57.6251 73.8846C57.5144 73.3043 57.5294 73.2625 57.9665 72.9548C58.1675 73.4866 58.1023 73.6623 57.6251 73.8846Z" fill="white"/>
<path d="M87.7566 109.555C88.1306 109.804 88.5894 109.967 88.6487 110.613C88.2648 110.25 87.8024 110.091 87.7566 109.555Z" fill="white"/>
<path d="M21.9578 87.5604C21.9935 87.3123 22.0286 87.0665 22.0693 86.7858C22.2422 86.7549 22.4083 86.722 22.6254 86.6825C22.5103 87.1044 22.3058 87.3698 22.0529 87.6012C22.0207 87.5866 21.99 87.575 21.9578 87.5604Z" fill="white"/>
<path d="M58.6695 62.4529C58.1716 62.5982 57.7455 62.7236 57.2895 62.8596C57.3607 62.5099 57.5457 62.3581 57.875 62.3671C58.1177 62.3719 58.3671 62.2738 58.6711 62.4558L58.6695 62.4529Z" fill="white"/>
<path d="M51.1686 93.7172C50.7712 94.0149 50.508 94.3775 50.0011 94.415C50.3095 93.8537 50.6573 93.6314 51.1686 93.7172Z" fill="white"/>
<path d="M76.0084 79.4304C75.7859 79.0264 75.8399 78.7179 76.2722 78.4747C76.4859 78.859 76.4522 79.1247 76.0084 79.4304Z" fill="white"/>
<path d="M86.6344 16.2638C86.7968 16.2273 86.9542 16.2479 86.9629 16.4459C86.9761 16.7258 86.9466 17.0099 86.9345 17.3334C86.8269 17.2936 86.7409 17.2872 86.7011 17.241C86.5947 17.1162 86.5741 16.6582 86.6373 16.2622L86.6344 16.2638Z" fill="white"/>
<path d="M76.3217 140.246C75.831 140.335 75.5713 140.256 75.2944 139.936C75.4129 139.891 75.5173 139.844 75.6244 139.813C75.7234 139.785 75.8273 139.772 75.9574 139.745C76.0689 139.894 76.1791 140.047 76.3223 140.244L76.3217 140.246Z" fill="white"/>
<path d="M65.9174 139.081C66.2722 139.305 66.7884 139.229 66.8901 139.782C66.2677 139.766 66.0632 139.626 65.9174 139.081Z" fill="white"/>
<path d="M88.9907 114.337C88.9669 114.205 88.9353 114.034 88.8916 113.774C89.3187 114.042 89.7457 114.181 89.6206 114.766C89.432 114.638 89.2479 114.512 88.9922 114.339L88.9907 114.337Z" fill="white"/>
<path d="M81.3916 69.2459C81.8438 69.3578 82.1096 69.626 82.3916 69.8648C82.554 70.0066 82.4785 70.1596 82.3967 70.3742C82.0574 69.9935 81.7471 69.646 81.3916 69.2459Z" fill="white"/>
<path d="M88.1367 110.634C88.4251 110.941 89.016 110.965 88.9784 111.559C88.6656 111.277 88.1693 111.174 88.1367 110.634Z" fill="white"/>
<path d="M21.9674 77.8848C22.432 77.9395 22.8132 78.1326 23.2206 78.4092C22.8291 78.5011 22.5208 78.3008 22.1935 78.2851C21.9268 78.2706 21.9474 78.0888 21.9674 77.8848Z" fill="white"/>
<path d="M72.0116 86.0775C71.855 85.8276 71.7241 85.6221 71.5759 85.3845C71.6568 85.238 71.7418 85.0854 71.8303 84.9216C72.0366 85.2011 72.1038 85.6096 72.0116 86.0775Z" fill="white"/>
<path d="M89.2892 112.537C88.5292 112.134 88.4131 112.009 88.4023 111.559C88.731 111.878 89.2211 111.945 89.2892 112.537Z" fill="white"/>
<path d="M77.6447 76.8375C77.7933 77.2437 77.7465 77.3663 77.3034 77.7186C77.1175 77.2743 77.1602 77.1651 77.6447 76.8375Z" fill="white"/>
<path d="M19.2508 85.914C19.305 85.9449 19.349 85.9607 19.3794 85.9894C19.4213 86.0288 19.4575 86.0788 19.4919 86.1185C19.4797 86.1588 19.4779 86.1973 19.4622 86.217C19.3218 86.3505 19.1799 86.481 19.0035 86.6451C18.8782 86.5341 18.7615 86.4354 18.6106 86.3044C18.8562 86.1539 19.0561 86.0335 19.253 85.9146L19.2508 85.914Z" fill="white"/>
<path d="M57.4706 71.7895C57.4575 71.412 57.2777 71.0526 57.7032 70.8317C57.9558 71.3303 57.9247 71.482 57.4706 71.7895Z" fill="white"/>
<path d="M57.3893 81.6217C57.4833 81.213 57.7458 80.9821 58.0964 80.6776C58.084 80.9376 58.077 81.1064 58.0669 81.2938C57.8328 81.4063 57.6103 81.5126 57.3893 81.6217Z" fill="white"/>
<path d="M74.2709 140.577C74.089 140.605 73.9191 140.74 73.7436 140.528C73.6279 140.386 73.4298 140.314 73.2558 140.203C73.7515 139.903 73.9979 140.268 74.2709 140.577Z" fill="white"/>
<path d="M58.5869 62.9944C58.6286 62.9532 58.6641 62.9004 58.7145 62.879C58.7802 62.8475 58.8583 62.8394 58.9914 62.8111C58.9997 63.0993 59.0065 63.3602 59.0148 63.6483C58.8619 63.6535 58.7488 63.656 58.6135 63.6592C58.6155 63.5719 58.6153 63.5157 58.6174 63.4601C58.6223 63.298 58.8288 63.1235 58.5814 62.9805L58.5892 62.9951L58.5869 62.9944Z" fill="white"/>
<path d="M20.0953 87.138C20.4158 86.9416 20.5851 86.5581 21.0269 86.745C20.6079 87.2681 20.4934 87.324 20.0953 87.138Z" fill="white"/>
<path d="M57.6389 76.4621C57.7593 76.0467 57.873 75.7343 58.1904 75.5321C58.3578 75.9244 58.307 76.0117 57.6389 76.4621Z" fill="white"/>
<path d="M18.2083 85.7681C18.4566 85.6085 18.654 85.4801 18.8741 85.3413C18.9376 85.4386 18.9887 85.52 19.0582 85.6215C18.8413 85.766 18.6461 85.8952 18.4291 86.0398C18.3424 85.9306 18.2704 85.8454 18.2105 85.7687L18.2083 85.7681Z" fill="white"/>
<path d="M54.8638 129.471C54.5844 129.118 54.6588 128.774 54.8674 128.366C55.1713 128.775 54.9189 129.126 54.8638 129.471Z" fill="white"/>
<path d="M19.2925 86.7396C19.6242 86.6272 19.8212 86.2252 20.2061 86.5195C19.8042 86.994 19.6891 87.0277 19.2925 86.7396Z" fill="white"/>
<path d="M74.5277 81.5306C74.5117 81.1547 74.1734 80.8109 74.5989 80.4851C74.8026 80.8297 74.7826 81.2119 74.5277 81.5306Z" fill="white"/>
<path d="M68.0505 140.039C67.5258 140.079 67.4643 140.048 67.2183 139.649C67.6058 139.571 67.8922 139.706 68.0505 140.039Z" fill="white"/>
<path d="M85.6476 105.698C86.0231 106 86.5529 106.113 86.8368 106.621C86.5008 106.537 85.7782 105.994 85.6476 105.698Z" fill="white"/>
<path d="M20.1398 88.3992C20.6084 88.4892 20.5691 88.8705 20.802 89.1263C20.6323 89.163 20.5131 89.1857 20.3675 89.215C20.2933 88.9509 20.2258 88.7132 20.1398 88.3992Z" fill="white"/>
<path d="M55.1934 130.637C54.9927 130.242 55.2068 129.872 55.2437 129.458C55.4972 129.735 55.4947 129.751 55.1934 130.637Z" fill="white"/>
<path d="M19.4404 77.7796C19.6164 77.7545 19.7152 77.7428 19.8146 77.7288C19.955 78.17 19.9573 78.4621 19.8214 78.605C19.6975 78.3357 19.5839 78.089 19.4404 77.7796Z" fill="white"/>
<path d="M88.1961 109.311C87.8012 109.107 87.4346 108.882 87.2581 108.455C87.6155 108.694 87.9479 108.961 88.1961 109.311Z" fill="white"/>
<path d="M64.2914 138.886C63.8972 138.785 63.7591 138.482 63.6093 138.161C64.1043 138.195 64.1669 138.263 64.2914 138.886Z" fill="white"/>
<path d="M89.3087 116.796C89.7243 117.102 89.6895 117.46 89.5982 117.933C89.4192 117.523 89.2109 117.226 89.3087 116.796Z" fill="white"/>
<path d="M12.5612 83.8235C12.5451 83.6502 12.5292 83.5086 12.5135 83.3501C12.7265 83.3239 12.9005 83.3056 13.07 83.2859C13.1288 83.4957 12.9585 83.6747 12.559 83.8228L12.5612 83.8235Z" fill="white"/>
<path d="M74.3643 140.049C74.5381 140.023 74.7097 139.997 74.8989 139.968C75.0259 140.138 75.1438 140.306 75.2677 140.47C75.2549 140.488 75.2443 140.507 75.2338 140.526C74.9397 140.408 74.6441 140.287 74.3501 140.169C74.3555 140.127 74.3603 140.087 74.3672 140.047L74.3643 140.049Z" fill="white"/>
<path d="M70.4453 140.503C70.1007 140.455 69.7619 140.502 69.6052 140.122C70.2191 140.046 70.3164 140.088 70.4453 140.503Z" fill="white"/>
<path d="M76.7303 78.5177C76.5657 78.1783 76.6201 77.9115 76.8936 77.7172C77.0206 78.0168 77.0668 78.2846 76.7303 78.5177Z" fill="white"/>
<path d="M17.7243 80.3044C17.4047 79.7368 17.1798 79.0414 17.1874 78.7166C17.3733 78.9582 17.6655 79.7788 17.7243 80.3044Z" fill="white"/>
<path d="M57.8843 71.9802C57.9776 72.3078 57.8777 72.5528 57.5846 72.7151C57.4584 72.3401 57.4707 72.3072 57.8843 71.9802Z" fill="white"/>
<path d="M56.3478 117.27C56.2954 117.25 56.2338 117.243 56.1893 117.213C55.9175 117.021 55.6444 116.834 55.2893 116.829C55.1782 116.825 55.1769 116.805 55.186 116.532C55.6622 116.629 56.0236 116.904 56.3929 117.169C56.3776 117.204 56.363 117.236 56.3478 117.27Z" fill="white"/>
<path d="M24.9615 90.2633C24.8759 90.1178 24.8098 90.0051 24.7359 89.8778C24.8881 89.7455 24.9942 89.653 25.1038 89.5566C25.3997 89.9437 25.3992 89.9533 24.9615 90.2633Z" fill="white"/>
<path d="M71.5069 140.593C71.1495 140.613 70.9517 140.419 70.6848 140.243C71.2492 140.096 71.3076 140.121 71.5069 140.593Z" fill="white"/>
<path d="M20.9748 77.7027C21.1315 77.7255 21.2459 77.7429 21.3767 77.7628C21.41 77.9194 21.443 78.0611 21.473 78.2045C21.2173 78.2641 21.0515 78.0961 20.9755 77.7004L20.9748 77.7027Z" fill="white"/>
<path d="M21.7545 86.8178C21.5286 87.575 21.4947 87.6063 21.0702 87.427C21.2908 87.2298 21.4949 87.0472 21.7545 86.8178Z" fill="white"/>
<path d="M57.6797 74.6995C57.5113 74.2215 57.8679 74.1239 58.0688 73.8866C58.2816 74.339 57.8854 74.4222 57.6797 74.6995Z" fill="white"/>
<path d="M69.2792 140.329C68.944 140.275 68.6357 140.301 68.4348 140.004C68.9526 139.906 69.1377 139.965 69.2792 140.329Z" fill="white"/>
<path d="M26.7389 88.3038C26.9483 88.1277 27.0819 88.0166 27.2299 87.8903C27.3207 87.9616 27.3949 88.0231 27.5146 88.1202C27.3743 88.2293 27.2736 88.3527 27.1483 88.3955C27.0554 88.4285 26.9267 88.3531 26.7383 88.3061L26.7389 88.3038Z" fill="white"/>
<path d="M18.8213 77.8565C18.9767 77.8838 19.0978 77.8788 19.1098 77.9118C19.2089 78.1907 19.2911 78.4767 19.3711 78.7621C19.3777 78.7885 19.3287 78.8299 19.2598 78.9288C19.1109 78.564 18.9813 78.249 18.8206 77.8587L18.8213 77.8565Z" fill="white"/>
<path d="M75.1406 79.8549C75.3014 80.1231 75.2943 80.3895 75.1887 80.6751C74.892 80.3635 74.8791 80.1227 75.1406 79.8549Z" fill="white"/>
<path d="M23.9142 88.441C23.7375 88.5171 23.5965 88.5796 23.4285 88.651C23.3714 88.5166 23.3263 88.4151 23.2415 88.2186C23.3757 88.1785 23.4973 88.1395 23.6366 88.0985C23.7263 88.2061 23.806 88.3058 23.9142 88.441Z" fill="white"/>
<path d="M45.8501 93.9299C46.1418 93.6345 46.4157 93.4876 46.8542 93.5637C46.5404 93.8109 46.273 93.9768 45.8501 93.9299Z" fill="white"/>
<path d="M57.2961 84.7166C57.3858 85.0587 57.1868 85.2086 56.9193 85.3184C56.8364 84.9858 56.8824 84.9142 57.2961 84.7166Z" fill="white"/>
<path d="M56.9902 84.3948C56.9534 84.0712 57.0458 83.8622 57.3196 83.7397C57.4389 84.2103 57.4081 84.2718 56.9902 84.3948Z" fill="white"/>
<path d="M75.6369 79.2207C75.7648 79.5686 75.7591 79.833 75.6199 80.014C75.3764 79.6232 75.3758 79.5278 75.6369 79.2207Z" fill="white"/>
<path d="M46.9187 94.0055C47.2215 93.8356 47.4441 93.4535 47.9141 93.5952C47.594 93.8795 47.3574 93.984 46.9187 94.0055Z" fill="white"/>
<path d="M58.1431 74.6927C58.3142 75.1618 57.9404 75.2273 57.7302 75.3983C57.6948 75.0947 57.8773 74.9104 58.1431 74.6927Z" fill="white"/>
<path d="M70.8344 87.7955C71.0003 88.0872 70.9778 88.3075 70.7843 88.5202C70.4714 88.2378 70.4717 88.2208 70.8344 87.7955Z" fill="white"/>
<path d="M70.3688 88.6268C70.4958 88.902 70.5727 89.1327 70.3747 89.3684C70.0796 89.0109 70.0781 88.9836 70.3688 88.6268Z" fill="white"/>
<path d="M78.6631 75.9703C78.4039 75.5991 78.7384 75.4778 78.8606 75.2265C79.0589 75.5646 78.8448 75.7321 78.6631 75.9703Z" fill="white"/>
<path d="M69.9921 89.4142C69.9865 89.7324 69.9835 89.9854 69.9792 90.3235C69.6384 89.8423 69.6407 89.7698 69.9921 89.4142Z" fill="white"/>
<path d="M79.2748 75.0999C79.0257 74.6952 79.3964 74.5994 79.4903 74.3933C79.6656 74.7025 79.4348 74.8527 79.2748 75.0999Z" fill="white"/>
<path d="M57.6059 69.8672C57.7147 70.1165 57.6685 70.3182 57.4674 70.4724C57.3669 70.2387 57.4131 70.0369 57.6059 69.8672Z" fill="white"/>
<path d="M57.3988 68.4325C57.2932 68.1834 57.2734 67.9577 57.5051 67.7077C57.602 68.0177 57.6597 68.2475 57.3988 68.4325Z" fill="white"/>
<path d="M54.4892 127.28C54.7123 127.577 54.7153 127.834 54.4941 128.138C54.3353 127.839 54.3352 127.58 54.4892 127.28Z" fill="white"/>
<path d="M20.2823 77.8941C20.36 77.8711 20.4384 77.846 20.5558 77.813C20.6066 77.9846 20.6472 78.1335 20.6915 78.2861C20.4826 78.3256 20.3462 78.195 20.2823 77.8941Z" fill="white"/>
<path d="M57.5106 68.8229C57.684 69.2683 57.6752 69.3218 57.4001 69.5294C57.2809 69.2688 57.3294 69.0515 57.5106 68.8229Z" fill="white"/>
<path d="M56.6973 86.3379C56.8345 86.0203 56.9032 85.7603 57.1765 85.6229C57.2052 85.9002 57.0455 86.1385 56.6973 86.3379Z" fill="white"/>
<path d="M80.9945 72.4737C80.8602 72.4332 80.8297 72.4289 80.8042 72.4164C80.7396 72.3798 80.6785 72.3394 80.5995 72.2936C80.6171 72.211 80.6309 72.1248 80.6514 72.0407C80.6719 71.9565 80.7013 71.875 80.8192 71.7836C80.8718 71.9899 80.9228 72.1933 80.9931 72.4782L80.9945 72.4737Z" fill="white"/>
<path d="M78.0835 76.6939C77.9821 76.4745 78.036 76.2767 78.2454 76.1006C78.3918 76.4084 78.3837 76.4353 78.0835 76.6939Z" fill="white"/>
<path d="M58.7685 77.5745C58.5876 77.996 58.2526 78.0464 58.0219 78.2283C58.1958 77.9756 58.3728 77.7286 58.7685 77.5745Z" fill="white"/>
<path d="M25.7494 89.5535C25.6583 89.321 25.6023 89.1747 25.5457 89.0306C25.5759 89.0032 25.6062 88.9757 25.6365 88.9482C25.7522 89.0099 25.8678 89.0716 26.0323 89.1578C25.9392 89.2885 25.8716 89.3829 25.7494 89.5535Z" fill="white"/>
<path d="M21.4169 91.7263C21.1488 91.7626 20.9801 91.6824 20.9108 91.4857C21.3785 91.368 21.41 91.3848 21.4169 91.7263Z" fill="white"/>
<path d="M57.7588 65.4086C57.6574 65.4049 57.5588 65.3996 57.4315 65.3929C57.4795 65.112 57.6895 65.0312 57.9012 64.9363L57.7595 65.4063L57.7588 65.4086Z" fill="white"/>
<path d="M24.3233 90.647C24.1833 90.4258 24.1997 90.2663 24.3724 90.1686C24.5137 90.3854 24.4974 90.5449 24.3233 90.647Z" fill="white"/>
<path d="M80.3007 73.2605L80.4869 72.6428C80.6535 72.8029 80.6291 72.9567 80.5624 73.1051C80.5193 73.1995 80.4965 73.3562 80.3007 73.2605Z" fill="white"/>
<path d="M73.2833 82.7669C73.1858 82.5153 72.9443 82.296 73.0756 81.901C73.266 82.2172 73.326 82.4795 73.2833 82.7669Z" fill="white"/>
<path d="M80.1152 73.6489C80.1066 73.8286 80.0201 74.0101 79.8558 74.1933C79.756 73.9655 79.7839 73.9055 80.1152 73.6489Z" fill="white"/>
<path d="M58.579 62.9797C58.443 63.1878 58.3084 63.3914 58.1327 63.6582C58.1195 63.1757 58.2536 63.0062 58.5846 62.9936L58.5768 62.9791L58.579 62.9797Z" fill="white"/>
<path d="M45.4179 93.6384C45.2553 93.6675 45.0952 93.7047 44.9315 93.7212C44.9138 93.7232 44.8867 93.5783 44.849 93.4522C45.061 93.4697 45.2301 93.4841 45.3991 93.4984C45.4048 93.5441 45.4122 93.5927 45.4179 93.6384Z" fill="white"/>
<path d="M57.394 67.4204C57.2929 67.197 57.2564 66.9858 57.4827 66.7293C57.5103 67.0184 57.5638 67.2299 57.394 67.4204Z" fill="white"/>
<path d="M23.7641 90.5907C23.8565 90.7456 23.928 90.8892 23.7331 90.9769C23.6849 90.999 23.5562 90.948 23.5325 90.8969C23.4488 90.713 23.5551 90.6278 23.7641 90.5907Z" fill="white"/>
<path d="M57.4278 82.903C57.4879 83.1897 57.4104 83.3251 57.1623 83.3626C57.1685 83.1854 57.257 83.0322 57.4278 82.903Z" fill="white"/>
<path d="M20.4983 91.696C20.2972 91.7476 20.1481 91.732 20.1303 91.4751C20.338 91.4124 20.4607 91.486 20.4983 91.696Z" fill="white"/>
<path d="M57.5179 66.3857C57.3809 66.1653 57.425 65.9515 57.6503 65.7444C57.5957 66.0062 57.5583 66.1952 57.5179 66.3857Z" fill="white"/>
<path d="M21.2095 89.1271C21.198 89.0113 21.1889 88.9524 21.1872 88.8933C21.1848 88.8364 21.1936 88.7829 21.2043 88.6421C21.3635 88.8024 21.4709 88.908 21.6149 89.054C21.47 89.0811 21.364 89.1004 21.2088 89.1293L21.2095 89.1271Z" fill="white"/>
<path d="M53.508 123.651C53.5505 123.381 53.5769 123.22 53.6149 122.973C53.7557 123.24 53.7201 123.466 53.508 123.651Z" fill="white"/>
<path d="M22.9881 90.9452C23.0276 91.0572 23.0904 91.1567 23.0673 91.1766C23.0063 91.2412 22.9126 91.2765 22.8326 91.3232C22.7998 91.262 22.7225 91.1703 22.7395 91.1462C22.7907 91.0737 22.8803 91.0274 22.9874 90.9474L22.9881 90.9452Z" fill="white"/>
<path d="M75.3797 14.2275C75.5828 14.2179 75.7858 14.2083 76.0783 14.194C75.8393 14.3172 75.6064 14.3284 75.3797 14.2275Z" fill="white"/>
<path d="M43.9584 93.5231C44.1361 93.2739 44.2996 93.3794 44.5253 93.4084C44.3394 93.6038 44.1891 93.6 43.9584 93.5231Z" fill="white"/>
<path d="M74.0249 81.0931C74.1927 81.3464 74.2321 81.5316 74.1235 81.8187C74.0083 81.5691 73.9058 81.399 74.0249 81.0931Z" fill="white"/>
<path d="M58.4099 76.5288C58.2671 76.6542 58.122 76.7789 57.9786 76.9066C57.9729 76.6339 58.1086 76.4916 58.3165 76.4176C58.3471 76.4537 58.377 76.492 58.4099 76.5288Z" fill="white"/>
<path d="M71.1946 87.6208C71.0941 87.4358 71.0943 87.2625 71.1952 87.1009C71.2869 87.2392 71.2867 87.4125 71.1946 87.6208Z" fill="white"/>
<path d="M21.9453 91.3509C22.084 91.2633 22.2128 91.1923 22.2806 91.3885C22.2985 91.4427 22.2497 91.5721 22.2022 91.5919C22.018 91.6682 21.9728 91.5349 21.9475 91.3515L21.9453 91.3509Z" fill="white"/>
<path d="M53.5067 114.951C53.4549 115.051 53.4017 115.154 53.3112 115.325C53.1873 115.055 53.2481 114.959 53.5067 114.951Z" fill="white"/>
<path d="M94.1643 20.0212C93.9972 19.8952 93.8317 19.772 93.6653 19.6437C93.6889 19.6142 93.7102 19.584 93.7315 19.5538C93.9066 19.6774 94.0789 19.8026 94.2533 19.9284C94.224 19.9611 94.193 19.9908 94.1643 20.0212Z" fill="white"/>
<path d="M74.1875 80.2218C74.2687 80.1144 74.3484 80.0042 74.4859 79.8234C74.513 80.1222 74.4298 80.2362 74.2622 80.298C74.2378 80.2736 74.2141 80.2469 74.1882 80.2196L74.1875 80.2218Z" fill="white"/>
<path d="M58.7184 75.1494C58.7144 75.2922 58.7133 75.4335 58.7086 75.5786C58.6679 75.576 58.6265 75.5758 58.5851 75.5755C58.5875 75.4297 58.5886 75.2884 58.5926 75.1456C58.6334 75.1481 58.677 75.1491 58.7184 75.1494Z" fill="white"/>
<path d="M55.512 118.293C55.2153 118.314 55.0469 118.321 55.0817 117.988C55.2371 118.095 55.3391 118.17 55.512 118.293Z" fill="white"/>
<path d="M22.6295 88.5149C22.8596 88.594 22.9447 88.7003 22.7001 88.9366C22.6688 88.7489 22.6477 88.6327 22.6295 88.5149Z" fill="white"/>
<path d="M82.6348 15.6412C82.7176 15.488 82.7998 15.337 82.8849 15.1844C82.9204 15.4148 82.7914 15.5347 82.6285 15.6296L82.6348 15.6412Z" fill="white"/>
<path d="M86.1711 16.1971C86.0568 16.2603 85.9448 16.3242 85.8305 16.3874C85.8704 16.2066 85.9706 16.1172 86.1711 16.1971Z" fill="white"/>
<path d="M58.5483 78.8388C58.5537 78.6915 58.5597 78.542 58.5622 78.3962C58.5962 78.3967 58.6302 78.3972 58.6658 78.4006C58.6605 78.5479 58.6544 78.6975 58.652 78.8432C58.618 78.8427 58.5839 78.8423 58.5476 78.8411L58.5483 78.8388Z" fill="white"/>
<path d="M72.7689 82.6996C72.7072 82.7909 72.6491 82.8783 72.5896 82.9703C72.5648 82.9554 72.5393 82.9429 72.5167 82.9287C72.5663 82.8289 72.6195 82.7253 72.6721 82.624C72.7061 82.6489 72.7378 82.6731 72.7712 82.7003L72.7689 82.6996Z" fill="white"/>
<path d="M56.8613 90.9679L56.7526 91.3283C56.7571 91.2002 56.7935 91.0794 56.83 90.9585L56.8613 90.9679Z" fill="white"/>
<path d="M66.4656 73.198C66.6241 73.2311 66.7826 73.2643 66.9411 73.2974L66.9202 73.3668C66.7713 73.3097 66.6254 73.2511 66.4766 73.194L66.4656 73.198Z" fill="white"/>
<path d="M67.4306 93.7471L67.3328 94.0716C67.3271 93.9527 67.3595 93.8453 67.3926 93.7356L67.4306 93.7471Z" fill="white"/>
<path d="M67.618 73.5872C67.7189 73.6249 67.8198 73.6627 67.9185 73.6998C67.9131 73.7177 67.9084 73.7333 67.9008 73.7506L67.5874 73.6561C67.5971 73.6321 67.6083 73.6111 67.618 73.5872Z" fill="white"/>
<path d="M82.6285 15.6296C82.5739 15.7376 82.5194 15.8457 82.4648 15.9538C82.4384 15.936 82.4143 15.919 82.3872 15.9035C82.4697 15.8161 82.5516 15.7309 82.6348 15.6412L82.6285 15.6296Z" fill="white"/>
<path d="M87.4092 16.512C87.4172 16.6071 87.4222 16.7039 87.4294 16.8013C87.405 16.8012 87.3822 16.8041 87.3571 16.8063C87.3454 16.7076 87.3345 16.614 87.3244 16.5181C87.3517 16.5166 87.3797 16.5128 87.4092 16.512Z" fill="white"/>
<path d="M58.5635 76.3188C58.5896 76.2485 58.6135 76.1776 58.6373 76.1066C58.6726 76.1271 58.7364 76.1585 58.7351 76.163C58.7052 76.2297 58.6699 76.2899 58.6356 76.3552C58.613 76.341 58.5875 76.3285 58.5613 76.3181L58.5635 76.3188Z" fill="white"/>
<path d="M73.8169 80.9083L73.8837 80.6868C73.9083 80.6942 73.9329 80.7016 73.9575 80.709L73.8907 80.9306C73.8661 80.9232 73.8415 80.9158 73.8169 80.9083Z" fill="white"/>
<path d="M20.7092 83.353C20.429 83.2539 20.4363 83.0437 20.5107 82.8048C20.6061 82.4967 20.6713 82.4504 20.9987 82.4173C21.082 82.4082 21.1565 82.3476 21.2409 82.3267C21.3283 82.3042 21.4207 82.3053 21.5513 82.2933C21.2536 82.6651 20.9946 82.9898 20.7099 83.3508L20.7092 83.353Z" fill="white"/>
<path d="M22.292 82.59C22.3495 82.8124 22.1367 82.8459 21.9649 82.9137C22.0374 82.7867 22.1121 82.6602 22.1869 82.5338C22.2229 82.552 22.2567 82.5695 22.292 82.59Z" fill="white"/>
</g>
<defs>
<clipPath id="clip0_37_1365">
<rect width="89.8434" height="126.08" fill="white" transform="translate(36.3993) rotate(16.7802)"/>
</clipPath>
</defs>
</svg>
